<svg width="27" height="27" viewBox="0 0 27 27" fill="none" xmlns="http://www.w3.org/2000/svg">
    <path
        d="M18.7511 26.3571C17.9371 27.2145 16.6165 27.2145 15.802 26.3571C15.3488 25.88 15.1476 25.2364 15.1997 24.6127L15.2259 3.01343C15.2259 1.80559 16.1562 0.826182 17.3031 0.826182C18.4504 0.826182 19.3807 1.80559 19.3807 3.01343L19.3604 19.5065L22.622 16.0728C23.4359 15.2159 24.7566 15.2159 25.571 16.0728C26.3854 16.9302 26.3854 18.3205 25.571 19.1779L18.7511 26.3571ZM4.378 11.6128C3.56359 12.4701 2.2429 12.4701 1.42898 11.6128C0.614574 10.7554 0.614574 9.36501 1.42898 8.50816L8.12261 1.46139C8.93652 0.604015 10.2572 0.604015 11.0716 1.46139C11.5239 1.93754 11.725 2.57796 11.675 3.20014L11.7013 24.8051C11.7013 26.0129 10.7709 26.9924 9.62362 26.9924C8.47631 26.9924 7.54648 26.0129 7.54648 24.8051L7.52616 8.29851L4.378 11.6128Z"
        fill="#751076" />
</svg>
    