<svg width="27" height="26" viewBox="0 0 27 26" fill="none" xmlns="http://www.w3.org/2000/svg">
    <path fill-rule="evenodd" clip-rule="evenodd"
        d="M18.5078 14.2329V12.4543C18.5868 12.1102 18.7302 12.0092 18.8945 11.9769C19.3393 11.9059 19.2894 14.1275 18.5078 14.2329ZM19.5264 9.07573L19.4516 6.21111L14.8988 7.57245C14.4892 7.66492 14.0838 7.71009 13.6867 7.71224C13.2606 7.71439 12.8427 7.66492 12.4311 7.57245L8.08195 6.1982V9.10369C8.0965 9.28864 8.17342 9.45639 8.29608 9.61123C8.16927 9.95963 8.20877 10.3575 8.46655 10.8005C8.45408 11.0113 8.45824 11.2199 8.48734 11.4242L8.73058 11.5661V11.8178C8.62247 11.6887 8.4915 11.6135 8.34805 11.5855C8.05077 11.5274 7.84287 11.6995 7.72438 12.0113C7.67032 12.1533 7.63498 12.3296 7.62043 12.521C7.60795 12.6995 7.61211 12.8974 7.6329 13.0974C7.70982 13.8243 8.03206 14.5856 8.63287 14.6759C8.66613 14.6824 8.69939 14.6824 8.73058 14.6759V14.848C8.73058 14.8695 8.73266 14.8931 8.73681 14.9146C8.9946 16.1835 10.0133 17.1814 10.9488 17.9836C13.1254 19.8482 15.6326 19.0288 17.1585 17.3814C17.9964 16.476 18.5161 15.7986 18.4766 14.7813C18.4766 14.777 18.4766 14.7727 18.4766 14.7684V14.6759C18.5015 14.6781 18.5265 14.6781 18.5535 14.6738C19.1522 14.5835 19.4766 13.8243 19.5535 13.0952C19.5763 12.8952 19.5784 12.6974 19.5659 12.5189C19.5514 12.3275 19.5161 12.1533 19.462 12.0092C19.3518 11.7231 19.1689 11.5554 18.9069 11.5747L19.2312 11.364C19.2333 11.321 19.2354 11.2801 19.2375 11.2392C19.4017 10.7339 19.3726 10.2887 19.198 9.89942C19.2437 9.8564 19.2811 9.81339 19.3082 9.76823C19.4267 9.57467 19.4973 9.34456 19.5264 9.07573ZM9.43117 10.3381C10.8053 10.8865 12.8489 11.0952 13.6784 11.136C14.3395 11.1683 16.2501 10.9532 17.6762 10.564C17.8051 10.7769 17.9132 11.007 17.9984 11.2543H17.9943V14.7684C17.3872 18.2223 13.562 20.231 10.3126 16.747C9.57046 15.9964 9.41662 16.0437 9.17547 14.8458V10.9984C9.22328 10.764 9.31268 10.5424 9.43117 10.3381ZM21.3705 4.14652V7.64772H21.4786C21.5513 7.64772 21.6116 7.71009 21.6116 7.78536V8.72733C21.6116 8.8026 21.5513 8.86497 21.4786 8.86497H21.3705V9.19401C21.5056 9.21982 21.6095 9.34455 21.6095 9.49295C21.6095 9.65854 21.4765 9.79618 21.3164 9.79618H20.7904C20.6283 9.79618 20.4973 9.65854 20.4973 9.49295C20.4973 9.34455 20.6013 9.22197 20.7364 9.19401V8.86497H20.6304C20.5576 8.86497 20.4973 8.8026 20.4973 8.72733V7.78536C20.4973 7.71009 20.5576 7.64772 20.6304 7.64772H20.7364V4.35083L15.196 6.13369C14.1919 6.38101 13.1899 6.39606 12.1858 6.13369L6.07163 4.24545L5.51863 4.07555C4.83051 3.78521 5.00306 3.10132 5.64337 2.94217L12.56 0.806612C13.273 0.595852 13.9861 0.563593 14.6992 0.806612L21.491 2.91637C22.2291 3.10132 22.3746 3.80887 21.516 4.0992L21.3705 4.14652ZM10.1318 18.9879C11.4062 21.5385 15.5952 21.6396 17.0504 18.9879C18.2999 20.1514 22.7031 20.3858 24.0793 21.1794C24.5138 21.431 24.9088 21.7515 25.2248 22.1816C26.2622 23.5967 26.0023 23.5193 26.364 25.1817H0.818176C1.20278 23.4182 1.37741 22.1644 3.10292 21.1794C4.93653 20.1234 8.67029 20.3493 10.1318 18.9879ZM14.616 11.9726C14.2772 12.1059 14.2044 12.3984 14.3936 12.5081C14.616 12.6371 14.8988 12.4436 15.115 12.3726C15.6825 12.1855 16.3582 12.164 16.8488 12.4823C16.9798 12.5662 17.1128 12.6759 17.2479 12.8092C17.198 12.6242 17.1191 12.4543 17.0047 12.3038C16.5162 11.6565 15.275 11.6199 14.616 11.9726ZM12.4706 11.9726C12.8094 12.1059 12.8822 12.3984 12.693 12.5081C12.4706 12.6371 12.1878 12.4436 11.9716 12.3726C11.4041 12.1855 10.7284 12.164 10.2378 12.4823C10.1068 12.5662 9.97377 12.6759 9.83864 12.8092C9.88854 12.6242 9.96754 12.4543 10.0819 12.3038C10.5725 11.6565 11.8115 11.6199 12.4706 11.9726ZM10.7014 13.2307C10.6286 13.2608 10.5496 13.2135 10.5226 13.1296C10.4977 13.0436 10.5372 12.949 10.6099 12.921C11.1712 12.6952 11.7429 12.7103 12.3063 12.921C12.3791 12.949 12.4207 13.0415 12.3978 13.1275C12.3749 13.2135 12.2959 13.2608 12.2232 13.235C12.1296 13.2006 12.0361 13.1705 11.9425 13.149C11.9529 13.1834 11.9571 13.22 11.9571 13.2587C11.9571 13.4823 11.7824 13.6651 11.5642 13.6651C11.3479 13.6651 11.1712 13.4823 11.1712 13.2587C11.1712 13.2028 11.1816 13.1511 11.2003 13.1038C11.0299 13.121 10.8615 13.1662 10.7014 13.2307ZM15.2293 13.2522C15.2293 13.4759 15.406 13.6587 15.6222 13.6587C15.8384 13.6587 16.0151 13.4759 16.0151 13.2522C16.0151 13.1877 16.0006 13.1275 15.9756 13.0737C16.1461 13.0931 16.3207 13.1318 16.4933 13.1899C16.5681 13.2157 16.6451 13.164 16.6658 13.0759C16.6866 12.9877 16.643 12.8974 16.5702 12.8716C16.2875 12.7748 16.0047 12.7275 15.722 12.7296C15.4414 12.7296 15.1607 12.7791 14.8842 12.8737C14.8094 12.8995 14.7678 12.9898 14.7886 13.0759C14.8094 13.1619 14.8884 13.2135 14.9611 13.1877C15.0568 13.1554 15.1545 13.1275 15.2543 13.1081C15.2376 13.1554 15.2293 13.2028 15.2293 13.2522ZM13.1046 15.4243C13.0277 15.3577 13.0173 15.2394 13.0818 15.1598C13.1462 15.0802 13.2606 15.0695 13.3375 15.1362C13.429 15.2157 13.5163 15.2587 13.5994 15.2587C13.6826 15.2609 13.7741 15.22 13.8718 15.1362C13.9487 15.0695 14.063 15.0824 14.1275 15.162C14.1919 15.2415 14.1794 15.3598 14.1025 15.4265C13.9362 15.5684 13.7657 15.6373 13.5953 15.633C13.4082 15.6287 13.246 15.5469 13.1046 15.4243ZM12.535 16.6459C12.4415 16.5943 12.4061 16.4738 12.456 16.3792C12.5059 16.2824 12.6223 16.2459 12.7138 16.2975C13.009 16.4588 13.298 16.5405 13.5828 16.5427C13.8676 16.5427 14.1524 16.4631 14.4393 16.2996C14.5329 16.248 14.6472 16.2824 14.6992 16.3771C14.7491 16.4717 14.7158 16.5921 14.6243 16.6459C14.2813 16.8416 13.9362 16.9384 13.5849 16.9362C13.2127 16.9341 12.8614 16.8244 12.535 16.6459ZM8.67652 14.2329V12.4543C8.59752 12.1102 8.45408 12.0092 8.28984 11.9769C7.84703 11.9059 7.88861 14.1254 8.67652 14.2329Z"
        fill="#783410" />
</svg>
    