<svg width="27" height="28" viewBox="0 0 27 28" fill="none" xmlns="http://www.w3.org/2000/svg">
    <path fill-rule="evenodd" clip-rule="evenodd"
        d="M16.1663 9.13386L16.799 9.75973H16.8039C17.0718 10.029 17.0887 10.4773 16.799 10.7363L16.4276 11.1108C16.4314 11.1233 16.4401 11.1358 16.444 11.1483C16.5121 11.2905 16.5716 11.455 16.6174 11.6053L16.6256 11.6341H17.0816C17.4629 11.6341 17.7809 11.95 17.7809 12.33V13.2267C17.7809 13.6219 17.4716 13.9216 17.0816 13.9216H16.5525C16.504 14.079 16.3981 14.2776 16.3218 14.4286L16.6441 14.745L16.6567 14.7575C16.924 15.0235 16.9043 15.4643 16.6567 15.7335L16.6479 15.7422L16.0147 16.3681C15.7496 16.6503 15.2876 16.6471 15.0214 16.3681L14.6538 15.9973C14.6145 16.0245 14.1607 16.1922 14.1236 16.1922V16.6416C14.1236 17.0216 13.8061 17.3375 13.4238 17.3375H12.5232C12.1261 17.3375 11.8245 17.0292 11.8245 16.6416V16.1151C11.6527 16.0527 11.4798 15.9653 11.3156 15.8844L10.9981 16.2047L10.9856 16.2172C10.7161 16.4826 10.2759 16.4652 10.0038 16.2172L9.99558 16.209L9.36286 15.5707C9.07977 15.2895 9.08958 14.8704 9.36722 14.5903L9.73867 14.2239C9.73049 14.2114 9.72613 14.1989 9.72177 14.1827C9.66177 14.0372 9.5914 13.8819 9.55158 13.7299L9.5434 13.6963H9.09722C8.71213 13.6963 8.39904 13.3804 8.39904 12.9977V12.1009C8.39904 11.7096 8.70613 11.405 9.0994 11.405H9.6274C9.69122 11.221 9.77522 11.0701 9.85813 10.8975L9.54068 10.5778C9.26195 10.3004 9.26522 9.86721 9.54068 9.5882L10.169 8.95853V8.95473C10.4363 8.68657 10.8923 8.67246 11.1503 8.95853L11.5261 9.32927C11.5392 9.32493 11.5512 9.31625 11.5594 9.31245C11.7078 9.24351 11.8594 9.18868 12.0154 9.13929C12.0279 9.13549 12.0361 9.13114 12.0481 9.13114V8.68223C12.0481 8.30225 12.3656 7.98633 12.7479 7.98633H13.6485C14.0434 7.98633 14.3483 8.28923 14.3483 8.68223V9.20877C14.3609 9.21257 14.3772 9.22125 14.3903 9.22505C14.5343 9.28151 14.6974 9.35316 14.8327 9.42698L14.8578 9.43947L15.1796 9.123C15.4818 8.82228 15.8952 8.86842 16.1663 9.13386ZM0.924128 13.9862C0.678673 13.9894 0.452309 13.896 0.285946 13.7403C-0.0784181 13.3988 -0.097509 12.824 0.245582 12.4608C0.404855 12.2925 0.629037 12.1845 0.8794 12.1758L2.82995 12.1091C3.08086 12.1004 3.31158 12.1948 3.48122 12.3528C3.84558 12.6959 3.86631 13.2691 3.52213 13.6339C3.35667 13.8083 3.12869 13.9107 2.88776 13.9188C2.24195 13.9188 1.57322 13.9737 0.924128 13.9862ZM10.2536 23.1805C9.99831 23.187 9.77413 22.9997 9.73813 22.7435C9.70049 22.4759 9.88158 22.2284 10.1456 22.1773C9.85486 20.5348 9.05958 19.6299 8.21958 18.674C7.56613 17.9292 6.88704 17.1557 6.35195 16.0169C5.82613 14.8959 5.53704 13.737 5.54576 12.5336C5.55722 11.3301 5.86376 10.0909 6.5314 8.80925C6.53577 8.80002 6.54013 8.79351 6.54449 8.78482C7.42049 7.30943 8.64558 6.32421 10.0092 5.77161C11.1536 5.30587 12.3967 5.14737 13.6147 5.25864C14.8289 5.37047 16.018 5.74936 17.057 6.36003C18.3787 7.13735 19.4647 8.29248 20.0625 9.74996C20.3854 10.5387 20.6047 11.4191 20.632 12.3843C20.6587 13.3445 20.4929 14.3813 20.0472 15.4778C19.4516 16.9462 18.6629 17.8581 17.9265 18.7114C17.2479 19.4985 16.6158 20.2292 16.2645 21.3506C16.4636 21.3973 16.6207 21.5596 16.6518 21.774C16.6899 22.0503 16.4952 22.3065 16.2176 22.3445L16.0452 22.369C16.0136 22.6122 15.9934 22.8727 15.9841 23.1512L16.0403 23.1425C16.3185 23.1045 16.5754 23.2983 16.6136 23.5746C16.6518 23.8509 16.457 24.1076 16.1794 24.1451L16.0049 24.1701C16.0196 24.3942 16.0321 24.6092 16.018 24.8361L16.0469 24.8318C16.3272 24.7981 16.5803 24.9968 16.6158 25.2731C16.6496 25.5515 16.4505 25.8034 16.1723 25.8392L15.7965 25.8859C14.9374 28.1012 11.9587 28.5881 10.7461 26.4163C10.6717 26.3786 10.6077 26.3235 10.5597 26.2555C10.5116 26.1876 10.4811 26.1089 10.4707 26.0265C10.4624 25.9599 10.4678 25.8923 10.4865 25.8278C10.3992 25.5695 10.3338 25.2866 10.2918 24.9745L10.2759 24.9767C9.99831 25.0147 9.74031 24.8204 9.70267 24.5441C9.66449 24.2678 9.85922 24.0115 10.1369 23.9736L10.2579 23.9562C10.2667 23.6842 10.2645 23.4253 10.2536 23.1805ZM11.093 22.0411L15.2341 21.4554C15.5903 19.9621 16.3649 19.0637 17.2049 18.0942C17.8949 17.2963 18.6296 16.4451 19.1669 15.1212C19.5612 14.1517 19.7069 13.2425 19.6845 12.4044C19.6621 11.5684 19.4696 10.7971 19.1827 10.0995C18.6672 8.84508 17.7247 7.84628 16.5738 7.16884C15.653 6.6271 14.6025 6.29055 13.5296 6.19501C12.4616 6.09676 11.3707 6.23735 10.3654 6.64501C9.18777 7.12433 8.12849 7.97602 7.36649 9.25708C6.77522 10.3981 6.50195 11.4908 6.49322 12.5401C6.48449 13.5964 6.74195 14.6196 7.20995 15.6157C7.68667 16.6324 8.32267 17.3544 8.93195 18.0497C10.0572 19.333 10.8039 20.2997 11.093 22.0411ZM15.0661 22.5025L11.1983 23.0486C11.2098 23.2939 11.2141 23.5501 11.2098 23.8221L15.028 23.2825C15.0323 23.009 15.0438 22.7479 15.0661 22.5025ZM11.2299 24.8426C11.2567 25.0478 11.297 25.2351 11.3483 25.4093L15.0547 24.9544C15.0841 24.7292 15.0776 24.5245 15.064 24.3014L11.2299 24.8426ZM11.8747 26.3674C12.6901 27.2169 14.0058 26.9352 14.6499 26.0265L11.8747 26.3674ZM25.1789 11.2009C25.2977 11.1887 25.4177 11.2001 25.5321 11.2343C25.6465 11.2684 25.753 11.3248 25.8454 11.4001C26.026 11.5467 26.1514 11.7617 26.177 12.0103C26.2027 12.2583 26.1236 12.4945 25.9774 12.6736C25.8301 12.8533 25.613 12.9776 25.3643 13.0036L23.4247 13.2061C23.1754 13.2316 22.9387 13.154 22.7581 13.0074C22.6652 12.9325 22.5881 12.84 22.5312 12.7353C22.4743 12.6306 22.4387 12.5157 22.4265 12.3973C22.4014 12.1492 22.4789 11.9137 22.6261 11.734C22.7734 11.5543 22.99 11.4295 23.2392 11.4039L25.1789 11.2009ZM21.329 3.48633C21.4692 3.27788 21.6809 3.14544 21.9078 3.10092L21.9301 3.09658C22.151 3.05858 22.3883 3.10255 22.5907 3.23772C22.7996 3.37776 22.9332 3.58784 22.978 3.81474C23.0221 4.04055 22.9801 4.28482 22.84 4.49272L21.7561 6.10653C21.6154 6.31498 21.4043 6.44743 21.1763 6.49194C20.9494 6.53591 20.704 6.49411 20.495 6.35515C20.2856 6.21456 20.1525 6.00448 20.1072 5.77976L20.1034 5.75696C20.0652 5.53711 20.11 5.30207 20.2452 5.10068L21.329 3.48633ZM12.9067 0.882407C12.9132 0.631622 13.0207 0.407436 13.1887 0.248389C13.2748 0.166614 13.3764 0.102599 13.4875 0.060026C13.5986 0.0174527 13.7171 -0.00283852 13.8361 0.000319299C14.0887 0.00629035 14.3139 0.113226 14.4738 0.279873C14.6336 0.447063 14.7296 0.675591 14.7236 0.924747L14.6739 2.85394C14.6756 2.87674 14.6739 2.89899 14.6707 2.92071C14.651 3.14815 14.5474 3.35171 14.3925 3.49827C14.221 3.66084 13.9923 3.75008 13.7554 3.74688C13.7325 3.74851 13.7101 3.74688 13.6889 3.74363C13.4674 3.72489 13.2604 3.62624 13.1069 3.46624C13.0247 3.38049 12.9604 3.27942 12.9176 3.16884C12.8748 3.05827 12.8544 2.94036 12.8576 2.82191L12.9067 0.882407ZM3.24667 4.21317C3.15927 4.13208 3.08879 4.03462 3.03928 3.92639C2.98976 3.81815 2.96219 3.70126 2.95813 3.58241C2.9494 3.35008 3.02958 3.11449 3.20031 2.93211C3.2818 2.84512 3.37972 2.77498 3.48848 2.72571C3.59724 2.67643 3.7147 2.64899 3.83413 2.64495C4.06758 2.63681 4.30376 2.71661 4.48704 2.88597L5.9134 4.20991C6.09667 4.37981 6.19431 4.60889 6.20249 4.84121C6.21067 5.07354 6.12995 5.30858 5.96031 5.49043C5.87887 5.57747 5.78095 5.64764 5.67218 5.69692C5.56341 5.7462 5.44593 5.77361 5.32649 5.77758C5.20708 5.78213 5.08794 5.76319 4.9759 5.72183C4.86386 5.68047 4.76113 5.61752 4.67358 5.53657L3.24667 4.21317ZM13.4876 10.6912C14.1329 10.8161 14.6914 11.2758 14.9418 11.8789C14.9461 11.8876 14.9461 11.8947 14.9505 11.8995C15.0012 12.0179 15.0378 12.1427 15.0618 12.2611C15.113 12.5314 15.1212 12.7979 15.0618 13.0677C14.9358 13.7153 14.4749 14.2641 13.8678 14.5197C13.859 14.5241 13.8509 14.5241 13.8476 14.5273C13.4914 14.6761 13.0485 14.7222 12.6732 14.6381C12.0258 14.5138 11.4716 14.0524 11.2185 13.4504C11.2141 13.4422 11.2141 13.4341 11.2098 13.4298C11.0609 13.0748 11.015 12.6351 11.0996 12.2611C11.1967 11.7611 11.5207 11.2753 11.9456 10.9947C12.1501 10.8513 12.4278 10.739 12.6732 10.6912C12.9438 10.6386 13.217 10.6315 13.4876 10.6912Z"
        fill="#14146F" />
</svg>
    