<svg width="27" height="26" viewBox="0 0 27 26" fill="none" xmlns="http://www.w3.org/2000/svg">
    <path
        d="M17.065 21.47C16.3009 22.3234 15.4209 23.1705 14.4247 24.0111C14.6948 23.975 14.965 23.9303 15.2288 23.8792C15.9506 23.7323 16.645 23.5174 17.3161 23.2237C17.4892 23.1492 17.658 23.0704 17.8247 22.9896C17.9493 23.1513 18.0886 23.2918 18.2384 23.411C18.4009 23.5408 18.574 23.6429 18.7555 23.7196C18.422 23.9005 18.0801 24.0643 17.7298 24.2176C16.9848 24.5411 16.2186 24.7773 15.4293 24.9391C14.64 25.1008 13.8232 25.1817 12.9832 25.1817C12.1432 25.1817 11.3328 25.1008 10.5371 24.9391C9.75622 24.7837 9.00488 24.5496 8.2662 24.2325C8.25987 24.2325 8.24509 24.2261 8.23665 24.2176C7.50641 23.9005 6.81205 23.5174 6.16412 23.0832C5.51408 22.649 4.91469 22.1489 4.36807 21.5955C3.813 21.0443 3.32336 20.4399 2.89282 19.7844C2.45383 19.1289 2.08238 18.4287 1.76791 17.6944C1.44711 16.9431 1.21284 16.1705 1.05244 15.3746C0.898376 14.5807 0.818176 13.7549 0.818176 12.9079C0.818176 12.0608 0.898376 11.2436 1.05878 10.4412C1.21284 9.65375 1.445 8.89609 1.75947 8.15119C1.75947 8.1448 1.7658 8.1299 1.77424 8.12139C2.08871 7.37862 2.4686 6.6848 2.89915 6.03142C3.32969 5.37591 3.82567 4.77148 4.3744 4.22025C4.92102 3.66052 5.52041 3.16676 6.17045 2.73259C6.82049 2.2899 7.51274 1.91533 8.24298 1.59821C8.98799 1.27471 9.75411 1.03848 10.5434 0.876726C11.3307 0.717105 12.1496 0.63623 12.9874 0.63623C13.8274 0.63623 14.6379 0.717105 15.4335 0.878854C16.2144 1.03422 16.9658 1.26833 17.7044 1.58544C17.7108 1.58544 17.7255 1.59183 17.734 1.60034C18.4642 1.91746 19.1586 2.30055 19.8065 2.73471C20.4566 3.16888 21.0559 3.66903 21.6026 4.22238C22.1576 4.77361 22.6473 5.37804 23.0778 6.03355C23.5168 6.68906 23.8883 7.38926 24.2027 8.12352C24.5235 8.8748 24.7578 9.64737 24.9182 10.4433C25.0089 10.8945 25.0744 11.3542 25.1145 11.8225L24.0107 11.5266C23.9769 11.2329 23.9326 10.9435 23.8756 10.6562C23.73 9.9283 23.5168 9.2281 23.2256 8.5513C23.0441 8.11714 22.8393 7.70425 22.6114 7.30626H19.0488C19.682 8.39807 20.1379 9.48349 20.4143 10.5668L19.2156 10.2454C18.9032 9.27492 18.4326 8.29591 17.7994 7.30626H13.5214V9.30472C13.4454 9.34941 13.3694 9.40262 13.2956 9.46221C13.2365 9.50903 13.1795 9.56011 13.1267 9.61332C13.055 9.68781 12.9874 9.76655 12.9304 9.85168C12.8376 9.98789 12.7637 10.139 12.7067 10.3008C12.6497 10.4646 12.616 10.6285 12.6033 10.7881C12.5928 10.9243 12.597 11.0648 12.6181 11.2031C12.635 11.3181 12.6603 11.4309 12.6983 11.5415L12.7088 11.5713C12.7173 11.5947 12.7257 11.6182 12.7342 11.6394C12.7468 11.6756 12.7574 11.6969 12.7616 11.7075L12.7658 11.7054L13.5319 13.4442H13.5193V18.5095H15.7606L16.2334 19.5843H13.5214V23.3684C14.7138 22.3809 15.7374 21.3848 16.5901 20.3867L17.065 21.47ZM25.1187 21.487C25.0469 21.5594 24.9625 21.6147 24.8739 21.6551C24.781 21.6977 24.6818 21.7232 24.5826 21.7317C24.475 21.7403 24.3652 21.7296 24.2597 21.6956C24.1584 21.6636 24.0613 21.6104 23.9748 21.5381L21.6342 19.5354L20.8301 21.5253C20.7626 21.6913 20.6824 21.8445 20.5916 21.9829C20.4988 22.1233 20.3953 22.2447 20.2877 22.3404C20.2012 22.4171 20.1062 22.483 20.007 22.532C19.9078 22.5809 19.8065 22.6129 19.701 22.6278C19.5786 22.6448 19.4562 22.6363 19.338 22.6022C19.224 22.5682 19.1143 22.5128 19.0087 22.4298C18.9243 22.3638 18.8462 22.2787 18.7724 22.1766C18.7048 22.0829 18.6436 21.9722 18.5866 21.8445C17.0628 18.3818 15.2457 14.6552 13.8865 11.1691C13.8696 11.1223 13.857 11.0754 13.8506 11.0265C13.8443 10.9775 13.8422 10.9286 13.8464 10.8796C13.8506 10.8222 13.8633 10.7668 13.8823 10.7115C13.9013 10.6583 13.9266 10.6051 13.9583 10.5583C13.9752 10.5349 13.992 10.5115 14.0131 10.4923C14.03 10.4753 14.049 10.4582 14.0701 10.4433C14.1081 10.4136 14.1482 10.388 14.1904 10.3667L14.201 10.3625C14.2411 10.3433 14.2833 10.3284 14.3234 10.3199L14.3424 10.3156C14.3804 10.3071 14.4184 10.3029 14.4563 10.3008C14.5007 10.2986 14.5429 10.3029 14.5851 10.3093C14.5999 10.3114 14.6146 10.3135 14.6294 10.3156C18.3524 11.2478 22.0964 12.312 25.8109 13.3059C25.9439 13.3421 26.0621 13.3868 26.1655 13.4378C26.2774 13.4953 26.3723 13.5591 26.4504 13.6315C26.5475 13.7209 26.6214 13.8231 26.672 13.9316C26.7248 14.0444 26.7522 14.1657 26.7543 14.2913V14.2934C26.7565 14.3998 26.7417 14.5062 26.71 14.6126C26.6784 14.7191 26.6298 14.8212 26.5665 14.9212C26.4884 15.0447 26.3871 15.1681 26.2647 15.2809C26.1465 15.3916 26.0072 15.4959 25.8532 15.5917C25.2432 15.9535 24.6354 16.3366 24.0297 16.7069L26.3618 18.7224C26.4462 18.7968 26.5137 18.8841 26.5602 18.9799L26.5665 18.9969C26.6108 19.0927 26.6383 19.1927 26.6467 19.297C26.6551 19.4013 26.6446 19.5098 26.6129 19.6162C26.5834 19.7163 26.5348 19.8142 26.4673 19.9014C26.1106 20.3441 25.5134 21.1188 25.1187 21.487ZM24.5066 20.7144L25.6358 19.3779L22.8921 17.007L22.8773 16.9921C22.8647 16.9793 22.8499 16.9644 22.8393 16.9516C22.8224 16.9325 22.8077 16.9112 22.795 16.8878C22.7254 16.7729 22.7106 16.6409 22.7401 16.5196C22.7697 16.3983 22.8457 16.2876 22.9596 16.2195C23.7532 15.7789 24.5721 15.2277 25.3551 14.7531C25.4458 14.6978 25.526 14.6361 25.5936 14.5743C25.6569 14.5147 25.7096 14.4552 25.7455 14.3977C25.7603 14.3743 25.7708 14.3551 25.7772 14.336C25.7603 14.3232 25.7413 14.3126 25.7139 14.2998C25.6738 14.2806 25.621 14.2636 25.5598 14.2466L15.0663 11.4415L19.4731 21.4508C19.4984 21.5061 19.5237 21.5551 19.5511 21.5955L19.5575 21.6062C19.5722 21.6253 19.5849 21.6424 19.5955 21.653C19.6123 21.6445 19.6292 21.6296 19.6503 21.6104C19.701 21.5657 19.7516 21.504 19.7981 21.4317C19.8487 21.355 19.8952 21.2635 19.9353 21.1614L20.9905 18.5478L21.0011 18.5266C21.0095 18.5095 21.018 18.4925 21.0264 18.4776L21.0327 18.467C21.0433 18.4499 21.0559 18.4329 21.0707 18.4159C21.1572 18.3137 21.2775 18.2541 21.4 18.2456C21.5224 18.235 21.649 18.2733 21.7524 18.3605L24.5066 20.7144ZM11.5586 24.0111C9.83642 22.5533 8.45614 21.0805 7.43465 19.5864H4.06626C4.38706 20.0291 4.74585 20.4399 5.13208 20.8315C5.63649 21.3401 6.17678 21.7892 6.76773 22.1851C7.35234 22.5831 7.98761 22.9278 8.67353 23.2237C8.67986 23.2301 8.6883 23.2301 8.69463 23.2386C9.35945 23.5174 10.0454 23.7387 10.7608 23.8792C11.0246 23.9303 11.2948 23.975 11.5628 24.0111H11.5586ZM3.36557 18.5117H6.75296C5.81166 16.8473 5.30092 15.1554 5.24182 13.4463H1.89876C1.92831 14.0359 1.99374 14.602 2.10348 15.1617C2.24911 15.8896 2.46016 16.5898 2.75352 17.2666C2.93503 17.7008 3.13975 18.1137 3.36557 18.5117ZM1.89876 12.3716H5.26504C5.38956 10.6924 5.94463 9.00676 6.93024 7.30626H3.36557C3.13975 7.70425 2.93503 8.11501 2.75141 8.5513C2.74508 8.55769 2.74508 8.5662 2.73664 8.57259C2.46016 9.243 2.24067 9.93469 2.10137 10.6562C1.99374 11.2159 1.91987 11.782 1.89876 12.3716ZM4.05993 6.23148H7.61616C8.63132 4.75871 9.96728 3.27955 11.6325 1.79189C11.3328 1.82807 11.0415 1.87276 10.7566 1.93235C10.0348 2.0792 9.34045 2.29416 8.66931 2.58786C7.98972 2.88157 7.35445 3.22848 6.76351 3.62646C6.17256 4.02445 5.63227 4.47352 5.12786 4.98005C4.74163 5.36953 4.38284 5.78241 4.06204 6.22509L4.05993 6.23148ZM14.3466 1.79189C16.0181 3.27955 17.3541 4.75871 18.3629 6.23148H21.9191C21.5983 5.7888 21.2396 5.37804 20.8533 4.98644C20.3489 4.47778 19.8086 4.02871 19.2177 3.63072C18.6331 3.23273 17.9978 2.88795 17.3119 2.59212C17.3055 2.58574 17.2971 2.58574 17.2908 2.57722C16.626 2.29842 15.94 2.07708 15.2246 1.93661C14.9333 1.87702 14.64 1.83445 14.3487 1.79614V1.79189H14.3466ZM13.5214 2.49209V6.23148H17.0544C16.1279 4.99495 14.9523 3.7499 13.5214 2.49209ZM12.4556 23.3705V19.5864H8.73895C9.69502 20.8528 10.936 22.1191 12.4556 23.3705ZM12.4556 18.5117V13.4463H6.30764C6.37306 15.1468 6.9429 16.8324 7.99394 18.5117H12.4556ZM12.4556 12.3716V7.30626H8.17756C7.0822 9.02166 6.47015 10.7073 6.33085 12.3716H12.4556ZM12.4556 6.23148V2.49209C11.0246 3.75203 9.84909 4.99495 8.92257 6.23148H12.4556Z"
        fill="#0E6B45" />
</svg>
    