<svg width="24" height="25" viewBox="0 0 24 25" fill="none" xmlns="http://www.w3.org/2000/svg">
    <path fill-rule="evenodd" clip-rule="evenodd"
        d="M2.20977 10.6156H23.5455V22.9979C23.5455 24.0007 22.724 24.8221 21.7217 24.8221H3.88379C2.88098 24.8221 2.06003 24.0011 2.06003 22.9983V10.6586L0.636364 6.30965L3.73689 5.42919L5.33202 9.7224L2.20977 10.6156ZM7.21387 9.18392L10.9412 8.11735L9.34985 3.83547L5.76611 4.85292L7.21387 9.18392ZM12.8278 7.57792L17.036 6.37389L15.4489 2.10336L11.3838 3.25779L12.8278 7.57792ZM18.9188 5.83541L22.0396 4.94219L20.6164 0.63623L17.4786 1.52709L18.9188 5.83541ZM4.87809 13.043H20.7274C20.8724 13.043 20.9914 13.164 20.9914 13.3071V22.1306C20.9914 22.2737 20.8705 22.3947 20.7274 22.3947H4.87809C4.73497 22.3947 4.61404 22.2761 4.61404 22.1306V13.3071C4.61404 13.1616 4.73308 13.043 4.87809 13.043ZM15.2765 18.1487C15.6605 17.9007 15.66 17.6244 15.2765 17.4052L11.3096 15.1252C10.9965 14.9287 10.6701 15.0444 10.679 15.453L10.6918 20.0612C10.7183 20.5038 10.9714 20.6257 11.3441 20.4202L15.2765 18.1487ZM3.82522 12.1073H21.7803C21.9253 12.1073 22.0438 12.2273 22.0438 12.3714V23.0664C22.0438 23.2104 21.9239 23.3304 21.7803 23.3304H3.82522C3.68162 23.3304 3.56164 23.2118 3.56164 23.0664V12.3714C3.56164 12.2259 3.6802 12.1073 3.82522 12.1073Z"
        fill="#4F6C11" />
</svg>
    