<svg width="23" height="27" viewBox="0 0 23 27" fill="none" xmlns="http://www.w3.org/2000/svg">
    <path
        d="M22.4866 19.8096C21.8733 21.2151 21.5777 21.8433 20.7888 23.0837C19.6844 24.8171 18.1266 26.9814 16.2022 26.9952C14.4888 27.0112 14.0466 25.8419 11.7199 25.8626C9.39545 25.874 8.91101 27.0181 7.19544 26.9998C5.26877 26.9814 3.79542 25.0326 2.69097 23.3015C-0.39793 18.4477 -0.724598 12.757 1.1843 9.73056C2.53542 7.58452 4.67099 6.32349 6.67766 6.32349C8.72212 6.32349 10.0066 7.48134 11.6955 7.48134C13.3355 7.48134 14.3333 6.3212 16.6977 6.3212C18.4844 6.3212 20.3733 7.32543 21.7244 9.05878C17.3066 11.5579 18.0244 18.0671 22.4866 19.8096ZM14.9021 4.3838C15.7622 3.24428 16.4155 1.63705 16.1777 0C14.7755 0.0985897 13.1355 1.02258 12.1777 2.21941C11.3088 3.31078 10.5888 4.92948 10.8688 6.49545C12.3999 6.54589 13.9844 5.60356 14.9021 4.3838Z"
        fill="black" />
</svg>