<svg width="268" height="259" viewBox="0 0 268 259" fill="none" xmlns="http://www.w3.org/2000/svg">
    <ellipse cx="134" cy="129.5" rx="134" ry="129.5" fill="url(#paint0_radial_710_1382)" />
    <path opacity="0.7"
        d="M42.8556 83.7259C42.8556 83.7259 30.5075 116.421 47.8603 149.344C65.2131 182.266 100.955 199.659 129.562 214.531C158.169 229.402 187.874 222.159 201.989 197.801C216.104 173.443 196.745 156.056 196.719 121.321C196.692 86.5868 201.79 77.3912 183.432 48.047C165.073 18.7028 120.071 12.2046 86.0382 33.9698C52.0058 55.735 42.8556 83.7259 42.8556 83.7259Z"
        fill="#F5F2F2" />
    <path
        d="M21.5301 135.094C19.2412 124.239 20.2315 112.926 24.3691 102.662C30.0426 88.3033 42.2046 78.1042 55.8371 72.1509C75.6523 63.5229 95.1045 63.3367 111.199 46.385C116.164 41.1537 120.336 35.1641 125.408 30.0373C140.378 14.9338 162.283 16.7638 178.64 28.7431C212.743 53.7188 225.038 103.216 223.138 144.113C222.287 162.472 213.739 179.56 200.209 191.603C169.609 218.849 117.652 214.263 82.504 200.04C56.311 189.446 27.6864 164.711 21.5301 135.094Z"
        fill="#FF6600" />
    <path opacity="0.7"
        d="M21.5301 135.094C19.2412 124.239 20.2315 112.926 24.3691 102.662C30.0426 88.3033 42.2046 78.1042 55.8371 72.1509C75.6523 63.5229 95.1045 63.3367 111.199 46.385C116.164 41.1537 120.336 35.1641 125.408 30.0373C140.378 14.9338 162.283 16.7638 178.64 28.7431C212.743 53.7188 225.038 103.216 223.138 144.113C222.287 162.472 213.739 179.56 200.209 191.603C169.609 218.849 117.652 214.263 82.504 200.04C56.311 189.446 27.6864 164.711 21.5301 135.094Z"
        fill="#F5F2F2" />
    <path d="M134.458 59.2012V62.4415" stroke="#263238" stroke-width="0.540321"
        stroke-linecap="round" stroke-linejoin="round" />
    <path d="M134.458 65.9404V71.1864" stroke="#263238" stroke-width="0.540321"
        stroke-linecap="round" stroke-linejoin="round" stroke-dasharray="3.5 3.5" />
    <path d="M134.458 72.9336V76.1739" stroke="#263238" stroke-width="0.540321"
        stroke-linecap="round" stroke-linejoin="round" />
    <path d="M186.172 114.057H182.932" stroke="#263238" stroke-width="0.540321"
        stroke-linecap="round" stroke-linejoin="round" />
    <path d="M179.433 114.057H174.187" stroke="#263238" stroke-width="0.540321"
        stroke-linecap="round" stroke-linejoin="round" stroke-dasharray="3.5 3.5" />
    <path d="M172.44 114.057H169.2" stroke="#263238" stroke-width="0.540321" stroke-linecap="round"
        stroke-linejoin="round" />
    <path d="M99.7232 114.057H96.478" stroke="#263238" stroke-width="0.540321"
        stroke-linecap="round" stroke-linejoin="round" />
    <path d="M92.9838 114.057H87.7378" stroke="#263238" stroke-width="0.540321"
        stroke-linecap="round" stroke-linejoin="round" stroke-dasharray="3.5 3.5" />
    <path d="M85.9908 114.057H82.7456" stroke="#263238" stroke-width="0.540321"
        stroke-linecap="round" stroke-linejoin="round" />
    <path
        d="M223.792 125.047C223.792 124.821 223.882 124.603 224.042 124.443C224.202 124.283 224.419 124.193 224.646 124.193C224.872 124.193 225.09 124.283 225.25 124.443C225.41 124.603 225.5 124.821 225.5 125.047V126.911C225.5 127.138 225.41 127.355 225.25 127.515C225.09 127.675 224.872 127.765 224.646 127.765C224.419 127.765 224.202 127.675 224.042 127.515C223.882 127.355 223.792 127.138 223.792 126.911V125.047ZM224.353 126.945C224.353 127.199 224.465 127.297 224.646 127.297C224.827 127.297 224.934 127.199 224.934 126.945V124.993C224.934 124.74 224.822 124.642 224.646 124.642C224.47 124.642 224.353 124.74 224.353 124.993V126.945Z"
        fill="#263238" />
    <path
        d="M224.192 129.751C224.333 129.769 224.474 129.732 224.589 129.649C224.703 129.565 224.781 129.441 224.807 129.302H225.188V132.904H224.627V130.176H224.192V129.751Z"
        fill="#263238" />
    <path
        d="M223.792 135.271C223.792 135.044 223.882 134.827 224.042 134.667C224.202 134.507 224.419 134.417 224.646 134.417C224.872 134.417 225.09 134.507 225.25 134.667C225.41 134.827 225.5 135.044 225.5 135.271V137.13C225.5 137.357 225.41 137.574 225.25 137.734C225.09 137.894 224.872 137.984 224.646 137.984C224.419 137.984 224.202 137.894 224.042 137.734C223.882 137.574 223.792 137.357 223.792 137.13V135.271ZM224.353 137.169C224.353 137.423 224.465 137.52 224.646 137.52C224.827 137.52 224.934 137.423 224.934 137.169V135.217C224.934 134.958 224.822 134.866 224.646 134.866C224.47 134.866 224.353 134.958 224.353 135.217V137.169Z"
        fill="#263238" />
    <path
        d="M224.192 139.975C224.333 139.992 224.474 139.956 224.589 139.872C224.703 139.789 224.781 139.665 224.807 139.526H225.188V143.098H224.627V140.37H224.192V139.975Z"
        fill="#263238" />
    <path
        d="M223.792 145.494C223.792 145.268 223.882 145.051 224.042 144.891C224.202 144.73 224.419 144.64 224.646 144.64C224.872 144.64 225.09 144.73 225.25 144.891C225.41 145.051 225.5 145.268 225.5 145.494V147.354C225.5 147.58 225.41 147.797 225.25 147.958C225.09 148.118 224.872 148.208 224.646 148.208C224.419 148.208 224.202 148.118 224.042 147.958C223.882 147.797 223.792 147.58 223.792 147.354V145.494ZM224.353 147.388C224.353 147.646 224.465 147.739 224.646 147.739C224.827 147.739 224.934 147.646 224.934 147.388V145.436C224.934 145.182 224.822 145.084 224.646 145.084C224.47 145.084 224.353 145.182 224.353 145.436V147.388Z"
        fill="#263238" />
    <path
        d="M224.192 150.194C224.333 150.211 224.474 150.174 224.589 150.091C224.703 150.008 224.781 149.884 224.807 149.745H225.188V153.322H224.627V150.594H224.192V150.194Z"
        fill="#263238" />
    <path
        d="M223.792 155.713C223.792 155.486 223.882 155.269 224.042 155.109C224.202 154.949 224.419 154.859 224.646 154.859C224.872 154.859 225.09 154.949 225.25 155.109C225.41 155.269 225.5 155.486 225.5 155.713V157.577C225.5 157.804 225.41 158.021 225.25 158.181C225.09 158.341 224.872 158.431 224.646 158.431C224.419 158.431 224.202 158.341 224.042 158.181C223.882 158.021 223.792 157.804 223.792 157.577V155.713ZM224.353 157.611C224.353 157.865 224.465 157.963 224.646 157.963C224.827 157.963 224.934 157.865 224.934 157.611V155.659C224.934 155.405 224.822 155.308 224.646 155.308C224.47 155.308 224.353 155.405 224.353 155.659V157.611Z"
        fill="#263238" />
    <path
        d="M223.792 160.827C223.792 160.601 223.882 160.383 224.042 160.223C224.202 160.063 224.419 159.973 224.646 159.973C224.872 159.973 225.09 160.063 225.25 160.223C225.41 160.383 225.5 160.601 225.5 160.827V162.672C225.5 162.898 225.41 163.115 225.25 163.276C225.09 163.436 224.872 163.526 224.646 163.526C224.419 163.526 224.202 163.436 224.042 163.276C223.882 163.115 223.792 162.898 223.792 162.672V160.827ZM224.353 162.721C224.353 162.979 224.465 163.072 224.646 163.072C224.827 163.072 224.934 162.979 224.934 162.721V160.769C224.934 160.51 224.822 160.412 224.646 160.412C224.47 160.412 224.353 160.51 224.353 160.769V162.721Z"
        fill="#263238" />
    <path
        d="M223.792 165.937C223.792 165.71 223.882 165.493 224.042 165.333C224.202 165.172 224.419 165.083 224.646 165.083C224.872 165.083 225.09 165.172 225.25 165.333C225.41 165.493 225.5 165.71 225.5 165.937V167.796C225.5 168.022 225.41 168.24 225.25 168.4C225.09 168.56 224.872 168.65 224.646 168.65C224.419 168.65 224.202 168.56 224.042 168.4C223.882 168.24 223.792 168.022 223.792 167.796V165.937ZM224.353 167.835C224.353 168.089 224.465 168.186 224.646 168.186C224.827 168.186 224.934 168.089 224.934 167.835V165.883C224.934 165.629 224.822 165.531 224.646 165.531C224.47 165.531 224.353 165.629 224.353 165.883V167.835Z"
        fill="#263238" />
    <path
        d="M224.192 175.75C224.333 175.768 224.474 175.731 224.589 175.647C224.703 175.564 224.781 175.44 224.807 175.301H225.188V178.878H224.627V176.15H224.192V175.75Z"
        fill="#263238" />
    <path
        d="M224.192 180.864C224.334 180.883 224.477 180.846 224.591 180.761C224.706 180.677 224.783 180.551 224.807 180.411H225.188V183.988H224.627V181.26H224.192V180.864Z"
        fill="#263238" />
    <path
        d="M224.192 185.974C224.333 185.991 224.474 185.954 224.589 185.871C224.703 185.788 224.781 185.664 224.807 185.525H225.188V189.097H224.627V186.374H224.192V185.974Z"
        fill="#263238" />
    <path
        d="M223.792 191.493C223.792 191.267 223.882 191.049 224.042 190.889C224.202 190.729 224.419 190.639 224.646 190.639C224.872 190.639 225.09 190.729 225.25 190.889C225.41 191.049 225.5 191.267 225.5 191.493V193.352C225.5 193.579 225.41 193.796 225.25 193.956C225.09 194.116 224.872 194.206 224.646 194.206C224.419 194.206 224.202 194.116 224.042 193.956C223.882 193.796 223.792 193.579 223.792 193.352V191.493ZM224.353 193.387C224.353 193.645 224.465 193.738 224.646 193.738C224.827 193.738 224.934 193.645 224.934 193.387V191.464C224.934 191.205 224.822 191.108 224.646 191.108C224.47 191.108 224.353 191.205 224.353 191.464V193.387Z"
        fill="#263238" />
    <path
        d="M223.792 196.603C223.792 196.376 223.882 196.159 224.042 195.999C224.202 195.839 224.419 195.749 224.646 195.749C224.872 195.749 225.09 195.839 225.25 195.999C225.41 196.159 225.5 196.376 225.5 196.603V198.462C225.5 198.688 225.41 198.906 225.25 199.066C225.09 199.226 224.872 199.316 224.646 199.316C224.419 199.316 224.202 199.226 224.042 199.066C223.882 198.906 223.792 198.688 223.792 198.462V196.603ZM224.353 198.501C224.353 198.755 224.465 198.852 224.646 198.852C224.827 198.852 224.934 198.755 224.934 198.501V196.549C224.934 196.295 224.822 196.198 224.646 196.198C224.47 196.198 224.353 196.295 224.353 196.549V198.501Z"
        fill="#263238" />
    <path
        d="M224.192 201.307C224.333 201.324 224.474 201.287 224.589 201.204C224.703 201.121 224.781 200.997 224.807 200.858H225.188V204.43H224.627V201.712H224.192V201.307Z"
        fill="#263238" />
    <path
        d="M227.208 119.528C227.349 119.545 227.491 119.509 227.606 119.425C227.721 119.342 227.8 119.218 227.828 119.079H228.204V122.656H227.642V119.928H227.208V119.528Z"
        fill="#263238" />
    <path
        d="M227.208 124.642C227.349 124.66 227.491 124.623 227.606 124.54C227.721 124.456 227.8 124.332 227.828 124.193H228.204V127.765H227.642V125.037H227.208V124.642Z"
        fill="#263238" />
    <path
        d="M226.837 135.271C226.829 135.153 226.844 135.036 226.883 134.924C226.921 134.813 226.983 134.712 227.063 134.625C227.143 134.539 227.24 134.47 227.347 134.423C227.455 134.376 227.571 134.352 227.689 134.352C227.807 134.352 227.923 134.376 228.031 134.423C228.138 134.47 228.235 134.539 228.315 134.625C228.395 134.712 228.456 134.813 228.495 134.924C228.534 135.036 228.549 135.153 228.541 135.271V137.13C228.549 137.247 228.534 137.365 228.495 137.476C228.456 137.587 228.395 137.689 228.315 137.775C228.235 137.861 228.138 137.93 228.031 137.977C227.923 138.024 227.807 138.048 227.689 138.048C227.571 138.048 227.455 138.024 227.347 137.977C227.24 137.93 227.143 137.861 227.063 137.775C226.983 137.689 226.921 137.587 226.883 137.476C226.844 137.365 226.829 137.247 226.837 137.13V135.271ZM227.399 137.169C227.399 137.423 227.511 137.52 227.687 137.52C227.862 137.52 227.979 137.423 227.979 137.169V135.217C227.979 134.958 227.867 134.866 227.687 134.866C227.506 134.866 227.399 134.958 227.399 135.217V137.169Z"
        fill="#263238" />
    <path
        d="M227.208 150.194C227.349 150.211 227.491 150.175 227.606 150.091C227.721 150.008 227.8 149.884 227.828 149.745H228.204V153.322H227.642V150.594H227.208V150.194Z"
        fill="#263238" />
    <path
        d="M226.837 155.713C226.829 155.596 226.844 155.478 226.883 155.367C226.921 155.256 226.983 155.154 227.063 155.068C227.143 154.982 227.24 154.913 227.347 154.866C227.455 154.819 227.571 154.794 227.689 154.794C227.807 154.794 227.923 154.819 228.031 154.866C228.138 154.913 228.235 154.982 228.315 155.068C228.395 155.154 228.456 155.256 228.495 155.367C228.534 155.478 228.549 155.596 228.541 155.713V157.577C228.549 157.694 228.534 157.812 228.495 157.923C228.456 158.034 228.395 158.136 228.315 158.222C228.235 158.308 228.138 158.377 228.031 158.424C227.923 158.471 227.807 158.496 227.689 158.496C227.571 158.496 227.455 158.471 227.347 158.424C227.24 158.377 227.143 158.308 227.063 158.222C226.983 158.136 226.921 158.034 226.883 157.923C226.844 157.812 226.829 157.694 226.837 157.577V155.713ZM227.399 157.611C227.399 157.865 227.511 157.963 227.687 157.963C227.862 157.963 227.979 157.865 227.979 157.611V155.659C227.979 155.406 227.867 155.308 227.687 155.308C227.506 155.308 227.399 155.406 227.399 155.659V157.611Z"
        fill="#263238" />
    <path
        d="M227.208 160.417C227.349 160.435 227.491 160.398 227.606 160.315C227.721 160.231 227.8 160.108 227.828 159.968H228.204V163.545H227.642V160.817H227.208V160.417Z"
        fill="#263238" />
    <path
        d="M227.208 165.527C227.349 165.545 227.492 165.509 227.607 165.426C227.723 165.342 227.802 165.218 227.828 165.078H228.204V168.655H227.642V165.927H227.208V165.527Z"
        fill="#263238" />
    <path
        d="M227.208 170.641C227.349 170.658 227.491 170.622 227.606 170.538C227.721 170.455 227.8 170.331 227.828 170.192H228.204V173.764H227.642V171.036H227.208V170.641Z"
        fill="#263238" />
    <path
        d="M226.837 176.16C226.829 176.043 226.844 175.925 226.883 175.814C226.921 175.703 226.983 175.601 227.063 175.515C227.143 175.429 227.24 175.36 227.347 175.313C227.455 175.266 227.571 175.242 227.689 175.242C227.807 175.242 227.923 175.266 228.031 175.313C228.138 175.36 228.235 175.429 228.315 175.515C228.395 175.601 228.456 175.703 228.495 175.814C228.534 175.925 228.549 176.043 228.541 176.16V178.019C228.549 178.137 228.534 178.255 228.495 178.366C228.456 178.477 228.395 178.578 228.315 178.665C228.235 178.751 228.138 178.82 228.031 178.867C227.923 178.914 227.807 178.938 227.689 178.938C227.571 178.938 227.455 178.914 227.347 178.867C227.24 178.82 227.143 178.751 227.063 178.665C226.983 178.578 226.921 178.477 226.883 178.366C226.844 178.255 226.829 178.137 226.837 178.019V176.16ZM227.399 178.054C227.399 178.312 227.511 178.405 227.687 178.405C227.862 178.405 227.979 178.312 227.979 178.054V176.126C227.979 175.867 227.867 175.77 227.687 175.77C227.506 175.77 227.399 175.867 227.399 176.126V178.054Z"
        fill="#263238" />
    <path
        d="M226.837 181.27C226.829 181.152 226.844 181.035 226.883 180.924C226.921 180.812 226.983 180.711 227.063 180.624C227.143 180.538 227.24 180.469 227.347 180.422C227.455 180.375 227.571 180.351 227.689 180.351C227.807 180.351 227.923 180.375 228.031 180.422C228.138 180.469 228.235 180.538 228.315 180.624C228.395 180.711 228.456 180.812 228.495 180.924C228.534 181.035 228.549 181.152 228.541 181.27V183.129C228.549 183.246 228.534 183.364 228.495 183.475C228.456 183.586 228.395 183.688 228.315 183.774C228.235 183.86 228.138 183.929 228.031 183.976C227.923 184.023 227.807 184.047 227.689 184.047C227.571 184.047 227.455 184.023 227.347 183.976C227.24 183.929 227.143 183.86 227.063 183.774C226.983 183.688 226.921 183.586 226.883 183.475C226.844 183.364 226.829 183.246 226.837 183.129V181.27ZM227.399 183.168C227.399 183.422 227.511 183.519 227.687 183.519C227.862 183.519 227.979 183.422 227.979 183.168V181.216C227.979 180.962 227.867 180.865 227.687 180.865C227.506 180.865 227.399 180.962 227.399 181.216V183.168Z"
        fill="#263238" />
    <path
        d="M221.152 150.194C221.293 150.211 221.435 150.175 221.55 150.091C221.665 150.008 221.744 149.884 221.772 149.745H222.147V153.322H221.586V150.594H221.152V150.194Z"
        fill="#263238" />
    <path
        d="M220.757 155.713C220.757 155.486 220.847 155.269 221.007 155.109C221.167 154.949 221.384 154.859 221.611 154.859C221.837 154.859 222.055 154.949 222.215 155.109C222.375 155.269 222.465 155.486 222.465 155.713V157.577C222.465 157.804 222.375 158.021 222.215 158.181C222.055 158.341 221.837 158.431 221.611 158.431C221.384 158.431 221.167 158.341 221.007 158.181C220.847 158.021 220.757 157.804 220.757 157.577V155.713ZM221.318 157.611C221.318 157.865 221.43 157.963 221.611 157.963C221.791 157.963 221.904 157.865 221.904 157.611V155.659C221.904 155.405 221.791 155.308 221.611 155.308C221.43 155.308 221.318 155.405 221.318 155.659V157.611Z"
        fill="#263238" />
    <path
        d="M220.757 160.827C220.757 160.601 220.847 160.383 221.007 160.223C221.167 160.063 221.384 159.973 221.611 159.973C221.837 159.973 222.055 160.063 222.215 160.223C222.375 160.383 222.465 160.601 222.465 160.827V162.672C222.465 162.898 222.375 163.115 222.215 163.276C222.055 163.436 221.837 163.526 221.611 163.526C221.384 163.526 221.167 163.436 221.007 163.276C220.847 163.115 220.757 162.898 220.757 162.672V160.827ZM221.318 162.721C221.318 162.979 221.43 163.072 221.611 163.072C221.791 163.072 221.904 162.979 221.904 162.721V160.769C221.904 160.51 221.791 160.412 221.611 160.412C221.43 160.412 221.318 160.51 221.318 160.769V162.721Z"
        fill="#263238" />
    <path
        d="M221.152 165.527C221.293 165.545 221.436 165.509 221.551 165.426C221.666 165.342 221.745 165.218 221.772 165.078H222.147V168.655H221.586V165.927H221.152V165.527Z"
        fill="#263238" />
    <path
        d="M221.152 175.75C221.293 175.768 221.435 175.731 221.55 175.648C221.665 175.564 221.744 175.441 221.772 175.301H222.147V178.878H221.586V176.15H221.152V175.75Z"
        fill="#263238" />
    <path
        d="M221.152 180.864C221.293 180.882 221.436 180.845 221.552 180.76C221.667 180.676 221.745 180.551 221.772 180.411H222.147V183.988H221.586V181.26H221.152V180.864Z"
        fill="#263238" />
    <path
        d="M221.152 185.974C221.293 185.991 221.435 185.955 221.55 185.871C221.665 185.788 221.744 185.664 221.772 185.525H222.147V189.097H221.586V186.374H221.152V185.974Z"
        fill="#263238" />
    <path
        d="M217.721 135.271C217.712 135.153 217.728 135.036 217.767 134.924C217.805 134.813 217.867 134.712 217.946 134.625C218.026 134.539 218.123 134.47 218.231 134.423C218.339 134.376 218.455 134.352 218.573 134.352C218.69 134.352 218.807 134.376 218.914 134.423C219.022 134.47 219.119 134.539 219.199 134.625C219.279 134.712 219.34 134.813 219.379 134.924C219.418 135.036 219.433 135.153 219.424 135.271V137.13C219.433 137.247 219.418 137.365 219.379 137.476C219.34 137.587 219.279 137.689 219.199 137.775C219.119 137.861 219.022 137.93 218.914 137.977C218.807 138.024 218.69 138.048 218.573 138.048C218.455 138.048 218.339 138.024 218.231 137.977C218.123 137.93 218.026 137.861 217.946 137.775C217.867 137.689 217.805 137.587 217.767 137.476C217.728 137.365 217.712 137.247 217.721 137.13V135.271ZM218.282 137.169C218.282 137.423 218.395 137.52 218.57 137.52C218.746 137.52 218.863 137.423 218.863 137.169V135.217C218.863 134.958 218.751 134.866 218.57 134.866C218.39 134.866 218.282 134.958 218.282 135.217V137.169Z"
        fill="#263238" />
    <path
        d="M217.721 145.494C217.712 145.377 217.728 145.259 217.767 145.148C217.805 145.037 217.867 144.935 217.946 144.849C218.026 144.763 218.123 144.694 218.231 144.647C218.339 144.6 218.455 144.576 218.573 144.576C218.69 144.576 218.807 144.6 218.914 144.647C219.022 144.694 219.119 144.763 219.199 144.849C219.279 144.935 219.34 145.037 219.379 145.148C219.418 145.259 219.433 145.377 219.424 145.494V147.353C219.433 147.471 219.418 147.589 219.379 147.7C219.34 147.811 219.279 147.912 219.199 147.999C219.119 148.085 219.022 148.154 218.914 148.201C218.807 148.248 218.69 148.272 218.573 148.272C218.455 148.272 218.339 148.248 218.231 148.201C218.123 148.154 218.026 148.085 217.946 147.999C217.867 147.912 217.805 147.811 217.767 147.7C217.728 147.589 217.712 147.471 217.721 147.353V145.494ZM218.282 147.388C218.282 147.646 218.395 147.739 218.57 147.739C218.746 147.739 218.863 147.646 218.863 147.388V145.436C218.863 145.182 218.751 145.084 218.57 145.084C218.39 145.084 218.282 145.182 218.282 145.436V147.388Z"
        fill="#263238" />
    <path
        d="M218.112 160.417C218.253 160.435 218.395 160.398 218.51 160.315C218.625 160.231 218.704 160.108 218.732 159.968H219.107V163.545H218.546V160.817H218.112V160.417Z"
        fill="#263238" />
    <path
        d="M218.112 165.527C218.253 165.545 218.396 165.509 218.511 165.426C218.626 165.342 218.705 165.218 218.732 165.078H219.107V168.655H218.546V165.927H218.112V165.527Z"
        fill="#263238" />
    <path
        d="M218.112 180.864C218.253 180.882 218.396 180.845 218.512 180.76C218.627 180.676 218.705 180.551 218.732 180.411H219.107V183.988H218.546V181.26H218.112V180.864Z"
        fill="#263238" />
    <path
        d="M217.721 186.384C217.712 186.267 217.728 186.149 217.767 186.038C217.805 185.927 217.867 185.825 217.946 185.739C218.026 185.653 218.123 185.584 218.231 185.537C218.339 185.49 218.455 185.465 218.573 185.465C218.69 185.465 218.807 185.49 218.914 185.537C219.022 185.584 219.119 185.653 219.199 185.739C219.279 185.825 219.34 185.927 219.379 186.038C219.418 186.149 219.433 186.267 219.424 186.384V188.243C219.433 188.36 219.418 188.478 219.379 188.589C219.34 188.7 219.279 188.802 219.199 188.888C219.119 188.974 219.022 189.043 218.914 189.09C218.807 189.137 218.69 189.162 218.573 189.162C218.455 189.162 218.339 189.137 218.231 189.09C218.123 189.043 218.026 188.974 217.946 188.888C217.867 188.802 217.805 188.7 217.767 188.589C217.728 188.478 217.712 188.36 217.721 188.243V186.384ZM218.282 188.277C218.282 188.531 218.395 188.629 218.57 188.629C218.746 188.629 218.863 188.531 218.863 188.277V186.325C218.863 186.072 218.751 185.974 218.57 185.974C218.39 185.974 218.282 186.072 218.282 186.325V188.277Z"
        fill="#263238" />
    <path
        d="M218.112 191.083C218.253 191.101 218.395 191.064 218.51 190.981C218.625 190.897 218.704 190.774 218.732 190.634H219.107V194.211H218.546V191.464H218.112V191.083Z"
        fill="#263238" />
    <path
        d="M91.9004 140.712C91.9004 140.485 91.9904 140.268 92.1505 140.108C92.3107 139.948 92.5279 139.858 92.7544 139.858C92.9809 139.858 93.1981 139.948 93.3583 140.108C93.5184 140.268 93.6084 140.485 93.6084 140.712V142.571C93.6084 142.798 93.5184 143.015 93.3583 143.175C93.1981 143.335 92.9809 143.425 92.7544 143.425C92.5279 143.425 92.3107 143.335 92.1505 143.175C91.9904 143.015 91.9004 142.798 91.9004 142.571V140.712ZM92.4616 142.605C92.4616 142.864 92.5738 142.962 92.7544 142.962C92.935 142.962 93.0423 142.864 93.0423 142.605V140.653C93.0423 140.395 92.9301 140.297 92.7544 140.297C92.5787 140.297 92.4616 140.395 92.4616 140.653V142.605Z"
        fill="#263238" />
    <path
        d="M91.9004 145.836C91.9004 145.609 91.9904 145.392 92.1505 145.232C92.3107 145.072 92.5279 144.982 92.7544 144.982C92.9809 144.982 93.1981 145.072 93.3583 145.232C93.5184 145.392 93.6084 145.609 93.6084 145.836V147.695C93.6084 147.922 93.5184 148.139 93.3583 148.299C93.1981 148.459 92.9809 148.549 92.7544 148.549C92.5279 148.549 92.3107 148.459 92.1505 148.299C91.9904 148.139 91.9004 147.922 91.9004 147.695V145.836ZM92.4616 147.734C92.4616 147.988 92.5738 148.086 92.7544 148.086C92.935 148.086 93.0423 147.988 93.0423 147.734V145.782C93.0423 145.529 92.9301 145.431 92.7544 145.431C92.5787 145.431 92.4616 145.529 92.4616 145.782V147.734Z"
        fill="#263238" />
    <path
        d="M92.2954 150.54C92.4358 150.558 92.5775 150.521 92.6917 150.437C92.8059 150.354 92.8841 150.23 92.9103 150.091H93.2909V153.668H92.7297V150.96H92.2954V150.54Z"
        fill="#263238" />
    <path
        d="M91.9004 156.06C91.9004 155.833 91.9904 155.616 92.1505 155.456C92.3107 155.296 92.5279 155.206 92.7544 155.206C92.9809 155.206 93.1981 155.296 93.3583 155.456C93.5184 155.616 93.6084 155.833 93.6084 156.06V157.919C93.6084 158.145 93.5184 158.363 93.3583 158.523C93.1981 158.683 92.9809 158.773 92.7544 158.773C92.5279 158.773 92.3107 158.683 92.1505 158.523C91.9904 158.363 91.9004 158.145 91.9004 157.919V156.06ZM92.4616 157.953C92.4616 158.212 92.5738 158.309 92.7544 158.309C92.935 158.309 93.0423 158.212 93.0423 157.953V156.025C93.0423 155.767 92.9301 155.669 92.7544 155.669C92.5787 155.669 92.4616 155.767 92.4616 156.025V157.953Z"
        fill="#263238" />
    <path
        d="M92.2954 160.764C92.4358 160.781 92.5775 160.744 92.6917 160.661C92.8059 160.577 92.8841 160.454 92.9103 160.315H93.2909V163.887H92.7297V161.159H92.2954V160.764Z"
        fill="#263238" />
    <path
        d="M91.9004 166.283C91.9004 166.056 91.9904 165.839 92.1505 165.679C92.3107 165.519 92.5279 165.429 92.7544 165.429C92.9809 165.429 93.1981 165.519 93.3583 165.679C93.5184 165.839 93.6084 166.056 93.6084 166.283V168.142C93.6084 168.369 93.5184 168.586 93.3583 168.746C93.1981 168.906 92.9809 168.996 92.7544 168.996C92.5279 168.996 92.3107 168.906 92.1505 168.746C91.9904 168.586 91.9004 168.369 91.9004 168.142V166.283ZM92.4616 168.176C92.4616 168.43 92.5738 168.528 92.7544 168.528C92.935 168.528 93.0423 168.43 93.0423 168.176V166.224C93.0423 165.971 92.9301 165.873 92.7544 165.873C92.5787 165.873 92.4616 165.971 92.4616 166.224V168.176Z"
        fill="#263238" />
    <path
        d="M92.2954 170.968C92.4358 170.985 92.5775 170.949 92.6917 170.865C92.8059 170.782 92.8841 170.658 92.9103 170.519H93.2909V174.096H92.7297V171.368H92.2954V170.968Z"
        fill="#263238" />
    <path
        d="M91.9004 176.502C91.9004 176.275 91.9904 176.058 92.1505 175.898C92.3107 175.738 92.5279 175.648 92.7544 175.648C92.9809 175.648 93.1981 175.738 93.3583 175.898C93.5184 176.058 93.6084 176.275 93.6084 176.502V178.361C93.6084 178.587 93.5184 178.805 93.3583 178.965C93.1981 179.125 92.9809 179.215 92.7544 179.215C92.5279 179.215 92.3107 179.125 92.1505 178.965C91.9904 178.805 91.9004 178.587 91.9004 178.361V176.502ZM92.4616 178.4C92.4616 178.654 92.5738 178.751 92.7544 178.751C92.935 178.751 93.0423 178.654 93.0423 178.4V176.448C93.0423 176.194 92.9301 176.097 92.7544 176.097C92.5787 176.097 92.4616 176.194 92.4616 176.448V178.4Z"
        fill="#263238" />
    <path
        d="M91.9004 181.616C91.9004 181.389 91.9904 181.172 92.1505 181.012C92.3107 180.852 92.5279 180.762 92.7544 180.762C92.9809 180.762 93.1981 180.852 93.3583 181.012C93.5184 181.172 93.6084 181.389 93.6084 181.616V183.475C93.6084 183.702 93.5184 183.919 93.3583 184.079C93.1981 184.239 92.9809 184.329 92.7544 184.329C92.5279 184.329 92.3107 184.239 92.1505 184.079C91.9904 183.919 91.9004 183.702 91.9004 183.475V181.616ZM92.4616 183.509C92.4616 183.763 92.5738 183.861 92.7544 183.861C92.935 183.861 93.0423 183.763 93.0423 183.509V181.557C93.0423 181.304 92.9301 181.206 92.7544 181.206C92.5787 181.206 92.4616 181.304 92.4616 181.557V183.509Z"
        fill="#263238" />
    <path
        d="M91.9004 186.725C91.9004 186.499 91.9904 186.282 92.1505 186.121C92.3107 185.961 92.5279 185.871 92.7544 185.871C92.9809 185.871 93.1981 185.961 93.3583 186.121C93.5184 186.282 93.6084 186.499 93.6084 186.725V188.585C93.6084 188.811 93.5184 189.028 93.3583 189.188C93.1981 189.349 92.9809 189.439 92.7544 189.439C92.5279 189.439 92.3107 189.349 92.1505 189.188C91.9904 189.028 91.9004 188.811 91.9004 188.585V186.725ZM92.4616 188.619C92.4616 188.877 92.5738 188.975 92.7544 188.975C92.935 188.975 93.0423 188.877 93.0423 188.619V186.691C93.0423 186.433 92.9301 186.34 92.7544 186.34C92.5787 186.34 92.4616 186.433 92.4616 186.691V188.619Z"
        fill="#263238" />
    <path
        d="M92.2954 191.43C92.4358 191.447 92.5775 191.41 92.6917 191.327C92.8059 191.243 92.8841 191.12 92.9103 190.981H93.2909V194.553H92.7297V191.825H92.2954V191.43Z"
        fill="#263238" />
    <path
        d="M92.2954 196.539C92.4358 196.556 92.5775 196.52 92.6917 196.436C92.8059 196.353 92.8841 196.229 92.9103 196.09H93.2909V199.667H92.7297V196.939H92.2954V196.539Z"
        fill="#263238" />
    <path
        d="M92.2954 201.648C92.4358 201.666 92.5775 201.629 92.6917 201.546C92.8059 201.462 92.8841 201.338 92.9103 201.199H93.2909V204.776H92.7297V202.049H92.2954V201.648Z"
        fill="#263238" />
    <path
        d="M92.2954 206.763C92.4358 206.78 92.5775 206.743 92.6917 206.66C92.8059 206.576 92.8841 206.453 92.9103 206.314H93.2909V209.886H92.7297V207.158H92.2954V206.763Z"
        fill="#263238" />
    <path
        d="M92.4614 214.175C92.4614 214.434 92.5737 214.527 92.7542 214.527C92.9348 214.527 93.0421 214.434 93.0421 214.175V212.223C93.0421 211.97 92.9299 211.872 92.7542 211.872C92.5785 211.872 92.4614 211.97 92.4614 212.223V214.175Z"
        fill="#263238" />
    <path
        d="M95.3311 160.764C95.472 160.781 95.6143 160.745 95.7293 160.661C95.8443 160.578 95.9235 160.454 95.9508 160.315H96.3266V163.887H95.7654V161.159H95.3311V160.764Z"
        fill="#263238" />
    <path
        d="M95.3311 165.873C95.472 165.891 95.6143 165.854 95.7293 165.771C95.8443 165.687 95.9235 165.564 95.9508 165.424H96.3266V169.016H95.7654V166.288H95.3311V165.873Z"
        fill="#263238" />
    <path
        d="M94.96 176.502C94.9511 176.385 94.9665 176.267 95.0053 176.156C95.044 176.045 95.1053 175.943 95.1853 175.857C95.2652 175.77 95.3621 175.702 95.4699 175.655C95.5776 175.608 95.6939 175.583 95.8115 175.583C95.9291 175.583 96.0454 175.608 96.1532 175.655C96.2609 175.702 96.3578 175.77 96.4378 175.857C96.5177 175.943 96.579 176.045 96.6178 176.156C96.6565 176.267 96.672 176.385 96.6631 176.502V178.361C96.672 178.478 96.6565 178.596 96.6178 178.707C96.579 178.818 96.5177 178.92 96.4378 179.006C96.3578 179.092 96.2609 179.161 96.1532 179.208C96.0454 179.255 95.9291 179.28 95.8115 179.28C95.6939 179.28 95.5776 179.255 95.4699 179.208C95.3621 179.161 95.2652 179.092 95.1853 179.006C95.1053 178.92 95.044 178.818 95.0053 178.707C94.9665 178.596 94.9511 178.478 94.96 178.361V176.502ZM95.5212 178.4C95.5212 178.654 95.6334 178.751 95.8091 178.751C95.9848 178.751 96.1019 178.654 96.1019 178.4V176.448C96.1019 176.194 95.9896 176.097 95.8091 176.097C95.6285 176.097 95.5212 176.194 95.5212 176.448V178.4Z"
        fill="#263238" />
    <path
        d="M95.3311 181.216C95.472 181.233 95.6143 181.197 95.7293 181.113C95.8443 181.03 95.9235 180.906 95.9508 180.767H96.3266V184.344H95.7654V181.606H95.3311V181.216Z"
        fill="#263238" />
    <path
        d="M94.96 186.725C94.9511 186.608 94.9665 186.49 95.0053 186.379C95.044 186.268 95.1053 186.166 95.1853 186.08C95.2652 185.994 95.3621 185.925 95.4699 185.878C95.5776 185.831 95.6939 185.807 95.8115 185.807C95.9291 185.807 96.0454 185.831 96.1532 185.878C96.2609 185.925 96.3578 185.994 96.4378 186.08C96.5177 186.166 96.579 186.268 96.6178 186.379C96.6565 186.49 96.672 186.608 96.6631 186.725V188.585C96.672 188.702 96.6565 188.82 96.6178 188.931C96.579 189.042 96.5177 189.144 96.4378 189.23C96.3578 189.316 96.2609 189.385 96.1532 189.432C96.0454 189.479 95.9291 189.503 95.8115 189.503C95.6939 189.503 95.5776 189.479 95.4699 189.432C95.3621 189.385 95.2652 189.316 95.1853 189.23C95.1053 189.144 95.044 189.042 95.0053 188.931C94.9665 188.82 94.9511 188.702 94.96 188.585V186.725ZM95.5212 188.619C95.5212 188.877 95.6334 188.975 95.8091 188.975C95.9848 188.975 96.1019 188.877 96.1019 188.619V186.691C96.1019 186.433 95.9896 186.34 95.8091 186.34C95.6285 186.34 95.5212 186.433 95.5212 186.691V188.619Z"
        fill="#263238" />
    <path
        d="M95.502 198.842C95.502 199.096 95.6142 199.194 95.7899 199.194C95.9656 199.194 96.0827 199.096 96.0827 198.842V196.89C96.0827 196.637 95.9704 196.539 95.7899 196.539C95.6093 196.539 95.502 196.637 95.502 196.89V198.842Z"
        fill="#263238" />
    <path
        d="M95.331 201.648C95.4662 201.663 95.6021 201.628 95.7134 201.55C95.8247 201.472 95.9038 201.356 95.9362 201.224H96.3119V204.801H95.7507V202.073H95.3164L95.331 201.648Z"
        fill="#263238" />
    <path
        d="M95.3311 206.763C95.472 206.78 95.6143 206.744 95.7293 206.66C95.8443 206.577 95.9235 206.453 95.9508 206.314H96.3266V209.886H95.7654V207.158H95.3311V206.763Z"
        fill="#263238" />
    <path
        d="M94.96 222.501C94.9511 222.383 94.9665 222.265 95.0053 222.154C95.044 222.043 95.1053 221.942 95.1853 221.855C95.2652 221.769 95.3621 221.7 95.4699 221.653C95.5776 221.606 95.6939 221.582 95.8115 221.582C95.9291 221.582 96.0454 221.606 96.1532 221.653C96.2609 221.7 96.3578 221.769 96.4378 221.855C96.5177 221.942 96.579 222.043 96.6178 222.154C96.6565 222.265 96.672 222.383 96.6631 222.501V224.365C96.672 224.482 96.6565 224.6 96.6178 224.711C96.579 224.822 96.5177 224.924 96.4378 225.01C96.3578 225.096 96.2609 225.165 96.1532 225.212C96.0454 225.259 95.9291 225.283 95.8115 225.283C95.6939 225.283 95.5776 225.259 95.4699 225.212C95.3621 225.165 95.2652 225.096 95.1853 225.01C95.1053 224.924 95.044 224.822 95.0053 224.711C94.9665 224.6 94.9511 224.482 94.96 224.365V222.501ZM95.5212 224.399C95.5212 224.653 95.6334 224.75 95.8091 224.75C95.9848 224.75 96.1019 224.653 96.1019 224.399V222.447C96.1019 222.193 95.9896 222.095 95.8091 222.095C95.6285 222.095 95.5212 222.193 95.5212 222.447V224.399Z"
        fill="#263238" />
    <path
        d="M88.8599 156.06C88.8599 155.833 88.9498 155.616 89.11 155.456C89.2701 155.296 89.4874 155.206 89.7139 155.206C89.9404 155.206 90.1576 155.296 90.3177 155.456C90.4779 155.616 90.5679 155.833 90.5679 156.06V157.919C90.5679 158.145 90.4779 158.363 90.3177 158.523C90.1576 158.683 89.9404 158.773 89.7139 158.773C89.4874 158.773 89.2701 158.683 89.11 158.523C88.9498 158.363 88.8599 158.145 88.8599 157.919V156.06ZM89.4211 157.953C89.4211 158.212 89.5333 158.309 89.7139 158.309C89.8944 158.309 90.0067 158.212 90.0067 157.953V156.025C90.0067 155.767 89.8944 155.669 89.7139 155.669C89.5333 155.669 89.4211 155.767 89.4211 156.025V157.953Z"
        fill="#263238" />
    <path
        d="M89.2554 160.764C89.3963 160.781 89.5386 160.745 89.6537 160.661C89.7687 160.578 89.8478 160.454 89.8751 160.315H90.2509V163.887H89.6897V161.159H89.2554V160.764Z"
        fill="#263238" />
    <path
        d="M89.2554 165.873C89.3963 165.891 89.5386 165.854 89.6537 165.771C89.7687 165.687 89.8478 165.564 89.8751 165.424H90.2509V169.016H89.6897V166.288H89.2554V165.873Z"
        fill="#263238" />
    <path
        d="M88.8599 171.393C88.8599 171.166 88.9498 170.949 89.11 170.789C89.2701 170.629 89.4874 170.539 89.7139 170.539C89.9404 170.539 90.1576 170.629 90.3177 170.789C90.4779 170.949 90.5679 171.166 90.5679 171.393V173.252C90.5679 173.478 90.4779 173.696 90.3177 173.856C90.1576 174.016 89.9404 174.106 89.7139 174.106C89.4874 174.106 89.2701 174.016 89.11 173.856C88.9498 173.696 88.8599 173.478 88.8599 173.252V171.393ZM89.4211 173.286C89.4211 173.545 89.5333 173.642 89.7139 173.642C89.8944 173.642 90.0067 173.545 90.0067 173.286V171.358C90.0067 171.1 89.8944 171.002 89.7139 171.002C89.5333 171.002 89.4211 171.1 89.4211 171.358V173.286Z"
        fill="#263238" />
    <path
        d="M88.8599 181.616C88.8599 181.389 88.9498 181.172 89.11 181.012C89.2701 180.852 89.4874 180.762 89.7139 180.762C89.9404 180.762 90.1576 180.852 90.3177 181.012C90.4779 181.172 90.5679 181.389 90.5679 181.616V183.475C90.5679 183.702 90.4779 183.919 90.3177 184.079C90.1576 184.239 89.9404 184.329 89.7139 184.329C89.4874 184.329 89.2701 184.239 89.11 184.079C88.9498 183.919 88.8599 183.702 88.8599 183.475V181.616ZM89.4211 183.509C89.4211 183.763 89.5333 183.861 89.7139 183.861C89.8944 183.861 90.0067 183.763 90.0067 183.509V181.557C90.0067 181.304 89.8944 181.206 89.7139 181.206C89.5333 181.206 89.4211 181.304 89.4211 181.557V183.509Z"
        fill="#263238" />
    <path
        d="M88.8599 186.725C88.8599 186.499 88.9498 186.282 89.11 186.121C89.2701 185.961 89.4874 185.871 89.7139 185.871C89.9404 185.871 90.1576 185.961 90.3177 186.121C90.4779 186.282 90.5679 186.499 90.5679 186.725V188.585C90.5679 188.811 90.4779 189.028 90.3177 189.188C90.1576 189.349 89.9404 189.439 89.7139 189.439C89.4874 189.439 89.2701 189.349 89.11 189.188C88.9498 189.028 88.8599 188.811 88.8599 188.585V186.725ZM89.4211 188.619C89.4211 188.877 89.5333 188.975 89.7139 188.975C89.8944 188.975 90.0067 188.877 90.0067 188.619V186.691C90.0067 186.433 89.8944 186.34 89.7139 186.34C89.5333 186.34 89.4211 186.433 89.4211 186.691V188.619Z"
        fill="#263238" />
    <path
        d="M89.2554 191.43C89.3963 191.447 89.5386 191.411 89.6537 191.327C89.7687 191.244 89.8478 191.12 89.8751 190.981H90.2509V194.553H89.6897V191.825H89.2554V191.43Z"
        fill="#263238" />
    <path
        d="M88.8599 196.949C88.8599 196.722 88.9498 196.505 89.11 196.345C89.2701 196.185 89.4874 196.095 89.7139 196.095C89.9404 196.095 90.1576 196.185 90.3177 196.345C90.4779 196.505 90.5679 196.722 90.5679 196.949V198.808C90.5679 199.035 90.4779 199.252 90.3177 199.412C90.1576 199.572 89.9404 199.662 89.7139 199.662C89.4874 199.662 89.2701 199.572 89.11 199.412C88.9498 199.252 88.8599 199.035 88.8599 198.808V196.949ZM89.4211 198.842C89.4211 199.096 89.5333 199.194 89.7139 199.194C89.8944 199.194 90.0067 199.096 90.0067 198.842V196.89C90.0067 196.637 89.8944 196.539 89.7139 196.539C89.5333 196.539 89.4211 196.637 89.4211 196.89V198.842Z"
        fill="#263238" />
    <path
        d="M89.2554 201.648C89.3963 201.666 89.5386 201.629 89.6537 201.546C89.7687 201.463 89.8478 201.339 89.8751 201.199H90.2509V204.776H89.6897V202.049H89.2554V201.648Z"
        fill="#263238" />
    <path
        d="M85.8247 145.836C85.8158 145.719 85.8312 145.601 85.87 145.49C85.9088 145.379 85.9701 145.277 86.05 145.191C86.13 145.104 86.2268 145.036 86.3346 144.989C86.4424 144.942 86.5587 144.917 86.6763 144.917C86.7938 144.917 86.9102 144.942 87.0179 144.989C87.1257 145.036 87.2226 145.104 87.3025 145.191C87.3825 145.277 87.4437 145.379 87.4825 145.49C87.5213 145.601 87.5367 145.719 87.5278 145.836V147.695C87.5367 147.812 87.5213 147.93 87.4825 148.041C87.4437 148.152 87.3825 148.254 87.3025 148.34C87.2226 148.426 87.1257 148.495 87.0179 148.542C86.9102 148.589 86.7938 148.614 86.6763 148.614C86.5587 148.614 86.4424 148.589 86.3346 148.542C86.2268 148.495 86.13 148.426 86.05 148.34C85.9701 148.254 85.9088 148.152 85.87 148.041C85.8312 147.93 85.8158 147.812 85.8247 147.695V145.836ZM86.3859 147.734C86.3859 147.988 86.4981 148.085 86.6738 148.085C86.8495 148.085 86.9666 147.988 86.9666 147.734V145.782C86.9666 145.528 86.8544 145.431 86.6738 145.431C86.4933 145.431 86.3859 145.528 86.3859 145.782V147.734Z"
        fill="#263238" />
    <path
        d="M86.2148 155.65C86.3558 155.667 86.4981 155.631 86.6131 155.547C86.7281 155.464 86.8073 155.34 86.8346 155.201H87.2104V158.768H86.6638V156.04H86.2295L86.2148 155.65Z"
        fill="#263238" />
    <path
        d="M86.2148 165.873C86.3558 165.891 86.4981 165.854 86.6131 165.771C86.7281 165.687 86.8073 165.564 86.8346 165.424H87.2104V169.016H86.6638V166.288H86.2295L86.2148 165.873Z"
        fill="#263238" />
    <path
        d="M85.8247 171.392C85.8158 171.275 85.8312 171.157 85.87 171.046C85.9088 170.935 85.9701 170.834 86.05 170.747C86.13 170.661 86.2268 170.592 86.3346 170.545C86.4424 170.498 86.5587 170.474 86.6763 170.474C86.7938 170.474 86.9102 170.498 87.0179 170.545C87.1257 170.592 87.2226 170.661 87.3025 170.747C87.3825 170.834 87.4437 170.935 87.4825 171.046C87.5213 171.157 87.5367 171.275 87.5278 171.392V173.252C87.5367 173.369 87.5213 173.487 87.4825 173.598C87.4437 173.709 87.3825 173.811 87.3025 173.897C87.2226 173.983 87.1257 174.052 87.0179 174.099C86.9102 174.146 86.7938 174.17 86.6763 174.17C86.5587 174.17 86.4424 174.146 86.3346 174.099C86.2268 174.052 86.13 173.983 86.05 173.897C85.9701 173.811 85.9088 173.709 85.87 173.598C85.8312 173.487 85.8158 173.369 85.8247 173.252V171.392ZM86.3859 173.291C86.3859 173.544 86.4981 173.642 86.6738 173.642C86.8495 173.642 86.9666 173.544 86.9666 173.291V171.339C86.9666 171.08 86.8544 170.987 86.6738 170.987C86.4933 170.987 86.3859 171.08 86.3859 171.339V173.291Z"
        fill="#263238" />
    <path
        d="M86.2148 186.315C86.3558 186.333 86.4981 186.296 86.6131 186.213C86.7281 186.13 86.8073 186.006 86.8346 185.866H87.2104V189.443H86.6638V186.716H86.2295L86.2148 186.315Z"
        fill="#263238" />
    <path
        d="M86.2148 191.43C86.3558 191.447 86.4981 191.411 86.6131 191.327C86.7281 191.244 86.8073 191.12 86.8346 190.981H87.2104V194.553H86.6638V191.825H86.2295L86.2148 191.43Z"
        fill="#263238" />
    <path
        d="M86.2148 196.539C86.3558 196.557 86.4981 196.52 86.6131 196.437C86.7281 196.353 86.8073 196.229 86.8346 196.09H87.2104V199.667H86.6638V196.939H86.2295L86.2148 196.539Z"
        fill="#263238" />
    <path
        d="M181.39 22.9136C181.39 22.6871 181.48 22.4699 181.64 22.3097C181.8 22.1495 182.017 22.0596 182.244 22.0596C182.47 22.0596 182.687 22.1495 182.848 22.3097C183.008 22.4699 183.098 22.6871 183.098 22.9136V24.7728C183.098 24.9993 183.008 25.2166 182.848 25.3767C182.687 25.5369 182.47 25.6268 182.244 25.6268C182.017 25.6268 181.8 25.5369 181.64 25.3767C181.48 25.2166 181.39 24.9993 181.39 24.7728V22.9136ZM181.951 24.807C181.951 25.0608 182.063 25.1584 182.244 25.1584C182.424 25.1584 182.532 25.0608 182.532 24.807V22.855C182.532 22.6013 182.419 22.5037 182.244 22.5037C182.068 22.5037 181.951 22.6013 181.951 22.855V24.807Z"
        fill="#263238" />
    <path
        d="M181.39 28.0229C181.39 27.7965 181.48 27.5792 181.64 27.4191C181.8 27.2589 182.017 27.1689 182.244 27.1689C182.47 27.1689 182.687 27.2589 182.848 27.4191C183.008 27.5792 183.098 27.7965 183.098 28.0229V29.8822C183.098 30.1087 183.008 30.3259 182.848 30.4861C182.687 30.6463 182.47 30.7362 182.244 30.7362C182.017 30.7362 181.8 30.6463 181.64 30.4861C181.48 30.3259 181.39 30.1087 181.39 29.8822V28.0229ZM181.951 29.9359C181.951 30.1945 182.063 30.2921 182.244 30.2921C182.424 30.2921 182.532 30.1945 182.532 29.9359V27.9839C182.532 27.7253 182.419 27.6277 182.244 27.6277C182.068 27.6277 181.951 27.7253 181.951 27.9839V29.9359Z"
        fill="#263238" />
    <path
        d="M181.785 42.946C181.926 42.9634 182.067 42.9266 182.181 42.8432C182.296 42.7598 182.374 42.636 182.4 42.4971H182.8V46.0741H182.239V43.3462H181.805L181.785 42.946Z"
        fill="#263238" />
    <path
        d="M181.785 48.0603C181.926 48.0776 182.067 48.0409 182.181 47.9575C182.296 47.8741 182.374 47.7503 182.4 47.6113H182.8V51.1835H182.239V48.48H181.805L181.785 48.0603Z"
        fill="#263238" />
    <path
        d="M181.39 63.7981C181.39 63.5716 181.48 63.3544 181.64 63.1942C181.8 63.0341 182.017 62.9441 182.244 62.9441C182.47 62.9441 182.687 63.0341 182.848 63.1942C183.008 63.3544 183.098 63.5716 183.098 63.7981V65.6574C183.098 65.8839 183.008 66.1011 182.848 66.2612C182.687 66.4214 182.47 66.5114 182.244 66.5114C182.017 66.5114 181.8 66.4214 181.64 66.2612C181.48 66.1011 181.39 65.8839 181.39 65.6574V63.7981ZM181.951 65.6964C181.951 65.9502 182.063 66.0478 182.244 66.0478C182.424 66.0478 182.532 65.9502 182.532 65.6964V63.7444C182.532 63.4907 182.419 63.3931 182.244 63.3931C182.068 63.3931 181.951 63.4907 181.951 63.7444V65.6964Z"
        fill="#263238" />
    <path
        d="M181.39 74.0217C181.39 73.7952 181.48 73.578 181.64 73.4179C181.8 73.2577 182.017 73.1677 182.244 73.1677C182.47 73.1677 182.687 73.2577 182.848 73.4179C183.008 73.578 183.098 73.7952 183.098 74.0217V75.881C183.098 76.1075 183.008 76.3247 182.848 76.4849C182.687 76.645 182.47 76.735 182.244 76.735C182.017 76.735 181.8 76.645 181.64 76.4849C181.48 76.3247 181.39 76.1075 181.39 75.881V74.0217ZM181.951 75.9152C181.951 76.1738 182.063 76.2714 182.244 76.2714C182.424 76.2714 182.532 76.1738 182.532 75.9152V73.9876C182.532 73.7289 182.419 73.6362 182.244 73.6362C182.068 73.6362 181.951 73.7289 181.951 73.9876V75.9152Z"
        fill="#263238" />
    <path
        d="M172.274 33.1323C172.274 32.9058 172.364 32.6886 172.524 32.5285C172.684 32.3683 172.901 32.2783 173.128 32.2783C173.354 32.2783 173.572 32.3683 173.732 32.5285C173.892 32.6886 173.982 32.9058 173.982 33.1323V34.9916C173.982 35.2181 173.892 35.4353 173.732 35.5955C173.572 35.7556 173.354 35.8456 173.128 35.8456C172.901 35.8456 172.684 35.7556 172.524 35.5955C172.364 35.4353 172.274 35.2181 172.274 34.9916V33.1323ZM172.835 35.0306C172.835 35.2844 172.947 35.382 173.128 35.382C173.308 35.382 173.416 35.2844 173.416 35.0306V33.0786C173.416 32.8249 173.304 32.7273 173.128 32.7273C172.952 32.7273 172.835 32.8249 172.835 33.0786V35.0306Z"
        fill="#263238" />
    <path
        d="M172.274 38.2319C172.274 38.0054 172.364 37.7882 172.524 37.6281C172.684 37.4679 172.901 37.3779 173.128 37.3779C173.354 37.3779 173.572 37.4679 173.732 37.6281C173.892 37.7882 173.982 38.0054 173.982 38.2319V40.0912C173.982 40.3177 173.892 40.5349 173.732 40.6951C173.572 40.8552 173.354 40.9452 173.128 40.9452C172.901 40.9452 172.684 40.8552 172.524 40.6951C172.364 40.5349 172.274 40.3177 172.274 40.0912V38.2319ZM172.835 40.1254C172.835 40.3791 172.947 40.4767 173.128 40.4767C173.308 40.4767 173.416 40.3791 173.416 40.1254V38.2319C173.416 37.9782 173.304 37.8806 173.128 37.8806C172.952 37.8806 172.835 37.9782 172.835 38.2319V40.1254Z"
        fill="#263238" />
    <path
        d="M172.274 43.356C172.274 43.1295 172.364 42.9122 172.524 42.7521C172.684 42.5919 172.901 42.502 173.128 42.502C173.354 42.502 173.572 42.5919 173.732 42.7521C173.892 42.9122 173.982 43.1295 173.982 43.356V45.2152C173.982 45.4417 173.892 45.6589 173.732 45.8191C173.572 45.9793 173.354 46.0692 173.128 46.0692C172.901 46.0692 172.684 45.9793 172.524 45.8191C172.364 45.6589 172.274 45.4417 172.274 45.2152V43.356ZM172.835 45.2494C172.835 45.508 172.947 45.6056 173.128 45.6056C173.308 45.6056 173.416 45.508 173.416 45.2494V43.3218C173.416 43.0632 173.304 42.9656 173.128 42.9656C172.952 42.9656 172.835 43.0632 172.835 43.3218V45.2494Z"
        fill="#263238" />
    <path
        d="M172.669 48.0603C172.81 48.0776 172.951 48.0409 173.066 47.9575C173.18 47.8741 173.258 47.7503 173.284 47.6113H173.665V51.1835H173.104V48.48H172.669V48.0603Z"
        fill="#263238" />
    <path
        d="M172.669 58.279C172.81 58.2964 172.951 58.2596 173.066 58.1762C173.18 58.0928 173.258 57.969 173.284 57.8301H173.665V61.4071H173.104V58.6792H172.669V58.279Z"
        fill="#263238" />
    <path
        d="M172.669 63.3931C172.81 63.4104 172.951 63.3736 173.066 63.2902C173.18 63.2068 173.258 63.0831 173.284 62.9441H173.665V66.5358H173.104V63.8079H172.669V63.3931Z"
        fill="#263238" />
    <path
        d="M172.274 74.0217C172.274 73.7952 172.364 73.578 172.524 73.4179C172.684 73.2577 172.901 73.1677 173.128 73.1677C173.354 73.1677 173.572 73.2577 173.732 73.4179C173.892 73.578 173.982 73.7952 173.982 74.0217V75.881C173.982 76.1075 173.892 76.3247 173.732 76.4849C173.572 76.645 173.354 76.735 173.128 76.735C172.901 76.735 172.684 76.645 172.524 76.4849C172.364 76.3247 172.274 76.1075 172.274 75.881V74.0217ZM172.835 75.9152C172.835 76.1738 172.947 76.2714 173.128 76.2714C173.308 76.2714 173.416 76.1738 173.416 75.9152V73.9876C173.416 73.7289 173.304 73.6362 173.128 73.6362C172.952 73.6362 172.835 73.7289 172.835 73.9876V75.9152Z"
        fill="#263238" />
    <path
        d="M172.669 78.7358C172.81 78.7532 172.951 78.7164 173.066 78.633C173.18 78.5496 173.258 78.4258 173.284 78.2869H173.665V81.859H173.104V79.1311H172.669V78.7358Z"
        fill="#263238" />
    <path
        d="M178.35 22.9136C178.35 22.6871 178.44 22.4699 178.6 22.3097C178.76 22.1495 178.977 22.0596 179.204 22.0596C179.43 22.0596 179.647 22.1495 179.807 22.3097C179.968 22.4699 180.058 22.6871 180.058 22.9136V24.7728C180.058 24.9993 179.968 25.2166 179.807 25.3767C179.647 25.5369 179.43 25.6268 179.204 25.6268C178.977 25.6268 178.76 25.5369 178.6 25.3767C178.44 25.2166 178.35 24.9993 178.35 24.7728V22.9136ZM178.896 24.807C178.896 25.0608 179.008 25.1584 179.184 25.1584C179.36 25.1584 179.477 25.0608 179.477 24.807V22.855C179.477 22.6013 179.365 22.5037 179.184 22.5037C179.004 22.5037 178.896 22.6013 178.896 22.855V24.807Z"
        fill="#263238" />
    <path
        d="M178.745 27.613C178.886 27.6305 179.028 27.5939 179.143 27.5106C179.258 27.4273 179.337 27.3034 179.364 27.1641H179.74V30.7411H179.179V28.0132H178.745V27.613Z"
        fill="#263238" />
    <path
        d="M178.35 33.1323C178.35 32.9058 178.44 32.6886 178.6 32.5285C178.76 32.3683 178.977 32.2783 179.204 32.2783C179.43 32.2783 179.647 32.3683 179.807 32.5285C179.968 32.6886 180.058 32.9058 180.058 33.1323V34.9916C180.058 35.2181 179.968 35.4353 179.807 35.5955C179.647 35.7556 179.43 35.8456 179.204 35.8456C178.977 35.8456 178.76 35.7556 178.6 35.5955C178.44 35.4353 178.35 35.2181 178.35 34.9916V33.1323ZM178.896 35.0306C178.896 35.2844 179.008 35.382 179.184 35.382C179.36 35.382 179.477 35.2844 179.477 35.0306V33.0786C179.477 32.8249 179.365 32.7273 179.184 32.7273C179.004 32.7273 178.896 32.8249 178.896 33.0786V35.0306Z"
        fill="#263238" />
    <path
        d="M178.745 37.8367C178.886 37.8541 179.028 37.8175 179.143 37.7342C179.258 37.6509 179.337 37.5271 179.364 37.3877H179.74V40.9647H179.179V38.2319H178.745V37.8367Z"
        fill="#263238" />
    <path
        d="M178.745 42.946C178.886 42.9635 179.028 42.9269 179.143 42.8436C179.258 42.7603 179.337 42.6364 179.364 42.4971H179.74V46.0741H179.179V43.3462H178.745V42.946Z"
        fill="#263238" />
    <path
        d="M178.745 48.0603C178.886 48.0778 179.028 48.0411 179.143 47.9578C179.258 47.8745 179.337 47.7507 179.364 47.6113H179.74V51.1835H179.179V48.48H178.745V48.0603Z"
        fill="#263238" />
    <path
        d="M178.35 53.5793C178.35 53.3528 178.44 53.1356 178.6 52.9755C178.76 52.8153 178.977 52.7253 179.204 52.7253C179.43 52.7253 179.647 52.8153 179.807 52.9755C179.968 53.1356 180.058 53.3528 180.058 53.5793V55.4386C180.058 55.6651 179.968 55.8823 179.807 56.0425C179.647 56.2026 179.43 56.2926 179.204 56.2926C178.977 56.2926 178.76 56.2026 178.6 56.0425C178.44 55.8823 178.35 55.6651 178.35 55.4386V53.5793ZM178.896 55.4728C178.896 55.7265 179.008 55.8241 179.184 55.8241C179.36 55.8241 179.477 55.7265 179.477 55.4728V53.5208C179.477 53.267 179.365 53.1694 179.184 53.1694C179.004 53.1694 178.896 53.267 178.896 53.5208V55.4728Z"
        fill="#263238" />
    <path
        d="M178.35 58.6887C178.35 58.4622 178.44 58.245 178.6 58.0848C178.76 57.9247 178.977 57.8347 179.204 57.8347C179.43 57.8347 179.647 57.9247 179.807 58.0848C179.968 58.245 180.058 58.4622 180.058 58.6887V60.548C180.058 60.7745 179.968 60.9917 179.807 61.1519C179.647 61.312 179.43 61.402 179.204 61.402C178.977 61.402 178.76 61.312 178.6 61.1519C178.44 60.9917 178.35 60.7745 178.35 60.548V58.6887ZM178.896 60.5822C178.896 60.8408 179.008 60.9384 179.184 60.9384C179.36 60.9384 179.477 60.8408 179.477 60.5822V58.6302C179.477 58.3715 179.365 58.2788 179.184 58.2788C179.004 58.2788 178.896 58.3715 178.896 58.6302V60.5822Z"
        fill="#263238" />
    <path
        d="M175.705 27.613C175.846 27.6305 175.988 27.5939 176.103 27.5106C176.218 27.4273 176.297 27.3034 176.324 27.1641H176.7V30.7411H176.139V28.0132H175.705V27.613Z"
        fill="#263238" />
    <path
        d="M175.314 33.1324C175.305 33.0151 175.32 32.8973 175.359 32.7863C175.398 32.6753 175.459 32.5735 175.539 32.4873C175.619 32.401 175.716 32.3322 175.824 32.2852C175.932 32.2381 176.048 32.2139 176.166 32.2139C176.283 32.2139 176.399 32.2381 176.507 32.2852C176.615 32.3322 176.712 32.401 176.792 32.4873C176.872 32.5735 176.933 32.6753 176.972 32.7863C177.011 32.8973 177.026 33.0151 177.017 33.1324V34.9917C177.026 35.1089 177.011 35.2267 176.972 35.3377C176.933 35.4487 176.872 35.5506 176.792 35.6368C176.712 35.723 176.615 35.7918 176.507 35.8388C176.399 35.8859 176.283 35.9102 176.166 35.9102C176.048 35.9102 175.932 35.8859 175.824 35.8388C175.716 35.7918 175.619 35.723 175.539 35.6368C175.459 35.5506 175.398 35.4487 175.359 35.3377C175.32 35.2267 175.305 35.1089 175.314 34.9917V33.1324ZM175.875 35.0307C175.875 35.2845 175.987 35.3821 176.163 35.3821C176.339 35.3821 176.456 35.2845 176.456 35.0307V33.0787C176.456 32.8249 176.344 32.7273 176.163 32.7273C175.983 32.7273 175.875 32.8249 175.875 33.0787V35.0307Z"
        fill="#263238" />
    <path
        d="M175.314 38.232C175.305 38.1147 175.32 37.9969 175.359 37.8859C175.398 37.7749 175.459 37.6731 175.539 37.5869C175.619 37.5006 175.716 37.4318 175.824 37.3848C175.932 37.3378 176.048 37.3135 176.166 37.3135C176.283 37.3135 176.399 37.3378 176.507 37.3848C176.615 37.4318 176.712 37.5006 176.792 37.5869C176.872 37.6731 176.933 37.7749 176.972 37.8859C177.011 37.9969 177.026 38.1147 177.017 38.232V40.0913C177.026 40.2085 177.011 40.3263 176.972 40.4373C176.933 40.5484 176.872 40.6502 176.792 40.7364C176.712 40.8226 176.615 40.8914 176.507 40.9385C176.399 40.9855 176.283 41.0098 176.166 41.0098C176.048 41.0098 175.932 40.9855 175.824 40.9385C175.716 40.8914 175.619 40.8226 175.539 40.7364C175.459 40.6502 175.398 40.5484 175.359 40.4373C175.32 40.3263 175.305 40.2085 175.314 40.0913V38.232ZM175.875 40.1254C175.875 40.3792 175.987 40.4768 176.163 40.4768C176.339 40.4768 176.456 40.3792 176.456 40.1254V38.232C176.456 37.9782 176.344 37.8806 176.163 37.8806C175.983 37.8806 175.875 37.9782 175.875 38.232V40.1254Z"
        fill="#263238" />
    <path
        d="M175.705 42.946C175.846 42.9635 175.988 42.9269 176.103 42.8436C176.218 42.7603 176.297 42.6364 176.324 42.4971H176.7V46.0741H176.139V43.3462H175.705V42.946Z"
        fill="#263238" />
    <path
        d="M175.705 53.1694C175.846 53.1869 175.988 53.1503 176.103 53.067C176.218 52.9836 176.297 52.8598 176.324 52.7205H176.7V56.2877H176.139V53.5696H175.705V53.1694Z"
        fill="#263238" />
    <path
        d="M175.705 58.279C175.846 58.2965 175.988 58.2599 176.103 58.1766C176.218 58.0933 176.297 57.9694 176.324 57.8301H176.7V61.4071H176.139V58.6792H175.705V58.279Z"
        fill="#263238" />
    <path
        d="M175.705 63.3931C175.846 63.4105 175.988 63.3739 176.103 63.2906C176.218 63.2073 176.297 63.0835 176.324 62.9441H176.7V66.5358H176.139V63.8079H175.705V63.3931Z"
        fill="#263238" />
    <path
        d="M38.3521 79.5019C38.3521 79.2755 38.442 79.0582 38.6022 78.8981C38.7623 78.7379 38.9796 78.6479 39.2061 78.6479C39.4325 78.6479 39.6498 78.7379 39.8099 78.8981C39.9701 79.0582 40.0601 79.2755 40.0601 79.5019V81.3661C40.0601 81.5926 39.9701 81.8098 39.8099 81.97C39.6498 82.1301 39.4325 82.2201 39.2061 82.2201C38.9796 82.2201 38.7623 82.1301 38.6022 81.97C38.442 81.8098 38.3521 81.5926 38.3521 81.3661V79.5019ZM38.9133 81.4003C38.9133 81.654 39.0255 81.7516 39.2061 81.7516C39.3866 81.7516 39.494 81.654 39.494 81.4003V79.4483C39.494 79.1945 39.3817 79.0969 39.2061 79.0969C39.0304 79.0969 38.9133 79.1945 38.9133 79.4483V81.4003Z"
        fill="#263238" />
    <path
        d="M38.3521 84.6162C38.3521 84.3897 38.442 84.1725 38.6022 84.0123C38.7623 83.8522 38.9796 83.7622 39.2061 83.7622C39.4325 83.7622 39.6498 83.8522 39.8099 84.0123C39.9701 84.1725 40.0601 84.3897 40.0601 84.6162V86.4755C40.0601 86.702 39.9701 86.9192 39.8099 87.0794C39.6498 87.2395 39.4325 87.3295 39.2061 87.3295C38.9796 87.3295 38.7623 87.2395 38.6022 87.0794C38.442 86.9192 38.3521 86.702 38.3521 86.4755V84.6162ZM38.9133 86.5096C38.9133 86.7683 39.0255 86.861 39.2061 86.861C39.3866 86.861 39.494 86.7683 39.494 86.5096V84.5576C39.494 84.3039 39.3817 84.2063 39.2061 84.2063C39.0304 84.2063 38.9133 84.3039 38.9133 84.5576V86.5096Z"
        fill="#263238" />
    <path
        d="M38.7427 89.3157C38.883 89.333 39.0247 89.2962 39.1389 89.2128C39.2532 89.1294 39.3313 89.0057 39.3576 88.8667H39.7382V92.4437H39.177V89.7158H38.7427V89.3157Z"
        fill="#263238" />
    <path
        d="M38.3521 94.8398C38.3521 94.6133 38.442 94.3961 38.6022 94.236C38.7623 94.0758 38.9796 93.9858 39.2061 93.9858C39.4325 93.9858 39.6498 94.0758 39.8099 94.236C39.9701 94.3961 40.0601 94.6133 40.0601 94.8398V96.704C40.0601 96.9305 39.9701 97.1477 39.8099 97.3079C39.6498 97.468 39.4325 97.558 39.2061 97.558C38.9796 97.558 38.7623 97.468 38.6022 97.3079C38.442 97.1477 38.3521 96.9305 38.3521 96.704V94.8398ZM38.9133 96.7382C38.9133 96.9919 39.0255 97.0895 39.2061 97.0895C39.3866 97.0895 39.494 96.9919 39.494 96.7382V94.7862C39.494 94.5324 39.3817 94.4348 39.2061 94.4348C39.0304 94.4348 38.9133 94.5324 38.9133 94.7862V96.7382Z"
        fill="#263238" />
    <path
        d="M38.7427 99.5393C38.883 99.5566 39.0247 99.5199 39.1389 99.4365C39.2532 99.3531 39.3313 99.2293 39.3576 99.0903H39.7382V102.648H39.177V99.9199H38.7427V99.5393Z"
        fill="#263238" />
    <path
        d="M38.3521 105.059C38.3521 104.832 38.442 104.615 38.6022 104.455C38.7623 104.295 38.9796 104.205 39.2061 104.205C39.4325 104.205 39.6498 104.295 39.8099 104.455C39.9701 104.615 40.0601 104.832 40.0601 105.059V106.918C40.0601 107.144 39.9701 107.362 39.8099 107.522C39.6498 107.682 39.4325 107.772 39.2061 107.772C38.9796 107.772 38.7623 107.682 38.6022 107.522C38.442 107.362 38.3521 107.144 38.3521 106.918V105.059ZM38.9133 106.957C38.9133 107.211 39.0255 107.308 39.2061 107.308C39.3866 107.308 39.494 107.211 39.494 106.957V105.005C39.494 104.746 39.3817 104.654 39.2061 104.654C39.0304 104.654 38.9133 104.746 38.9133 105.005V106.957Z"
        fill="#263238" />
    <path
        d="M38.7427 109.763C38.883 109.78 39.0247 109.743 39.1389 109.66C39.2532 109.577 39.3313 109.453 39.3576 109.314H39.7382V112.896H39.177V110.168H38.7427V109.763Z"
        fill="#263238" />
    <path
        d="M38.3521 115.282C38.3521 115.056 38.442 114.839 38.6022 114.678C38.7623 114.518 38.9796 114.428 39.2061 114.428C39.4325 114.428 39.6498 114.518 39.8099 114.678C39.9701 114.839 40.0601 115.056 40.0601 115.282V117.142C40.0601 117.368 39.9701 117.585 39.8099 117.745C39.6498 117.906 39.4325 117.996 39.2061 117.996C38.9796 117.996 38.7623 117.906 38.6022 117.745C38.442 117.585 38.3521 117.368 38.3521 117.142V115.282ZM38.9133 117.176C38.9133 117.434 39.0255 117.527 39.2061 117.527C39.3866 117.527 39.494 117.434 39.494 117.176V115.224C39.494 114.97 39.3817 114.872 39.2061 114.872C39.0304 114.872 38.9133 114.97 38.9133 115.224V117.176Z"
        fill="#263238" />
    <path
        d="M38.3521 120.392C38.3521 120.165 38.442 119.948 38.6022 119.788C38.7623 119.628 38.9796 119.538 39.2061 119.538C39.4325 119.538 39.6498 119.628 39.8099 119.788C39.9701 119.948 40.0601 120.165 40.0601 120.392V122.251C40.0601 122.477 39.9701 122.695 39.8099 122.855C39.6498 123.015 39.4325 123.105 39.2061 123.105C38.9796 123.105 38.7623 123.015 38.6022 122.855C38.442 122.695 38.3521 122.477 38.3521 122.251V120.392ZM38.9133 122.29C38.9133 122.544 39.0255 122.641 39.2061 122.641C39.3866 122.641 39.494 122.544 39.494 122.29V120.338C39.494 120.084 39.3817 119.987 39.2061 119.987C39.0304 119.987 38.9133 120.084 38.9133 120.338V122.29Z"
        fill="#263238" />
    <path
        d="M38.3521 125.506C38.3521 125.279 38.442 125.062 38.6022 124.902C38.7623 124.742 38.9796 124.652 39.2061 124.652C39.4325 124.652 39.6498 124.742 39.8099 124.902C39.9701 125.062 40.0601 125.279 40.0601 125.506V127.365C40.0601 127.592 39.9701 127.809 39.8099 127.969C39.6498 128.129 39.4325 128.219 39.2061 128.219C38.9796 128.219 38.7623 128.129 38.6022 127.969C38.442 127.809 38.3521 127.592 38.3521 127.365V125.506ZM38.9133 127.399C38.9133 127.653 39.0255 127.751 39.2061 127.751C39.3866 127.751 39.494 127.653 39.494 127.399V125.447C39.494 125.194 39.3817 125.096 39.2061 125.096C39.0304 125.096 38.9133 125.194 38.9133 125.447V127.399Z"
        fill="#263238" />
    <path
        d="M38.7427 135.315C38.8832 135.333 39.0255 135.297 39.14 135.213C39.2545 135.13 39.3324 135.005 39.3576 134.866H39.7382V138.443H39.177V135.715H38.7427V135.315Z"
        fill="#263238" />
    <path
        d="M41.7681 99.5393C41.909 99.5568 42.0513 99.5201 42.1663 99.4368C42.2814 99.3535 42.3605 99.2297 42.3878 99.0903H42.7636V102.648H42.2121V99.9199H41.7681V99.5393Z"
        fill="#263238" />
    <path
        d="M41.7681 104.649C41.909 104.666 42.0513 104.63 42.1663 104.546C42.2814 104.463 42.3605 104.339 42.3878 104.2H42.7636V107.777H42.2121V105.049H41.7681V104.649Z"
        fill="#263238" />
    <path
        d="M41.3877 110.168C41.3788 110.051 41.3942 109.933 41.433 109.822C41.4718 109.711 41.533 109.609 41.613 109.523C41.6929 109.437 41.7898 109.368 41.8976 109.321C42.0054 109.274 42.1217 109.25 42.2393 109.25C42.3568 109.25 42.4732 109.274 42.5809 109.321C42.6887 109.368 42.7856 109.437 42.8655 109.523C42.9455 109.609 43.0067 109.711 43.0455 109.822C43.0843 109.933 43.0997 110.051 43.0908 110.168V112.032C43.0997 112.149 43.0843 112.267 43.0455 112.378C43.0067 112.489 42.9455 112.591 42.8655 112.677C42.7856 112.764 42.6887 112.832 42.5809 112.879C42.4732 112.926 42.3568 112.951 42.2393 112.951C42.1217 112.951 42.0054 112.926 41.8976 112.879C41.7898 112.832 41.6929 112.764 41.613 112.677C41.533 112.591 41.4718 112.489 41.433 112.378C41.3942 112.267 41.3788 112.149 41.3877 112.032V110.168ZM41.9489 112.066C41.9489 112.32 42.0611 112.418 42.2368 112.418C42.4125 112.418 42.5296 112.32 42.5296 112.066V110.114C42.5296 109.861 42.4174 109.763 42.2368 109.763C42.0563 109.763 41.9489 109.861 41.9489 110.114V112.066Z"
        fill="#263238" />
    <path
        d="M41.3877 115.282C41.3788 115.165 41.3942 115.047 41.433 114.936C41.4718 114.825 41.533 114.723 41.613 114.637C41.6929 114.551 41.7898 114.482 41.8976 114.435C42.0054 114.388 42.1217 114.364 42.2393 114.364C42.3568 114.364 42.4732 114.388 42.5809 114.435C42.6887 114.482 42.7856 114.551 42.8655 114.637C42.9455 114.723 43.0067 114.825 43.0455 114.936C43.0843 115.047 43.0997 115.165 43.0908 115.282V117.142C43.0997 117.259 43.0843 117.377 43.0455 117.488C43.0067 117.599 42.9455 117.7 42.8655 117.787C42.7856 117.873 42.6887 117.942 42.5809 117.989C42.4732 118.036 42.3568 118.06 42.2393 118.06C42.1217 118.06 42.0054 118.036 41.8976 117.989C41.7898 117.942 41.6929 117.873 41.613 117.787C41.533 117.7 41.4718 117.599 41.433 117.488C41.3942 117.377 41.3788 117.259 41.3877 117.142V115.282ZM41.9489 117.176C41.9489 117.434 42.0611 117.527 42.2368 117.527C42.4125 117.527 42.5296 117.434 42.5296 117.176V115.224C42.5296 114.97 42.4174 114.872 42.2368 114.872C42.0563 114.872 41.9489 114.97 41.9489 115.224V117.176Z"
        fill="#263238" />
    <path
        d="M41.7681 119.982C41.9092 120 42.0521 119.964 42.1674 119.881C42.2827 119.797 42.3616 119.673 42.3878 119.533H42.7636V123.11H42.2121V120.382H41.7681V119.982Z"
        fill="#263238" />
    <path
        d="M41.7681 130.205C41.909 130.223 42.0513 130.186 42.1663 130.103C42.2814 130.02 42.3605 129.896 42.3878 129.756H42.7636V133.333H42.2121V130.605H41.7681V130.205Z"
        fill="#263238" />
    <path
        d="M35.3071 94.8398C35.3071 94.6133 35.3971 94.3961 35.5573 94.236C35.7174 94.0758 35.9346 93.9858 36.1611 93.9858C36.3876 93.9858 36.6048 94.0758 36.765 94.236C36.9252 94.3961 37.0151 94.6133 37.0151 94.8398V96.704C37.0151 96.9305 36.9252 97.1477 36.765 97.3079C36.6048 97.468 36.3876 97.558 36.1611 97.558C35.9346 97.558 35.7174 97.468 35.5573 97.3079C35.3971 97.1477 35.3071 96.9305 35.3071 96.704V94.8398ZM35.8732 96.7382C35.8732 96.9919 35.9854 97.0895 36.1611 97.0895C36.3368 97.0895 36.4539 96.9919 36.4539 96.7382V94.7862C36.4539 94.5324 36.3417 94.4348 36.1611 94.4348C35.9806 94.4348 35.8732 94.5324 35.8732 94.7862V96.7382Z"
        fill="#263238" />
    <path
        d="M35.7021 99.5393C35.8431 99.5568 35.9854 99.5201 36.1004 99.4368C36.2154 99.3535 36.2946 99.2297 36.3219 99.0903H36.6977V102.648H36.1365V99.9199H35.7021V99.5393Z"
        fill="#263238" />
    <path
        d="M35.7021 104.649C35.8431 104.666 35.9854 104.63 36.1004 104.546C36.2154 104.463 36.2946 104.339 36.3219 104.2H36.6977V107.777H36.1365V105.049H35.7021V104.649Z"
        fill="#263238" />
    <path
        d="M35.3071 110.168C35.3071 109.941 35.3971 109.724 35.5573 109.564C35.7174 109.404 35.9346 109.314 36.1611 109.314C36.3876 109.314 36.6048 109.404 36.765 109.564C36.9252 109.724 37.0151 109.941 37.0151 110.168V112.032C37.0151 112.259 36.9252 112.476 36.765 112.636C36.6048 112.796 36.3876 112.886 36.1611 112.886C35.9346 112.886 35.7174 112.796 35.5573 112.636C35.3971 112.476 35.3071 112.259 35.3071 112.032V110.168ZM35.8732 112.066C35.8732 112.32 35.9854 112.418 36.1611 112.418C36.3368 112.418 36.4539 112.32 36.4539 112.066V110.114C36.4539 109.861 36.3417 109.763 36.1611 109.763C35.9806 109.763 35.8732 109.861 35.8732 110.114V112.066Z"
        fill="#263238" />
    <path
        d="M35.7021 114.872C35.8431 114.89 35.9854 114.853 36.1004 114.77C36.2154 114.687 36.2946 114.563 36.3219 114.423H36.6977V118H36.1365V115.272H35.7021V114.872Z"
        fill="#263238" />
    <path
        d="M35.3071 120.392C35.3071 120.165 35.3971 119.948 35.5573 119.788C35.7174 119.628 35.9346 119.538 36.1611 119.538C36.3876 119.538 36.6048 119.628 36.765 119.788C36.9252 119.948 37.0151 120.165 37.0151 120.392V122.251C37.0151 122.477 36.9252 122.695 36.765 122.855C36.6048 123.015 36.3876 123.105 36.1611 123.105C35.9346 123.105 35.7174 123.015 35.5573 122.855C35.3971 122.695 35.3071 122.477 35.3071 122.251V120.392ZM35.8732 122.29C35.8732 122.544 35.9854 122.641 36.1611 122.641C36.3368 122.641 36.4539 122.544 36.4539 122.29V120.338C36.4539 120.084 36.3417 119.987 36.1611 119.987C35.9806 119.987 35.8732 120.084 35.8732 120.338V122.29Z"
        fill="#263238" />
    <path
        d="M32.2715 84.6163C32.2626 84.499 32.278 84.3812 32.3168 84.2702C32.3556 84.1592 32.4168 84.0574 32.4968 83.9711C32.5767 83.8849 32.6736 83.8161 32.7814 83.7691C32.8891 83.722 33.0055 83.6978 33.123 83.6978C33.2406 83.6978 33.3569 83.722 33.4647 83.7691C33.5725 83.8161 33.6694 83.8849 33.7493 83.9711C33.8292 84.0574 33.8905 84.1592 33.9293 84.2702C33.9681 84.3812 33.9835 84.499 33.9746 84.6163V86.4755C33.9835 86.5928 33.9681 86.7106 33.9293 86.8216C33.8905 86.9326 33.8292 87.0344 33.7493 87.1207C33.6694 87.2069 33.5725 87.2757 33.4647 87.3227C33.3569 87.3698 33.2406 87.3941 33.123 87.3941C33.0055 87.3941 32.8891 87.3698 32.7814 87.3227C32.6736 87.2757 32.5767 87.2069 32.4968 87.1207C32.4168 87.0344 32.3556 86.9326 32.3168 86.8216C32.278 86.7106 32.2626 86.5928 32.2715 86.4755V84.6163ZM32.8327 86.5097C32.8327 86.7683 32.9449 86.8611 33.1206 86.8611C33.2963 86.8611 33.4134 86.7683 33.4134 86.5097V84.5577C33.4134 84.2991 33.3012 84.2015 33.1206 84.2015C32.94 84.2015 32.8327 84.2991 32.8327 84.5577V86.5097Z"
        fill="#263238" />
    <path
        d="M32.6621 94.4299C32.803 94.4474 32.9454 94.4108 33.0604 94.3275C33.1754 94.2441 33.2545 94.1203 33.2819 93.981H33.6576V97.5531H33.0964V94.8398H32.6621V94.4299Z"
        fill="#263238" />
    <path
        d="M32.2715 99.9493C32.2626 99.832 32.278 99.7142 32.3168 99.6032C32.3556 99.4922 32.4168 99.3904 32.4968 99.3041C32.5767 99.2179 32.6736 99.1491 32.7814 99.1021C32.8891 99.055 33.0055 99.0308 33.123 99.0308C33.2406 99.0308 33.3569 99.055 33.4647 99.1021C33.5725 99.1491 33.6694 99.2179 33.7493 99.3041C33.8292 99.3904 33.8905 99.4922 33.9293 99.6032C33.9681 99.7142 33.9835 99.832 33.9746 99.9493V101.809C33.9835 101.926 33.9681 102.044 33.9293 102.155C33.8905 102.266 33.8292 102.367 33.7493 102.454C33.6694 102.54 33.5725 102.609 33.4647 102.656C33.3569 102.703 33.2406 102.727 33.123 102.727C33.0055 102.727 32.8891 102.703 32.7814 102.656C32.6736 102.609 32.5767 102.54 32.4968 102.454C32.4168 102.367 32.3556 102.266 32.3168 102.155C32.278 102.044 32.2626 101.926 32.2715 101.809V99.9493ZM32.8327 101.843C32.8327 102.101 32.9449 102.194 33.1206 102.194C33.2963 102.194 33.4134 102.101 33.4134 101.843V99.9151C33.4134 99.6565 33.3012 99.5589 33.1206 99.5589C32.94 99.5589 32.8327 99.6565 32.8327 99.9151V101.843Z"
        fill="#263238" />
    <path
        d="M32.2715 110.173C32.2626 110.056 32.278 109.938 32.3168 109.827C32.3556 109.716 32.4168 109.614 32.4968 109.528C32.5767 109.442 32.6736 109.373 32.7814 109.326C32.8891 109.279 33.0055 109.254 33.123 109.254C33.2406 109.254 33.3569 109.279 33.4647 109.326C33.5725 109.373 33.6694 109.442 33.7493 109.528C33.8292 109.614 33.8905 109.716 33.9293 109.827C33.9681 109.938 33.9835 110.056 33.9746 110.173V112.032C33.9835 112.149 33.9681 112.267 33.9293 112.378C33.8905 112.489 33.8292 112.591 33.7493 112.677C33.6694 112.764 33.5725 112.832 33.4647 112.879C33.3569 112.926 33.2406 112.951 33.123 112.951C33.0055 112.951 32.8891 112.926 32.7814 112.879C32.6736 112.832 32.5767 112.764 32.4968 112.677C32.4168 112.591 32.3556 112.489 32.3168 112.378C32.278 112.267 32.2626 112.149 32.2715 112.032V110.173ZM32.8327 112.066C32.8327 112.32 32.9449 112.418 33.1206 112.418C33.2963 112.418 33.4134 112.32 33.4134 112.066V110.114C33.4134 109.861 33.3012 109.763 33.1206 109.763C32.94 109.763 32.8327 109.861 32.8327 110.114V112.066Z"
        fill="#263238" />
    <path
        d="M32.2715 115.282C32.2626 115.165 32.278 115.047 32.3168 114.936C32.3556 114.825 32.4168 114.723 32.4968 114.637C32.5767 114.551 32.6736 114.482 32.7814 114.435C32.8891 114.388 33.0055 114.364 33.123 114.364C33.2406 114.364 33.3569 114.388 33.4647 114.435C33.5725 114.482 33.6694 114.551 33.7493 114.637C33.8292 114.723 33.8905 114.825 33.9293 114.936C33.9681 115.047 33.9835 115.165 33.9746 115.282V117.142C33.9835 117.259 33.9681 117.377 33.9293 117.488C33.8905 117.599 33.8292 117.7 33.7493 117.787C33.6694 117.873 33.5725 117.942 33.4647 117.989C33.3569 118.036 33.2406 118.06 33.123 118.06C33.0055 118.06 32.8891 118.036 32.7814 117.989C32.6736 117.942 32.5767 117.873 32.4968 117.787C32.4168 117.7 32.3556 117.599 32.3168 117.488C32.278 117.377 32.2626 117.259 32.2715 117.142V115.282ZM32.8327 117.176C32.8327 117.434 32.9449 117.532 33.1206 117.532C33.2963 117.532 33.4134 117.434 33.4134 117.176V115.224C33.4134 114.965 33.3012 114.867 33.1206 114.867C32.94 114.867 32.8327 114.965 32.8327 115.224V117.176Z"
        fill="#263238" />
    <path
        d="M32.2715 120.392C32.2626 120.274 32.278 120.157 32.3168 120.046C32.3556 119.935 32.4168 119.833 32.4968 119.747C32.5767 119.66 32.6736 119.592 32.7814 119.544C32.8891 119.497 33.0055 119.473 33.123 119.473C33.2406 119.473 33.3569 119.497 33.4647 119.544C33.5725 119.592 33.6694 119.66 33.7493 119.747C33.8292 119.833 33.8905 119.935 33.9293 120.046C33.9681 120.157 33.9835 120.274 33.9746 120.392V122.251C33.9835 122.368 33.9681 122.486 33.9293 122.597C33.8905 122.708 33.8292 122.81 33.7493 122.896C33.6694 122.982 33.5725 123.051 33.4647 123.098C33.3569 123.145 33.2406 123.169 33.123 123.169C33.0055 123.169 32.8891 123.145 32.7814 123.098C32.6736 123.051 32.5767 122.982 32.4968 122.896C32.4168 122.81 32.3556 122.708 32.3168 122.597C32.278 122.486 32.2626 122.368 32.2715 122.251V120.392ZM32.8327 122.29C32.8327 122.544 32.9449 122.641 33.1206 122.641C33.2963 122.641 33.4134 122.544 33.4134 122.29V120.338C33.4134 120.084 33.3012 119.987 33.1206 119.987C32.94 119.987 32.8327 120.084 32.8327 120.338V122.29Z"
        fill="#263238" />
    <path
        d="M32.6621 135.344C32.8038 135.361 32.9467 135.324 33.0618 135.24C33.1769 135.155 33.2556 135.03 33.2819 134.89H33.6576V138.467H33.0964V135.739H32.6621V135.344Z"
        fill="#263238" />
    <path
        d="M203.848 132.226C187.9 125.769 186.743 103.565 186.743 103.565H190.159V100.911C198.255 100.911 203.848 95.8892 203.848 95.8892C203.848 95.8892 209.44 100.911 217.536 100.911V103.565H220.952C220.952 103.565 219.791 125.769 203.848 132.226Z"
        stroke="#263238" stroke-width="0.540321" stroke-linecap="round" stroke-linejoin="round" />
    <path
        d="M203.848 129.293C193.4 124.413 190.374 111.451 189.54 105.869H192.663V103.077C196.678 102.582 200.515 101.125 203.848 98.8318C207.183 101.125 211.021 102.581 215.038 103.077V105.869H218.151C217.307 111.432 214.262 124.413 203.848 129.293Z"
        stroke="#263238" stroke-width="0.540321" stroke-linecap="round" stroke-linejoin="round" />
    <path
        d="M209.479 110.929H198.211C197.847 110.929 197.552 111.224 197.552 111.588V118.357C197.552 118.721 197.847 119.016 198.211 119.016H209.479C209.843 119.016 210.138 118.721 210.138 118.357V111.588C210.138 111.224 209.843 110.929 209.479 110.929Z"
        fill="#263238" />
    <path
        d="M204.072 104.112C203.46 104.082 202.848 104.177 202.274 104.391C201.699 104.604 201.174 104.932 200.73 105.355C200.286 105.777 199.933 106.286 199.691 106.849C199.449 107.412 199.324 108.018 199.324 108.631V109.119C199.324 109.161 199.332 109.202 199.348 109.24C199.364 109.279 199.387 109.314 199.417 109.343C199.446 109.373 199.481 109.396 199.52 109.412C199.558 109.428 199.599 109.436 199.641 109.436H200.783C200.825 109.436 200.866 109.428 200.904 109.412C200.943 109.396 200.978 109.373 201.007 109.343C201.037 109.314 201.06 109.279 201.076 109.24C201.092 109.202 201.1 109.161 201.1 109.119V108.743C201.091 108.036 201.35 107.351 201.824 106.827C202.298 106.302 202.953 105.975 203.657 105.913C204.032 105.888 204.408 105.941 204.762 106.067C205.116 106.193 205.44 106.391 205.714 106.647C205.989 106.904 206.207 107.214 206.357 107.559C206.507 107.903 206.585 108.275 206.585 108.65V109.138C206.585 109.223 206.619 109.303 206.678 109.363C206.738 109.422 206.818 109.456 206.902 109.456H208.044C208.128 109.456 208.209 109.422 208.269 109.363C208.328 109.303 208.361 109.223 208.361 109.138V108.797C208.383 107.615 207.95 106.47 207.152 105.598C206.354 104.726 205.251 104.194 204.072 104.112Z"
        fill="#263238" />
    <path
        d="M205.028 114.067C205.029 113.856 204.973 113.649 204.866 113.467C204.759 113.285 204.606 113.135 204.422 113.033C204.237 112.93 204.029 112.879 203.818 112.884C203.607 112.889 203.402 112.951 203.223 113.062C203.044 113.174 202.898 113.332 202.8 113.519C202.703 113.706 202.657 113.915 202.668 114.126C202.679 114.337 202.746 114.54 202.863 114.716C202.979 114.892 203.141 115.034 203.33 115.126L202.901 117.024H204.789L204.36 115.126C204.559 115.03 204.727 114.879 204.845 114.692C204.963 114.505 205.027 114.289 205.028 114.067Z"
        fill="#F5F2F2" stroke="#263238" stroke-width="0.540321" stroke-linecap="round"
        stroke-linejoin="round" />
    <path
        d="M153.462 30.4827H114.929C114.034 30.4827 113.309 31.208 113.309 32.1028V53.7993C113.309 54.6941 114.034 55.4195 114.929 55.4195H153.462C154.357 55.4195 155.082 54.6941 155.082 53.7993V32.1028C155.082 31.208 154.357 30.4827 153.462 30.4827Z"
        stroke="#263238" stroke-width="0.540321" stroke-linecap="round" stroke-linejoin="round" />
    <path
        d="M117.198 51.9351H129.286C129.596 51.9351 129.847 51.6838 129.847 51.3739V34.533C129.847 34.223 129.596 33.9718 129.286 33.9718H117.198C116.888 33.9718 116.637 34.223 116.637 34.533V51.3739C116.637 51.6838 116.888 51.9351 117.198 51.9351Z"
        stroke="#263238" stroke-width="0.540321" stroke-linecap="round" stroke-linejoin="round" />
    <path
        d="M123.264 51.9302H117.232C117.074 51.9302 116.923 51.8675 116.811 51.7558C116.699 51.6442 116.637 51.4927 116.637 51.3348V47.1868C116.637 47.1868 120.009 47.0404 120.575 46.3231C121.141 45.6057 120.516 44.4833 120.516 44.4833C120.311 44.2296 120.263 42.4288 120.263 42.4288L120.058 42.3752C119.858 42.3264 119.57 40.8331 119.57 40.2719C119.569 40.1102 119.615 39.9518 119.701 39.8152C119.788 39.6786 119.911 39.5696 120.058 39.5008C120.058 39.5008 119.57 35.8604 123.244 35.8604C126.919 35.8604 126.426 39.5008 126.426 39.5008C126.572 39.5696 126.696 39.6786 126.782 39.8152C126.869 39.9518 126.914 40.1102 126.914 40.2719C126.914 40.8331 126.65 42.3264 126.426 42.3752L126.221 42.4288C126.221 42.4288 126.172 44.2296 125.967 44.4833C125.967 44.4833 125.338 45.6057 125.909 46.3231C126.48 47.0404 129.847 47.1868 129.847 47.1868V51.3348C129.848 51.4132 129.833 51.4909 129.803 51.5634C129.773 51.636 129.729 51.7018 129.674 51.7573C129.619 51.8127 129.553 51.8565 129.48 51.8862C129.408 51.9159 129.33 51.9308 129.252 51.9302H123.264Z"
        fill="#263238" />
    <path
        d="M150.895 52.0181H142.687C142.523 52.0181 142.367 51.9543 142.25 51.8403C142.133 51.7263 142.066 51.5712 142.062 51.4081C142.062 51.2424 142.128 51.0835 142.245 50.9664C142.362 50.8493 142.521 50.7834 142.687 50.7834H150.895C151.06 50.7834 151.219 50.8493 151.336 50.9664C151.454 51.0835 151.519 51.2424 151.519 51.4081C151.516 51.5712 151.448 51.7263 151.331 51.8403C151.215 51.9543 151.058 52.0181 150.895 52.0181Z"
        fill="#263238" />
    <path
        d="M150.895 35.1333H133.878C133.712 35.1333 133.554 35.0675 133.436 34.9504C133.319 34.8332 133.253 34.6743 133.253 34.5087C133.253 34.343 133.319 34.1841 133.436 34.067C133.554 33.9498 133.712 33.884 133.878 33.884H150.895C151.06 33.884 151.219 33.9498 151.336 34.067C151.453 34.1841 151.519 34.343 151.519 34.5087C151.519 34.6743 151.453 34.8332 151.336 34.9504C151.219 35.0675 151.06 35.1333 150.895 35.1333Z"
        fill="#263238" />
    <path
        d="M143.638 39.3545H133.878C133.795 39.3545 133.713 39.338 133.637 39.306C133.56 39.274 133.491 39.2271 133.433 39.1681C133.375 39.1091 133.329 39.0391 133.298 38.9621C133.267 38.8852 133.252 38.8029 133.253 38.7201C133.253 38.5544 133.319 38.3956 133.436 38.2784C133.554 38.1613 133.712 38.0955 133.878 38.0955H143.638C143.801 38.0993 143.956 38.1668 144.07 38.2835C144.184 38.4002 144.248 38.5569 144.248 38.7201C144.251 38.8849 144.188 39.0441 144.074 39.163C143.96 39.2818 143.803 39.3507 143.638 39.3545Z"
        fill="#263238" />
    <path
        d="M140.53 43.6001H133.878C133.712 43.6001 133.554 43.5343 133.436 43.4172C133.319 43.3 133.253 43.1411 133.253 42.9755C133.253 42.8098 133.319 42.6509 133.436 42.5338C133.554 42.4166 133.712 42.3508 133.878 42.3508H140.53C140.695 42.3508 140.854 42.4166 140.971 42.5338C141.088 42.6509 141.154 42.8098 141.154 42.9755C141.154 43.1411 141.088 43.3 140.971 43.4172C140.854 43.5343 140.695 43.6001 140.53 43.6001Z"
        fill="#263238" />
    <path
        d="M143.638 47.7969H133.878C133.712 47.7969 133.553 47.7311 133.436 47.6139C133.319 47.4968 133.253 47.3379 133.253 47.1722C133.251 47.0886 133.265 47.0052 133.295 46.9272C133.325 46.8491 133.371 46.778 133.429 46.7179C133.487 46.6578 133.557 46.61 133.634 46.5774C133.711 46.5448 133.794 46.528 133.878 46.5281H143.638C143.72 46.53 143.802 46.5482 143.877 46.5816C143.952 46.6151 144.02 46.6632 144.077 46.7231C144.134 46.7829 144.178 46.8535 144.207 46.9306C144.237 47.0077 144.25 47.0898 144.248 47.1722C144.248 47.3354 144.184 47.4921 144.07 47.6088C143.956 47.7256 143.801 47.7931 143.638 47.7969Z"
        fill="#263238" />
    <path d="M74.0538 96.8799V120.889L67.5926 127.351H50.4346V96.8799H74.0538Z" stroke="#263238"
        stroke-width="0.540321" stroke-linecap="round" stroke-linejoin="round" />
    <path d="M74.0539 120.889L67.5928 127.351V120.889H74.0539Z" fill="#263238" stroke="#263238"
        stroke-width="0.540321" stroke-linecap="round" stroke-linejoin="round" />
    <path d="M56.1885 100.764H70.443" stroke="#263238" stroke-width="0.540321"
        stroke-linecap="round" stroke-linejoin="round" />
    <path d="M54.041 103.448H70.4427" stroke="#263238" stroke-width="0.540321"
        stroke-linecap="round" stroke-linejoin="round" />
    <path d="M54.041 106.132H70.4427" stroke="#263238" stroke-width="0.540321"
        stroke-linecap="round" stroke-linejoin="round" />
    <path d="M54.041 108.816H70.4427" stroke="#263238" stroke-width="0.540321"
        stroke-linecap="round" stroke-linejoin="round" />
    <path d="M54.041 111.5H70.4427" stroke="#263238" stroke-width="0.540321" stroke-linecap="round"
        stroke-linejoin="round" />
    <path d="M54.041 114.184H70.4427" stroke="#263238" stroke-width="0.540321"
        stroke-linecap="round" stroke-linejoin="round" />
    <path d="M54.041 116.864H70.4427" stroke="#263238" stroke-width="0.540321"
        stroke-linecap="round" stroke-linejoin="round" />
    <path d="M54.041 119.548H68.3004" stroke="#263238" stroke-width="0.540321"
        stroke-linecap="round" stroke-linejoin="round" />
    <path d="M75.1765 100.764H77.9337V124.774L71.4774 131.235H54.3193V128.395" stroke="#263238"
        stroke-width="0.540321" stroke-linecap="round" stroke-linejoin="round" />
    <path d="M77.9338 124.774L71.4775 131.235V124.774H77.9338Z" fill="#263238" stroke="#263238"
        stroke-width="0.540321" stroke-linecap="round" stroke-linejoin="round" />
    <path
        d="M162.782 80.1853H105.608C104.465 80.1853 103.539 81.1117 103.539 82.2544V145.86C103.539 147.003 104.465 147.929 105.608 147.929H162.782C163.925 147.929 164.851 147.003 164.851 145.86V82.2544C164.851 81.1117 163.925 80.1853 162.782 80.1853Z"
        fill="#FF6600" stroke="#263238" stroke-width="0.540321" stroke-linecap="round"
        stroke-linejoin="round" />
    <g opacity="0.5">
        <path d="M163.616 102.77H104.773" stroke="#F5F2F2" stroke-width="0.540321"
            stroke-linecap="round" stroke-linejoin="round" />
        <path d="M163.616 110.295H104.773" stroke="#F5F2F2" stroke-width="0.540321"
            stroke-linecap="round" stroke-linejoin="round" />
        <path d="M163.616 117.82H104.773" stroke="#F5F2F2" stroke-width="0.540321"
            stroke-linecap="round" stroke-linejoin="round" />
        <path d="M163.616 125.345H104.773" stroke="#F5F2F2" stroke-width="0.540321"
            stroke-linecap="round" stroke-linejoin="round" />
        <path d="M163.616 132.87H104.773" stroke="#F5F2F2" stroke-width="0.540321"
            stroke-linecap="round" stroke-linejoin="round" />
        <path d="M163.616 140.399H104.773" stroke="#F5F2F2" stroke-width="0.540321"
            stroke-linecap="round" stroke-linejoin="round" />
        <path d="M163.616 95.24H104.773" stroke="#F5F2F2" stroke-width="0.540321"
            stroke-linecap="round" stroke-linejoin="round" />
        <path d="M163.616 87.7151H104.773" stroke="#F5F2F2" stroke-width="0.540321"
            stroke-linecap="round" stroke-linejoin="round" />
        <path d="M149.558 146.719V81.3906" stroke="#F5F2F2" stroke-width="0.540321"
            stroke-linecap="round" stroke-linejoin="round" />
        <path d="M141.876 146.719V81.3906" stroke="#F5F2F2" stroke-width="0.540321"
            stroke-linecap="round" stroke-linejoin="round" />
        <path d="M134.195 146.719V81.3906" stroke="#F5F2F2" stroke-width="0.540321"
            stroke-linecap="round" stroke-linejoin="round" />
        <path d="M126.514 146.719V81.3906" stroke="#F5F2F2" stroke-width="0.540321"
            stroke-linecap="round" stroke-linejoin="round" />
        <path d="M118.833 146.719V81.3906" stroke="#F5F2F2" stroke-width="0.540321"
            stroke-linecap="round" stroke-linejoin="round" />
        <path d="M111.157 146.719V81.3906" stroke="#F5F2F2" stroke-width="0.540321"
            stroke-linecap="round" stroke-linejoin="round" />
        <path d="M157.238 146.719V81.3906" stroke="#F5F2F2" stroke-width="0.540321"
            stroke-linecap="round" stroke-linejoin="round" />
    </g>
    <path
        d="M132.048 134.695C132.705 131.299 133.604 127.954 134.737 124.686C134.966 124.027 135.225 123.364 135.508 122.656C136.177 120.948 137.548 117.459 137.031 116.419C136.979 116.309 136.899 116.214 136.799 116.144C136.698 116.075 136.581 116.033 136.46 116.024C136.434 116.023 136.408 116.027 136.383 116.036C136.359 116.046 136.337 116.06 136.318 116.078C134.796 117.322 133.815 120.772 133.102 123.29L132.863 124.14C131.918 127.525 131.249 130.982 130.862 134.475"
        stroke="#263238" stroke-width="0.540321" stroke-linecap="round" stroke-linejoin="round" />
    <path
        d="M134.307 134.856C134.938 131.659 135.791 128.511 136.86 125.433C137.074 124.803 137.348 124.144 137.606 123.451C138.675 120.733 140.002 117.366 139.046 115.438C138.808 114.958 138.443 114.552 137.991 114.264C137.538 113.977 137.015 113.819 136.479 113.808C135.913 113.803 135.363 113.999 134.927 114.36C132.863 116.043 131.819 119.728 130.979 122.685L130.74 123.529C129.795 126.886 129.121 130.313 128.725 133.777"
        stroke="#263238" stroke-width="0.540321" stroke-linecap="round" stroke-linejoin="round" />
    <path
        d="M139.051 133.963C139.581 131.568 140.253 129.207 141.061 126.892C141.252 126.34 141.496 125.725 141.754 125.067C143.14 121.538 144.868 117.142 143.028 113.442C142.421 112.222 141.487 111.193 140.332 110.469C139.176 109.746 137.842 109.356 136.479 109.343C134.888 109.338 133.345 109.889 132.116 110.9C128.964 113.472 127.724 117.908 126.695 121.465L126.46 122.29C125.638 125.187 125.014 128.136 124.591 131.118"
        stroke="#263238" stroke-width="0.540321" stroke-linecap="round" stroke-linejoin="round" />
    <path
        d="M141.647 132.679C142.101 130.893 142.598 129.239 143.16 127.629C143.345 127.106 143.574 126.516 143.818 125.896C145.282 122.148 147.298 117.034 145.019 112.457C144.228 110.864 143.011 109.523 141.503 108.58C139.996 107.638 138.257 107.132 136.479 107.118C134.375 107.111 132.334 107.839 130.711 109.177C127.012 112.193 125.65 116.985 124.552 120.86L124.318 121.68C123.63 124.098 123.077 126.554 122.664 129.034"
        stroke="#263238" stroke-width="0.540321" stroke-linecap="round" stroke-linejoin="round" />
    <path
        d="M144.326 130.508C144.814 126.936 147.693 122.7 147.976 117.747C148.235 113.208 146.742 110.3 145.683 108.841C145.431 108.481 145.271 108.066 145.217 107.63C145.162 107.195 145.215 106.753 145.37 106.342C146.078 104.263 146.054 102.004 145.302 99.9397"
        stroke="#263238" stroke-width="0.540321" stroke-linecap="round" stroke-linejoin="round" />
    <path
        d="M137.563 93.2686C141.32 95.6207 143.76 99.3246 143.951 104.112C144.014 105.83 142.618 106.42 140.871 105.888C137.216 104.776 128.505 101.926 123.196 116.854C122.179 119.951 121.428 123.13 120.951 126.355"
        stroke="#263238" stroke-width="0.540321" stroke-linecap="round" stroke-linejoin="round" />
    <path
        d="M130.096 93.5125C132.441 93.4808 134.758 94.0237 136.845 95.0937C140.412 97.0115 142.657 101.521 141.51 102.667C140.237 103.941 137.87 100.867 130.633 103.834C127.153 105.259 124.684 108.162 123.005 111.461C122.248 112.968 121.609 114.531 121.092 116.136C120.419 118.201 119.865 120.303 119.433 122.431"
        stroke="#263238" stroke-width="0.540321" stroke-linecap="round" stroke-linejoin="round" />
    <path
        d="M125.982 96.265C127.257 95.9291 128.568 95.7537 129.886 95.7429C136.274 95.5965 138.67 99.0027 137.967 99.8665C137.377 100.594 136.064 100.184 134.263 100.403C129.066 101.043 124.957 104 122.19 108.372C120.825 110.586 119.737 112.96 118.95 115.439C118.804 115.883 118.662 116.332 118.525 116.781"
        stroke="#263238" stroke-width="0.540321" stroke-linecap="round" stroke-linejoin="round" />
    <path
        d="M122.971 99.9396C125.1 98.2201 127.781 97.3322 130.516 97.4411C131.326 97.4411 133.327 97.7046 133.595 98.4708C133.951 99.476 130.701 98.1096 125.992 101.247C119.956 105.273 119.224 109.09 119.224 109.09"
        stroke="#263238" stroke-width="0.540321" stroke-linecap="round" stroke-linejoin="round" />
    <path
        d="M146.888 127.804C146.888 127.804 150.163 120.733 149.816 115.268C149.601 111.749 147.864 109.544 147.591 107.977C147.318 106.411 148.079 106.025 147.874 104.59"
        stroke="#263238" stroke-width="0.540321" stroke-linecap="round" stroke-linejoin="round" />
    <path d="M107.667 94.5179V84.5334H117.652" stroke="#263238" stroke-width="0.540321"
        stroke-linecap="round" stroke-linejoin="round" />
    <path d="M117.652 143.581H107.667V133.597" stroke="#263238" stroke-width="0.540321"
        stroke-linecap="round" stroke-linejoin="round" />
    <path d="M160.728 94.5179V84.5334H150.743" stroke="#263238" stroke-width="0.540321"
        stroke-linecap="round" stroke-linejoin="round" />
    <path d="M150.743 143.581H160.728V133.597" stroke="#263238" stroke-width="0.540321"
        stroke-linecap="round" stroke-linejoin="round" />
    <path
        d="M203.14 235.384C200.534 231.48 197.801 227.361 195.556 223.95C192.687 219.602 190.618 216.425 190.618 216.425C189.52 211.287 187.963 209.271 186.396 205.05C184.83 200.829 186.123 197.066 186.772 191.84C187.421 186.613 186.396 181.743 185.85 178.439C185.303 175.136 185.943 172.017 185.85 171.285C185.757 170.553 182.639 166.698 181.458 163.853C180.923 162.584 180.175 161.416 179.247 160.398C178.222 159.225 176.939 158.304 175.499 157.709C174.899 157.473 174.274 157.309 173.635 157.221C172.171 157.011 170.99 157.246 169.809 157.246C168.155 157.246 164.671 154.405 162.377 153.952C161.951 153.867 161.521 153.807 161.089 153.771C159.19 153.59 157.185 153.771 154.964 153.947C152.744 154.122 150.162 152.019 148.083 151.36H148.049C147.589 151.2 147.099 151.146 146.615 151.204C144.414 151.57 140.271 151.936 140.271 151.936C140.271 151.936 139.905 149.096 139.719 145.241C139.685 144.572 139.636 143.928 139.578 143.289C139.363 140.907 139.021 138.78 138.968 136.832C138.968 136.344 138.968 135.822 138.968 135.334C139.148 132.592 139.065 130.454 138.968 126.238C138.968 126.096 138.968 125.945 138.968 125.794C138.968 124.481 138.968 123.227 138.89 122.095C138.738 119.347 138.128 117.317 135.395 116.898C133.009 116.532 131.36 117.722 130.35 121.67C129.339 125.618 128.607 125.34 128.334 131.118C128.061 136.896 126.768 140.575 126.953 143.508C127.139 146.441 126.494 152.131 126.494 152.131C125.396 151.58 124.386 152.039 124.196 152.497C124.006 152.956 123.195 157.455 122.546 160.666C121.98 163.521 119.379 166.161 118.423 168.128V168.172C118.32 168.384 118.236 168.604 118.169 168.831C117.618 170.851 117.896 175.175 117.896 180.67C117.896 186.164 116.52 191.864 117.896 195.529C118.189 196.276 118.599 196.971 119.111 197.588C121.224 200.199 125.104 202.468 128.632 206.631C133.024 211.862 136.157 215.718 139.09 217.465C141.193 218.704 142.115 219.719 142.506 221.056C142.659 221.636 142.739 222.233 142.745 222.833C142.784 224.004 143.418 224.897 144.492 226.38C146.167 228.65 147.637 231.063 148.884 233.593C150.06 235.95 151.861 240.425 153.764 245.383L203.14 235.384Z"
        fill="#F5F2F2" />
    <path opacity="0.4"
        d="M138.953 135.31C138.924 135.798 138.919 136.286 138.953 136.808C135.444 136.144 128.671 137.877 128.568 139.946C128.451 142.469 128.144 148.432 129.427 149.823C130.711 151.214 133.463 152.102 133.463 152.102C133.26 152.117 133.058 152.144 132.858 152.18H132.79C131.911 152.365 131.111 152.815 130.496 153.468C127.812 156.221 127.7 162.321 128.578 165.258C132.253 177.458 126.304 187.111 124.186 185.94C122.068 184.769 121.897 174.282 122.537 171.827C122.923 170.395 123.112 168.918 123.098 167.435C122.161 167.123 120.194 167.576 118.389 168.138V168.094C119.365 166.142 121.946 163.487 122.512 160.632C123.161 157.421 123.976 152.922 124.162 152.463C124.347 152.004 125.362 151.546 126.46 152.097C126.46 152.097 127.104 146.412 126.919 143.474C126.733 140.536 128.022 136.867 128.3 131.084C128.578 125.301 129.305 125.584 130.315 121.636C131.326 117.688 132.975 116.497 135.361 116.863C138.094 117.283 138.704 119.303 138.855 122.061C138.548 121.769 138.222 121.499 137.879 121.251C137.015 120.579 135.929 120.259 134.839 120.353C133.575 120.528 132.467 121.817 131.765 123.144C130.755 125.096 130.589 127.19 132.009 126.472C133.619 125.667 136.942 125.935 138.968 126.204C139.051 130.415 139.134 132.567 138.953 135.31Z"
        fill="#FF6600" />
    <path opacity="0.4"
        d="M142.701 222.818C142.696 222.218 142.615 221.622 142.462 221.042C142.077 219.705 141.154 218.69 139.046 217.45C136.118 215.703 132.99 211.848 128.588 206.617C125.06 202.434 121.18 200.185 119.067 197.574C121.727 199.014 125.338 198.272 126.475 200.551C128.13 203.84 135.899 208.847 135.899 208.847C143.482 216.352 142.701 222.818 142.701 222.818Z"
        fill="#FF6600" />
    <path opacity="0.4"
        d="M148.006 151.341C147.113 151.16 144.692 157.128 144.463 159.246C143.853 164.736 146.668 181.66 143.048 181.28C141.549 181.123 139.793 173.218 139.69 169.533C139.363 158.344 139.812 153.693 139.812 153.693C139.812 153.693 139.012 147.495 139.549 143.274C139.607 143.909 139.656 144.553 139.69 145.226C139.876 149.081 140.242 151.922 140.242 151.922C140.242 151.922 144.37 151.556 146.586 151.19C147.064 151.132 147.55 151.184 148.006 151.341Z"
        fill="#FF6600" />
    <path opacity="0.4"
        d="M161.045 153.766C159.093 153.942 157.141 155.85 155.535 156.206C153.583 156.621 149.996 152.224 148.04 151.365C150.118 152.024 152.724 154.093 154.92 153.952C157.116 153.81 159.146 153.586 161.045 153.766Z"
        fill="#FF6600" />
    <path opacity="0.4"
        d="M173.611 157.216C172.644 158.427 171.866 159.778 171.303 161.223C169.732 166.303 171.215 185.525 168.682 182.377C165.384 178.288 168.829 164.102 166.423 158.685C165.662 156.953 162.944 154.181 162.353 153.947C164.647 154.4 168.131 157.241 169.785 157.241C170.966 157.241 172.152 157.006 173.611 157.216Z"
        fill="#FF6600" />
    <path opacity="0.4"
        d="M195.547 223.946C192.975 221.047 190.281 218.285 188.52 217.25C184.23 214.722 183 212.107 182.629 207.749C182.258 203.391 183.366 203.484 184.65 199.175C185.933 194.866 183.547 189.537 183.732 190.688C183.918 191.84 181.892 199.814 180.404 200.209C178.916 200.605 178.413 195.227 178.228 190.845C178.042 186.462 180.428 166.054 179.76 162.053C179.669 161.472 179.488 160.908 179.223 160.384C180.151 161.401 180.899 162.57 181.434 163.839C182.629 166.684 185.748 170.539 185.826 171.271C185.904 172.003 185.274 175.126 185.826 178.425C186.377 181.724 187.387 186.589 186.748 191.825C186.109 197.062 184.796 200.814 186.372 205.036C187.949 209.257 189.496 211.272 190.594 216.411C190.608 216.421 192.677 219.597 195.547 223.946Z"
        fill="#FF6600" />
    <path opacity="0.4"
        d="M156.814 164.624C157.79 165.649 158.405 179.079 158.956 182.382C159.508 185.686 157.795 193.606 156.814 191.196C155.833 188.785 152.842 160.447 156.814 164.624Z"
        fill="#FF6600" />
    <path
        d="M153.032 243.485C151.412 239.298 149.913 235.633 148.889 233.578C147.642 231.049 146.172 228.635 144.497 226.366C143.423 224.902 142.789 223.989 142.75 222.818C142.744 222.218 142.664 221.622 142.511 221.042C142.125 219.705 141.203 218.69 139.095 217.45C136.167 215.703 133.038 211.848 128.637 206.616C125.108 202.434 121.229 200.185 119.116 197.574C118.604 196.956 118.194 196.261 117.901 195.514C116.525 191.85 117.901 186.155 117.901 180.655C117.901 175.155 117.623 170.836 118.174 168.816C118.24 168.59 118.325 168.369 118.428 168.157V168.113C119.404 166.161 121.985 163.507 122.551 160.652C123.2 157.441 124.015 152.941 124.201 152.483C124.386 152.024 125.401 151.565 126.499 152.117C126.499 152.117 127.143 146.431 126.958 143.494C126.773 140.556 128.061 136.886 128.339 131.103C128.617 125.321 129.344 125.604 130.354 121.656C131.365 117.708 133.014 116.517 135.4 116.883C138.133 117.303 138.743 119.323 138.894 122.08C138.958 123.212 138.948 124.467 138.973 125.779C138.973 125.931 138.973 126.082 138.973 126.223C139.06 130.425 139.143 132.567 138.973 135.32C138.943 135.808 138.938 136.296 138.973 136.818C139.026 138.77 139.368 140.893 139.583 143.274C139.641 143.908 139.69 144.553 139.724 145.226C139.909 149.081 140.275 151.921 140.275 151.921C140.275 151.921 144.404 151.555 146.619 151.189C147.103 151.132 147.594 151.185 148.054 151.346H148.088C150.167 152.004 152.773 154.074 154.969 153.932C157.165 153.79 159.195 153.576 161.094 153.756C161.526 153.792 161.956 153.852 162.382 153.937C164.675 154.391 168.16 157.231 169.814 157.231C170.995 157.231 172.181 156.997 173.64 157.206C174.279 157.295 174.904 157.459 175.504 157.694C176.944 158.29 178.227 159.21 179.252 160.383C180.18 161.401 180.928 162.569 181.463 163.838C182.658 166.683 185.777 170.539 185.855 171.271C185.933 172.003 185.303 175.126 185.855 178.425C186.406 181.724 187.416 186.589 186.777 191.825C186.138 197.061 184.825 200.814 186.401 205.035C187.977 209.257 189.524 211.272 190.622 216.411C190.622 216.411 192.692 219.588 195.561 223.936C197.552 226.956 199.924 230.548 202.256 234.037"
        stroke="#263238" stroke-width="0.540321" stroke-linecap="round" stroke-linejoin="round" />
    <path
        d="M126.475 152.102C126.475 156.143 126.109 161.154 125.499 163.238C124.889 165.322 125.299 172.291 124.177 175.223"
        stroke="#263238" stroke-width="0.540321" stroke-linecap="round" stroke-linejoin="round" />
    <path
        d="M128.559 155.284C128.559 155.284 131.37 152.102 133.439 152.102C135.508 152.102 137.602 153.449 139.783 153.693C141.964 153.937 144.278 152.312 146.391 151.921"
        stroke="#263238" stroke-width="0.540321" stroke-linecap="round" stroke-linejoin="round" />
    <path d="M130.145 140.561C130.145 140.561 133.942 139.175 135.899 140.561" stroke="#263238"
        stroke-width="0.540321" stroke-linecap="round" stroke-linejoin="round" />
    <path d="M133.024 138.76C133.024 138.76 134.185 138.443 135.898 139.272" stroke="#263238"
        stroke-width="0.540321" stroke-linecap="round" stroke-linejoin="round" />
    <path d="M132.009 129C133.294 128.714 134.627 128.714 135.913 129" stroke="#263238"
        stroke-width="0.540321" stroke-linecap="round" stroke-linejoin="round" />
    <path d="M118.384 168.094C118.384 168.094 120.824 166.908 121.8 166.786" stroke="#263238"
        stroke-width="0.540321" stroke-linecap="round" stroke-linejoin="round" />
    <path d="M124.831 171.851C124.831 171.851 123.367 174.125 123.093 175.223" stroke="#263238"
        stroke-width="0.540321" stroke-linecap="round" stroke-linejoin="round" />
    <path
        d="M132.009 119.074C132.009 119.074 131.423 123.744 132.009 124.159C132.594 124.574 137.118 124.969 137.489 124.159C137.86 123.349 137.923 119.928 137.923 119.928C137.923 119.928 135.215 115.277 132.009 119.074Z"
        stroke="#263238" stroke-width="0.540321" stroke-linecap="round" stroke-linejoin="round" />
    <path
        d="M122.532 160.637C122.532 160.637 126.285 158.744 126.373 156.035C126.461 153.327 125.358 153.356 123.962 153.342"
        stroke="#263238" stroke-width="0.540321" stroke-linecap="round" stroke-linejoin="round" />
    <path
        d="M181.038 166.786C181.16 171.066 179.94 183.544 179.813 185.379C179.686 187.214 179.813 191.903 179.813 191.903"
        stroke="#263238" stroke-width="0.540321" stroke-linecap="round" stroke-linejoin="round" />
    <path d="M154.247 156.987C158.283 162.843 154.247 160.637 156.814 188.683" stroke="#263238"
        stroke-width="0.540321" stroke-linecap="round" stroke-linejoin="round" />
    <path d="M190.608 216.42C190.608 216.42 187.031 213.639 186.416 212.028" stroke="#263238"
        stroke-width="0.540321" stroke-linecap="round" stroke-linejoin="round" />
    <path d="M140.666 215.103C141.74 216.884 142.418 220.788 142.457 221.027" stroke="#263238"
        stroke-width="0.540321" stroke-linecap="round" stroke-linejoin="round" />
    <defs>
        <radialGradient id="paint0_radial_710_1382" cx="0" cy="0" r="1"
            gradientUnits="userSpaceOnUse"
            gradientTransform="translate(134 130) rotate(90) scale(129 133.483)">
            <stop stop-color="#1877F2" />
            <stop offset="1" stop-color="#1877F2" stop-opacity="0" />
        </radialGradient>
    </defs>
</svg>
    