<svg width="36" height="32" viewBox="0 0 36 32" fill="none" xmlns="http://www.w3.org/2000/svg">
    <path d="M20.364 6.79785V9.80586H15.636V6.79785" fill="#3E6C90" />
    <path d="M27.8399 6.79785V9.80586H23.1119V6.79785" fill="#3E6C90" />
    <path d="M12.8879 6.79785V9.80586H8.15991V6.79785" fill="#3E6C90" />
    <path d="M20.364 18.5898V15.5818H15.636V18.5898" fill="#3E6C90" />
    <path d="M12.8879 18.5898V15.5818H8.15991V18.5898" fill="#3E6C90" />
    <path d="M27.8399 15.6736V18.6816H23.1119V15.6736" fill="#3E6C90" />
    <path d="M17.9999 6.79776H29.216V4.42976L17.9999 0.197754L6.78394 4.42976V6.79776H17.9999Z"
        fill="#FF6600" />
    <path
        d="M12.8876 10.0054H8.15996C8.04956 10.0054 7.95996 9.91577 7.95996 9.80537V6.79937C7.95996 6.68897 8.04956 6.59937 8.15996 6.59937C8.27036 6.59937 8.35996 6.68897 8.35996 6.79937V9.60537H12.6876V6.79937C12.6876 6.68897 12.7772 6.59937 12.8876 6.59937C12.998 6.59937 13.0876 6.68897 13.0876 6.79937V9.80537C13.0876 9.91617 12.9984 10.0054 12.8876 10.0054Z"
        fill="#1877F2" />
    <path d="M12.0319 9.80566H9.0199V15.5817H12.0319V9.80566Z" fill="#FF6600" />
    <path d="M19.5079 9.80566H16.4958V15.5817H19.5079V9.80566Z" fill="#FF6600" />
    <path d="M26.9839 9.80566H23.9719V15.5817H26.9839V9.80566Z" fill="#FF6600" />
    <path d="M6.78394 23.8138V18.7698H29.216L21.8 23.6698L12.3959 20.1018L6.78394 23.8138Z"
        fill="#FF6600" />
    <path
        d="M27.8415 10.0053C27.9519 10.0053 28.0415 9.91571 28.0415 9.80531V6.99931H29.2163C29.3267 6.99931 29.4163 6.90971 29.4163 6.79931V4.4281C29.4163 4.3449 29.3647 4.2701 29.2871 4.2409L18.0711 0.0129C18.0259 -0.0043 17.9755 -0.0043 17.9299 0.0129L6.71468 4.2409C6.63668 4.2701 6.58508 4.3449 6.58508 4.4281V6.79931C6.58508 6.90971 6.67468 6.99931 6.78508 6.99931H15.4367V9.80531C15.4367 9.91571 15.5263 10.0053 15.6367 10.0053H16.2943V15.3821H15.6367C15.5263 15.3821 15.4367 15.4717 15.4367 15.5821V18.5709H13.0875V15.5821C13.0875 15.4717 12.9979 15.3821 12.8875 15.3821H12.2295V9.80531C12.2295 9.69491 12.1399 9.60531 12.0295 9.60531H9.01749C8.90709 9.60531 8.81749 9.69491 8.81749 9.80531V15.3821H8.15988C8.04948 15.3821 7.95988 15.4717 7.95988 15.5821V18.5709H6.78508C6.67468 18.5709 6.58508 18.6605 6.58508 18.7709V23.8117C6.58508 23.8853 6.62548 23.9533 6.69028 23.9877C6.71988 24.0037 6.75268 24.0117 6.78508 24.0117C6.82348 24.0117 6.86188 24.0009 6.89548 23.9785L12.4211 20.3269L21.7299 23.8585C21.7899 23.8813 21.8571 23.8733 21.9111 23.8381L29.3263 18.9377C29.4003 18.8893 29.4331 18.7977 29.4075 18.7133C29.3823 18.6285 29.3043 18.5709 29.2159 18.5709H28.0411V15.5821C28.0411 15.4717 27.9515 15.3821 27.8411 15.3821H27.1831V10.0053H27.8415ZM27.6415 9.60531H26.9835H23.9715H23.3135V6.99931H27.6411L27.6415 9.60531ZM23.1139 15.3821C23.0035 15.3821 22.9139 15.4717 22.9139 15.5821V18.5709H20.5647V15.5821C20.5647 15.4717 20.4751 15.3821 20.3647 15.3821H19.7067V10.0053H20.3647C20.4751 10.0053 20.5647 9.91571 20.5647 9.80531V6.99931H22.9139V9.80531C22.9139 9.91571 23.0035 10.0053 23.1139 10.0053H23.7719V15.3821H23.1139ZM6.98548 4.5665L18.0007 0.413701L29.0159 4.5665V6.59931H6.98548V4.5665ZM15.8371 6.99931H20.1647V9.60531H19.5067H16.4947H15.8371V6.99931ZM16.6947 10.0053H19.3067V15.3821H16.6947V10.0053ZM15.8371 15.7825H16.4947H19.5067H20.1647V18.5713H15.8371V15.7825ZM9.21789 10.0053H11.8299V15.3821H9.21789V10.0053ZM8.35989 15.7825H9.01749H12.0295H12.6875V18.5713H8.35989V15.7825ZM21.7759 23.4477L12.4671 19.9161C12.4443 19.9077 12.4203 19.9033 12.3963 19.9033C12.3575 19.9033 12.3191 19.9145 12.2859 19.9365L6.98508 23.4397V18.9709H28.5507L21.7759 23.4477ZM27.6415 18.5709H23.3139V15.7821H23.9719H26.9839H27.6419V18.5709H27.6415ZM26.7835 15.3821H24.1715V10.0053H26.7835V15.3821Z"
        fill="#1877F2" />
    <path
        d="M11.5711 4.82418C11.4903 4.82418 11.4139 4.77458 11.3839 4.69458C11.3447 4.59138 11.3971 4.47578 11.5007 4.43698L13.5799 3.65298C13.6827 3.61418 13.7987 3.66618 13.8375 3.76978C13.8767 3.87298 13.8243 3.98858 13.7207 4.02738L11.6415 4.81138C11.6183 4.81978 11.5947 4.82418 11.5711 4.82418Z"
        fill="#1877F2" />
    <path
        d="M23.6084 4.51401C23.5848 4.51401 23.5612 4.51002 23.5376 4.50121L18.0008 2.41361L15.3948 3.39601C15.2912 3.43481 15.176 3.38281 15.1372 3.27921C15.098 3.17601 15.1504 3.06041 15.254 3.02161L17.9308 2.01241C17.976 1.99521 18.0264 1.99521 18.072 2.01241L23.68 4.12641C23.7832 4.16521 23.8356 4.28081 23.7964 4.38401C23.7656 4.46481 23.6896 4.51401 23.6084 4.51401Z"
        fill="#1877F2" />
    <path
        d="M35.9979 18.1146C35.9879 18.0626 35.9575 18.0166 35.9135 17.987C35.8915 17.9718 35.8667 17.9614 35.8411 17.9562L31.7851 17.1282C31.6795 17.1058 31.5715 17.1758 31.5491 17.2846C31.5271 17.393 31.5971 17.4982 31.7055 17.5206L35.2891 18.2522L22.8586 26.4666L13.1898 22.7986C13.1306 22.7762 13.0626 22.7838 13.0086 22.819L0.0894188 31.357C-0.00258131 31.4178 -0.0277813 31.5418 0.0330187 31.6338C0.0714188 31.6922 0.135019 31.7238 0.200219 31.7238C0.238219 31.7238 0.276219 31.7134 0.310219 31.6906L13.1438 23.209L22.789 26.8678C22.8538 26.9022 22.9314 26.8982 22.9922 26.8578L35.5091 18.5858L34.7775 22.1694C34.7555 22.2778 34.8255 22.383 34.9339 22.4054C34.9471 22.4082 34.9607 22.4094 34.9743 22.4094C35.0671 22.4094 35.1503 22.3442 35.1699 22.2494L35.9979 18.193C35.9995 18.1858 35.9971 18.179 35.9979 18.1722C35.9995 18.1526 36.0015 18.1338 35.9979 18.1146Z"
        fill="#1877F2" />
</svg>
    