<svg width="24" height="17" viewBox="0 0 24 17" fill="none" xmlns="http://www.w3.org/2000/svg">
    <path
        d="M23.5 16.0403C23.5 16.3936 23.3009 16.5 23.1871 16.5H0.812903C0.699115 16.5 0.5 16.3936 0.5 16.0403V0.959677C0.5 0.606416 0.699115 0.5 0.812903 0.5H23.1871C23.3009 0.5 23.5 0.606414 23.5 0.959677V16.0403Z"
        fill="white" stroke="#1877F2" />
    <path
        d="M8.59361 9.45979C8.59361 9.64258 8.47748 9.77968 8.32265 9.77968H2.5549C2.40006 9.77968 2.28394 9.64258 2.28394 9.45979C2.28394 9.27699 2.40006 9.13989 2.5549 9.13989H8.32265C8.47748 9.13989 8.59361 9.27699 8.59361 9.45979Z"
        fill="#1877F2" />
    <path
        d="M8.59361 11.105C8.59361 11.2878 8.47748 11.4249 8.32265 11.4249H2.5549C2.40006 11.4249 2.28394 11.2878 2.28394 11.105C2.32265 10.9223 2.43877 10.7852 2.5549 10.7852H8.32265C8.47748 10.7852 8.59361 10.9223 8.59361 11.105Z"
        fill="#1877F2" />
    <path
        d="M7.47102 12.7501C7.47102 12.9329 7.35489 13.07 7.20005 13.07H2.55489C2.43876 13.07 2.32263 12.9329 2.32263 12.7501C2.32263 12.5673 2.43876 12.4302 2.5936 12.4302H7.23876C7.35489 12.4759 7.47102 12.613 7.47102 12.7501Z"
        fill="#1877F2" />
    <path
        d="M17.4193 14.9437C19.0227 14.9437 20.3226 13.4092 20.3226 11.5163C20.3226 9.62338 19.0227 8.08887 17.4193 8.08887C15.8159 8.08887 14.5161 9.62338 14.5161 11.5163C14.5161 13.4092 15.8159 14.9437 17.4193 14.9437Z"
        fill="#1877F2" />
    <path
        d="M19.7418 14.9437C21.3453 14.9437 22.6451 13.4092 22.6451 11.5163C22.6451 9.62338 21.3453 8.08887 19.7418 8.08887C18.1384 8.08887 16.8386 9.62338 16.8386 11.5163C16.8386 13.4092 18.1384 14.9437 19.7418 14.9437Z"
        fill="#1877F2" />
    <path
        d="M19.7418 14.9437C21.3453 14.9437 22.6451 13.4092 22.6451 11.5163C22.6451 9.62338 21.3453 8.08887 19.7418 8.08887C18.1384 8.08887 16.8386 9.62338 16.8386 11.5163C16.8386 13.4092 18.1384 14.9437 19.7418 14.9437Z"
        fill="#1877F2" />
    <path d="M23.3142 1.24829H0.685669V6.60865H23.3142V1.24829Z" fill="#FF6600" />
</svg>
    