<svg width="71" height="35" viewBox="0 0 71 35" fill="none" xmlns="http://www.w3.org/2000/svg">
    <path
        d="M0 29.7917V4.58333C0 2.0625 1.9875 0 4.41667 0H37.5417C39.9708 0 41.9583 2.0625 41.9583 4.58333V29.7917C41.9583 32.3125 39.9708 34.375 37.5417 34.375H4.41667C1.9875 34.375 0 32.3125 0 29.7917Z"
        fill="#FF9800" />
    <path
        d="M41.9583 13.7502V11.4585H28.7083C27.4937 11.4585 26.5 10.4272 26.5 9.16683C26.5 7.90641 27.4937 6.87516 28.7083 6.87516H29.8125V4.5835H28.7083C26.2792 4.5835 24.2917 6.646 24.2917 9.16683C24.2917 11.6877 26.2792 13.7502 28.7083 13.7502H32.0208V20.6252H28.7083C25.6167 20.6252 23.1875 23.146 23.1875 26.3543C23.1875 29.5627 25.6167 32.0835 28.7083 32.0835H30.9167V29.7918H28.7083C26.8312 29.7918 25.3958 28.3022 25.3958 26.3543C25.3958 24.4064 26.8312 22.9168 28.7083 22.9168H41.9583V20.6252H34.2292V13.7502H41.9583ZM13.25 20.6252H9.9375V13.7502H13.25C15.6792 13.7502 17.6667 11.6877 17.6667 9.16683C17.6667 6.646 15.6792 4.5835 13.25 4.5835H9.9375V6.87516H13.25C14.4646 6.87516 15.4583 7.90641 15.4583 9.16683C15.4583 10.4272 14.4646 11.4585 13.25 11.4585H0V13.7502H7.72917V20.6252H0V22.9168H13.25C15.1271 22.9168 16.5625 24.4064 16.5625 26.3543C16.5625 28.3022 15.1271 29.7918 13.25 29.7918H11.0417V32.0835H13.25C16.3417 32.0835 18.7708 29.5627 18.7708 26.3543C18.7708 23.146 16.3417 20.6252 13.25 20.6252Z"
        fill="#FFD54F" />
    <path
        d="M58.8099 24.3201C58.8099 23.9705 58.9559 23.626 59.2479 23.3586C63.2514 19.6876 63.2514 13.7235 59.2479 10.0525C58.6696 9.52294 58.6696 8.65917 59.2479 8.1296C59.8262 7.60003 60.7696 7.60003 61.3479 8.1296C66.5137 12.8597 66.5137 20.5514 61.3479 25.2815C60.7696 25.8111 59.8262 25.8111 59.2479 25.2815C58.9559 25.0142 58.8099 24.6646 58.8099 24.3201Z"
        fill="white" />
    <path
        d="M54.7952 20.6391C54.7952 20.2895 54.9412 19.945 55.2332 19.6777C56.0979 18.8859 56.5752 17.8268 56.5752 16.7059C56.5752 15.5851 56.0979 14.5259 55.2332 13.7341C54.6548 13.2046 54.6548 12.3408 55.2332 11.8112C55.8115 11.2817 56.7548 11.2817 57.3332 11.8112C58.7594 13.1172 59.5455 14.855 59.5455 16.7059C59.5455 18.5568 58.7594 20.2947 57.3276 21.6006C56.7492 22.1302 55.8059 22.1302 55.2276 21.6006C54.9412 21.3384 54.7952 20.9888 54.7952 20.6391Z"
        fill="white" />
    <path
        d="M50 16.7056C50 17.7079 50.8874 18.5205 51.9821 18.5205C53.0768 18.5205 53.9642 17.7079 53.9642 16.7056C53.9642 15.7032 53.0768 14.8906 51.9821 14.8906C50.8874 14.8906 50 15.7032 50 16.7056Z"
        fill="white" />
    <path
        d="M62.892 28.0582C62.892 27.7086 63.038 27.3641 63.3299 27.0968C69.585 21.364 69.585 12.0477 63.3299 6.32009C62.7516 5.79052 62.7516 4.92675 63.3299 4.39718C63.9083 3.86761 64.8516 3.86761 65.4299 4.39718C69.0235 7.68772 71 12.058 71 16.711C71 21.364 69.0235 25.7343 65.4299 29.0248C64.8516 29.5544 63.9083 29.5544 63.3299 29.0248C63.038 28.7523 62.892 28.4027 62.892 28.0582Z"
        fill="white" />
</svg>
    