<svg width="74" height="35" viewBox="0 0 74 35" fill="none" xmlns="http://www.w3.org/2000/svg">
    <path
        d="M32 29.7917V4.58333C32 2.0625 33.9875 0 36.4167 0H69.5417C71.9708 0 73.9583 2.0625 73.9583 4.58333V29.7917C73.9583 32.3125 71.9708 34.375 69.5417 34.375H36.4167C33.9875 34.375 32 32.3125 32 29.7917Z"
        fill="#FF9800" />
    <path
        d="M73.9583 13.7502V11.4585H60.7083C59.4937 11.4585 58.5 10.4272 58.5 9.16683C58.5 7.90641 59.4937 6.87516 60.7083 6.87516H61.8125V4.5835H60.7083C58.2792 4.5835 56.2917 6.646 56.2917 9.16683C56.2917 11.6877 58.2792 13.7502 60.7083 13.7502H64.0208V20.6252H60.7083C57.6167 20.6252 55.1875 23.146 55.1875 26.3543C55.1875 29.5627 57.6167 32.0835 60.7083 32.0835H62.9167V29.7918H60.7083C58.8312 29.7918 57.3958 28.3022 57.3958 26.3543C57.3958 24.4064 58.8312 22.9168 60.7083 22.9168H73.9583V20.6252H66.2292V13.7502H73.9583ZM45.25 20.6252H41.9375V13.7502H45.25C47.6792 13.7502 49.6667 11.6877 49.6667 9.16683C49.6667 6.646 47.6792 4.5835 45.25 4.5835H41.9375V6.87516H45.25C46.4646 6.87516 47.4583 7.90641 47.4583 9.16683C47.4583 10.4272 46.4646 11.4585 45.25 11.4585H32V13.7502H39.7292V20.6252H32V22.9168H45.25C47.1271 22.9168 48.5625 24.4064 48.5625 26.3543C48.5625 28.3022 47.1271 29.7918 45.25 29.7918H43.0417V32.0835H45.25C48.3417 32.0835 50.7708 29.5627 50.7708 26.3543C50.7708 23.146 48.3417 20.6252 45.25 20.6252Z"
        fill="#FFD54F" />
    <path
        d="M8.80993 24.3201C8.80993 23.9705 8.95592 23.626 9.2479 23.3586C13.2514 19.6876 13.2514 13.7235 9.2479 10.0525C8.66955 9.52294 8.66955 8.65917 9.2479 8.1296C9.82624 7.60003 10.7696 7.60003 11.3479 8.1296C16.5137 12.8597 16.5137 20.5514 11.3479 25.2815C10.7696 25.8111 9.82624 25.8111 9.2479 25.2815C8.95592 25.0142 8.80993 24.6646 8.80993 24.3201Z"
        fill="white" />
    <path
        d="M4.7952 20.6391C4.7952 20.2895 4.94119 19.945 5.23317 19.6777C6.09788 18.8859 6.57515 17.8268 6.57515 16.7059C6.57515 15.5851 6.09788 14.5259 5.23317 13.7341C4.65483 13.2046 4.65483 12.3408 5.23317 11.8112C5.81151 11.2817 6.75483 11.2817 7.33317 11.8112C8.75938 13.1172 9.54547 14.855 9.54547 16.7059C9.54547 18.5568 8.75937 20.2947 7.32756 21.6006C6.74921 22.1302 5.8059 22.1302 5.22756 21.6006C4.94119 21.3384 4.7952 20.9888 4.7952 20.6391Z"
        fill="white" />
    <path
        d="M4.76837e-07 16.7056C4.76837e-07 17.7079 0.887412 18.5205 1.98209 18.5205C3.07676 18.5205 3.96417 17.7079 3.96417 16.7056C3.96417 15.7032 3.07676 14.8906 1.98209 14.8906C0.887412 14.8906 4.76837e-07 15.7032 4.76837e-07 16.7056Z"
        fill="white" />
    <path
        d="M12.892 28.0582C12.892 27.7086 13.038 27.3641 13.3299 27.0968C19.585 21.364 19.585 12.0477 13.3299 6.32009C12.7516 5.79052 12.7516 4.92675 13.3299 4.39718C13.9083 3.86761 14.8516 3.86761 15.4299 4.39718C19.0235 7.68772 21 12.058 21 16.711C21 21.364 19.0235 25.7343 15.4299 29.0248C14.8516 29.5544 13.9083 29.5544 13.3299 29.0248C13.038 28.7523 12.892 28.4027 12.892 28.0582Z"
        fill="white" />
</svg>
    