<svg width="268" height="259" viewBox="0 0 268 259" fill="none" xmlns="http://www.w3.org/2000/svg">
    <ellipse cx="134" cy="129.5" rx="134" ry="129.5" fill="url(#paint0_radial_0_1)" />
    <path
        d="M199.829 139.853L205.25 139.739L207.921 139.695C208.81 139.674 209.691 139.695 210.58 139.67L210.398 139.853L210.377 135.31L210.58 135.513L205.205 135.484C203.41 135.484 201.62 135.44 199.829 135.42L199.939 135.31C199.939 136.053 199.903 136.8 199.886 137.555L199.829 139.853ZM199.829 139.853L199.769 137.604C199.769 136.845 199.724 136.081 199.716 135.31V135.184H199.829C201.62 135.184 203.41 135.123 205.205 135.119L210.58 135.095H210.783V135.298L210.759 139.841V140.056H210.58C209.671 140.056 208.766 140.056 207.86 140.036L205.156 139.991L199.829 139.853Z"
        fill="#EBEBEB" />
    <path
        d="M205.827 145.582L211.247 145.468L213.918 145.423C214.807 145.403 215.692 145.423 216.577 145.399L216.395 145.582V141.039L216.598 141.242L211.222 141.213C209.428 141.213 207.637 141.168 205.847 141.148L205.956 141.039C205.956 141.782 205.92 142.529 205.904 143.284L205.827 145.582ZM205.827 145.582L205.77 143.332C205.749 142.573 205.721 141.81 205.713 141.039V140.929H205.827C207.617 140.909 209.407 140.868 211.202 140.864L216.577 140.84H216.78V141.043L216.756 145.586V145.768H216.577C215.672 145.768 214.763 145.768 213.857 145.748L211.153 145.703L205.827 145.582Z"
        fill="#EBEBEB" />
    <path d="M193.809 145.578H204.56V141.035H193.809V145.578Z" fill="#EBEBEB" />
    <path
        d="M52.4226 176.941L57.8468 176.827L60.5182 176.783C61.4033 176.783 62.2884 176.783 63.1735 176.758L62.9948 176.941L62.9705 172.398L63.1735 172.601L57.798 172.572C56.0076 172.572 54.2171 172.528 52.4226 172.508L52.5322 172.398C52.5322 173.141 52.4997 173.888 52.4794 174.643L52.4226 176.941ZM52.4226 176.941L52.3658 174.692C52.3455 173.933 52.3211 173.169 52.313 172.398V172.288H52.4226C54.2171 172.268 56.0076 172.227 57.798 172.223L63.1735 172.199H63.3765V172.402V176.945V177.128H63.1938C62.2884 177.128 61.379 177.128 60.4776 177.108L57.7656 177.055L52.4226 176.941Z"
        fill="#EBEBEB" />
    <path d="M58.4234 182.666H69.1743V178.122H58.4234V182.666Z" fill="#EBEBEB" />
    <path
        d="M80.2781 92.0911L85.7022 91.9774L88.3737 91.9328C89.2588 91.9125 90.1439 91.9328 91.029 91.9125L90.8503 92.0911L90.826 87.548L91.029 87.751L85.6535 87.7266C83.8631 87.7266 82.0685 87.682 80.2781 87.6576L80.3877 87.548C80.3877 88.291 80.3552 89.0421 80.3349 89.7972L80.2781 92.0911ZM80.2781 92.0911L80.2212 89.8459C80.2212 89.0867 80.1766 88.3194 80.1685 87.548V87.4383H80.2781C82.0685 87.418 83.8631 87.3734 85.6535 87.3734L91.029 87.345H91.232V87.548L91.2117 92.0911V92.2738H91.033C90.1276 92.2738 89.2182 92.2738 88.3169 92.2495L85.6129 92.2048L80.2781 92.0911Z"
        fill="#EBEBEB" />
    <path d="M58.3663 52.8228H69.1172V48.2796H58.3663V52.8228Z" fill="#EBEBEB" />
    <path
        d="M52.3739 58.5513L57.794 58.4498L60.4655 58.4052C61.3547 58.4052 62.2357 58.4052 63.1248 58.4052L62.9421 58.5838V54.0407L63.1451 54.2437L57.7656 54.1868C55.9711 54.1868 54.1806 54.1422 52.3902 54.1178L52.4998 54.0082C52.4998 54.7512 52.4633 55.4982 52.447 56.2574L52.3739 58.5513ZM52.3739 58.5513L52.313 56.3061C52.313 55.5469 52.2684 54.7796 52.2603 54.0082V53.8986H52.3739C54.1644 53.8986 55.9549 53.8336 57.7494 53.8295L63.1248 53.8052H63.3278V54.0082L63.3035 58.5513V58.734H63.1248C62.2154 58.734 61.31 58.734 60.4046 58.7097L57.7007 58.665L52.3739 58.5513Z"
        fill="#EBEBEB" />
    <path
        d="M199.829 52.8228L205.25 52.7091L207.921 52.6645C208.81 52.6645 209.691 52.6645 210.58 52.6645L210.398 52.8431L210.377 48.3L210.58 48.503L205.205 48.4786C203.41 48.4786 201.62 48.4339 199.829 48.4096L199.939 48.3C199.939 49.0429 199.903 49.79 199.886 50.5492L199.829 52.8228ZM199.829 52.8228L199.769 50.5776C199.769 49.8184 199.724 49.0511 199.716 48.2797V48.17H199.829C201.62 48.17 203.41 48.1051 205.205 48.101L210.58 48.0767H210.783V48.3L210.759 52.8431V53.0258H210.58C209.671 53.0258 208.766 53.0258 207.86 53.0014L205.144 52.9365L199.829 52.8228Z"
        fill="#EBEBEB" />
    <path d="M182.835 109.634H193.585V105.091H182.835V109.634Z" fill="#EBEBEB" />
    <path
        d="M68.4151 76.4764C68.6167 76.3529 68.8485 76.2876 69.085 76.2876C69.3214 76.2876 69.5532 76.3529 69.7549 76.4764L70.1 76.6753C70.2177 76.7362 70.3355 76.7971 70.4573 76.854C70.6716 76.9522 70.8547 77.1077 70.9865 77.3032C71.1183 77.4987 71.1937 77.7268 71.2043 77.9624L71.253 79.6107L76.6285 79.4443L76.5757 77.7959C76.5703 77.5591 76.6303 77.3253 76.7492 77.1205C76.8682 76.9156 77.0413 76.7475 77.2496 76.6347C77.4842 76.5119 77.7119 76.3763 77.9317 76.2287C78.1248 76.0925 78.3518 76.0125 78.5875 75.9974C78.8233 75.9824 79.0587 76.0329 79.2675 76.1435L80.7169 76.9189L83.2584 72.1809L81.809 71.4014C81.6012 71.2895 81.4285 71.122 81.3102 70.9177C81.1919 70.7134 81.1327 70.4803 81.1391 70.2443C81.1478 69.9734 81.1396 69.7022 81.1148 69.4323C81.0886 69.194 81.1304 68.9533 81.2353 68.7377C81.3402 68.5222 81.5039 68.3408 81.7075 68.2143L83.1082 67.382L80.2662 62.8145L78.8777 63.6712C78.6768 63.7947 78.4456 63.8601 78.2098 63.8601C77.974 63.8601 77.7428 63.7947 77.542 63.6712C77.4323 63.6021 77.3146 63.5372 77.2009 63.4763C77.0872 63.4154 76.9654 63.3504 76.8436 63.2976C76.6287 63.1991 76.4452 63.043 76.3133 62.8467C76.1815 62.6504 76.1065 62.4215 76.0966 62.1852L76.0357 60.5247L70.6603 60.6911L70.713 62.3151C70.7203 62.5523 70.661 62.7868 70.5419 62.992C70.4228 63.1972 70.2486 63.365 70.0391 63.4763C69.8046 63.5992 69.5769 63.7347 69.357 63.8823C69.1643 64.0194 68.9372 64.1 68.7013 64.115C68.4653 64.1301 68.2298 64.079 68.0213 63.9675L66.5718 63.1921L64.0303 67.9666L65.4797 68.7462C65.6874 68.8579 65.8598 69.0254 65.9774 69.2299C66.0951 69.4343 66.1533 69.6675 66.1455 69.9033C66.1404 70.1742 66.1499 70.4453 66.174 70.7153C66.1996 70.9535 66.1576 71.1941 66.0527 71.4095C65.9479 71.6249 65.7845 71.8064 65.5812 71.9333L64.1805 72.8021L67.0225 77.3696L68.4151 76.4764ZM69.7589 67.991C70.1692 67.2224 70.7983 66.5927 71.5665 66.1816C72.3347 65.7705 73.2075 65.5964 74.0747 65.6814C74.9418 65.7663 75.7642 66.1066 76.438 66.659C77.1118 67.2114 77.6066 67.9513 77.8599 68.7849C78.1131 69.6186 78.1135 70.5086 77.8609 71.3425C77.6083 72.1764 77.1141 72.9166 76.4408 73.4696C75.7675 74.0226 74.9454 74.3635 74.0783 74.4492C73.2112 74.5349 72.3382 74.3616 71.5697 73.9511C70.5401 73.4 69.7712 72.4629 69.4317 71.3455C69.0923 70.2281 69.2099 69.0217 69.7589 67.991Z"
        fill="#EBEBEB" />
    <path
        d="M209.204 131.749C209.288 131.606 209.411 131.489 209.558 131.412C209.705 131.334 209.871 131.299 210.036 131.311H210.593C210.755 131.302 210.916 131.338 211.059 131.415C211.202 131.491 211.322 131.606 211.405 131.745L211.981 132.748L215.229 130.864L214.653 129.865C214.57 129.722 214.529 129.558 214.535 129.392C214.541 129.226 214.593 129.065 214.685 128.928C214.788 128.768 214.881 128.605 214.965 128.44C215.041 128.29 215.157 128.164 215.3 128.076C215.444 127.989 215.609 127.943 215.777 127.945H216.93V124.177H215.777C215.609 124.18 215.444 124.135 215.301 124.048C215.157 123.962 215.041 123.836 214.965 123.686C214.881 123.518 214.788 123.356 214.685 123.199C214.593 123.061 214.541 122.9 214.535 122.735C214.529 122.569 214.57 122.405 214.653 122.261L215.229 121.258L211.981 119.378L211.4 120.381C211.318 120.522 211.199 120.637 211.056 120.714C210.913 120.791 210.751 120.828 210.588 120.82C210.495 120.82 210.402 120.82 210.308 120.82C210.215 120.82 210.126 120.82 210.032 120.82C209.867 120.83 209.701 120.794 209.555 120.717C209.408 120.64 209.285 120.524 209.2 120.381L208.623 119.378L205.375 121.258L205.952 122.257C206.035 122.401 206.075 122.565 206.07 122.731C206.064 122.896 206.012 123.057 205.919 123.195C205.819 123.355 205.726 123.517 205.639 123.682C205.564 123.833 205.448 123.959 205.305 124.047C205.161 124.134 204.996 124.18 204.827 124.177H203.674V127.945H204.827C204.996 127.943 205.161 127.989 205.304 128.076C205.448 128.164 205.564 128.29 205.639 128.44C205.723 128.608 205.817 128.771 205.919 128.928C206.012 129.065 206.064 129.226 206.07 129.392C206.075 129.558 206.035 129.722 205.952 129.865L205.375 130.864L208.623 132.748L209.204 131.749ZM207.227 126.065C207.226 125.455 207.406 124.858 207.745 124.35C208.083 123.842 208.565 123.446 209.129 123.212C209.693 122.977 210.313 122.916 210.912 123.034C211.511 123.153 212.061 123.447 212.493 123.878C212.925 124.309 213.219 124.859 213.338 125.458C213.458 126.056 213.397 126.677 213.164 127.241C212.93 127.805 212.535 128.287 212.027 128.626C211.52 128.966 210.923 129.147 210.312 129.147C209.496 129.145 208.713 128.819 208.136 128.242C207.558 127.664 207.233 126.882 207.231 126.065H207.227Z"
        fill="#EBEBEB" />
    <path
        d="M53.0481 83.894C53.1917 83.9778 53.3089 84.1003 53.3864 84.2474C53.4639 84.3945 53.4986 84.5604 53.4866 84.7263C53.4866 84.8156 53.4866 84.909 53.4866 85.0023C53.4866 85.0957 53.4866 85.1891 53.4866 85.2825C53.4952 85.4446 53.4592 85.606 53.3827 85.7491C53.3061 85.8923 53.1918 86.0117 53.0521 86.0945L52.0493 86.671L53.9332 89.919L54.9238 89.3709C55.0679 89.2892 55.2318 89.249 55.3973 89.2548C55.5628 89.2605 55.7236 89.3119 55.8617 89.4034C56.02 89.5049 56.1824 89.6023 56.3489 89.6876C56.4967 89.7606 56.6214 89.8734 56.7088 90.0132C56.7963 90.153 56.8432 90.3144 56.8442 90.4793V91.6323H60.6078V90.4793C60.608 90.3147 60.654 90.1534 60.7408 90.0136C60.8276 89.8737 60.9517 89.7608 61.0991 89.6876C61.2669 89.6025 61.4296 89.5076 61.5863 89.4034C61.7244 89.3119 61.8851 89.2605 62.0506 89.2548C62.2161 89.249 62.38 89.2892 62.5241 89.3709L63.5269 89.9474L65.4067 86.6994L64.4039 86.1188C64.2644 86.0356 64.15 85.9162 64.0729 85.7732C63.9957 85.6303 63.9585 85.4691 63.9654 85.3068C63.9654 85.2135 63.9654 85.1242 63.9654 85.0308C63.9654 84.9374 63.9654 84.844 63.9654 84.7547C63.9548 84.589 63.9901 84.4237 64.0675 84.2768C64.1448 84.1299 64.2613 84.0073 64.4039 83.9224L65.4067 83.3459L63.5269 80.0979L62.5282 80.6744C62.3844 80.757 62.2203 80.7977 62.0546 80.792C61.8889 80.7862 61.7281 80.7342 61.5903 80.6419C61.4333 80.5418 61.2709 80.4484 61.1031 80.3618C60.9524 80.2868 60.826 80.1708 60.7384 80.0272C60.6508 79.8835 60.6055 79.718 60.6078 79.5498V78.3967H56.8523V79.5498C56.8541 79.7179 56.8087 79.8832 56.7211 80.0268C56.6335 80.1704 56.5073 80.2864 56.357 80.3618C56.1892 80.4455 56.0265 80.539 55.8698 80.6419C55.7312 80.7342 55.5698 80.786 55.4034 80.7918C55.2371 80.7975 55.0724 80.7569 54.9279 80.6744L53.9332 80.0979L52.0493 83.3459L53.0481 83.894ZM58.7321 81.9168C59.3425 81.9159 59.9395 82.0962 60.4475 82.4348C60.9554 82.7734 61.3515 83.255 61.5857 83.8187C61.8199 84.3825 61.8815 85.003 61.7629 85.6018C61.6443 86.2006 61.3508 86.7508 60.9194 87.1828C60.4881 87.6147 59.9383 87.909 59.3396 88.0284C58.7409 88.1477 58.1203 88.0869 57.5563 87.8535C56.9922 87.62 56.5101 87.2245 56.1708 86.717C55.8316 86.2095 55.6505 85.6128 55.6505 85.0023C55.6516 84.185 55.9765 83.4014 56.554 82.8231C57.1316 82.2448 57.9148 81.9189 58.7321 81.9168Z"
        fill="#EBEBEB" />
    <path
        d="M86.5757 220.026C102.855 220.026 116.051 218.137 116.051 215.807C116.051 213.478 102.855 211.589 86.5757 211.589C70.2968 211.589 57.1001 213.478 57.1001 215.807C57.1001 218.137 70.2968 220.026 86.5757 220.026Z"
        fill="#EBEBEB" />
    <path
        d="M193.841 170.599C190.837 164.424 185.579 161.261 179.631 163.003C173.683 164.745 172.786 173.019 177.195 175.106C181.604 177.193 186.042 171.103 188.38 169.848C190.719 168.594 193.841 170.599 193.841 170.599Z"
        fill="#FF6600" />
    <path
        d="M196.752 187.042C196.752 186.299 196.707 185.552 196.679 184.809C196.626 183.323 196.577 181.837 196.525 180.343C196.423 177.627 196.119 174.956 195.002 172.451C194.007 170.178 192.345 168.263 190.236 166.957C189.454 166.484 188.611 166.119 187.731 165.873C186.934 165.058 185.917 164.494 184.803 164.249C183.432 163.971 182.022 163.935 180.638 164.144C180.585 164.144 180.589 164.229 180.638 164.221C181.959 164.054 183.3 164.149 184.584 164.501C185.133 164.655 185.664 164.863 186.172 165.122C186.491 165.294 186.797 165.488 187.089 165.703C185.893 165.456 184.658 165.468 183.468 165.739C183.039 165.84 182.619 165.976 182.213 166.145C181.888 166.075 181.555 166.046 181.222 166.06C180.79 166.076 180.36 166.138 179.939 166.243C179.082 166.485 178.262 166.844 177.503 167.311C177.459 167.335 177.503 167.4 177.544 167.376C178.292 166.968 179.092 166.666 179.923 166.478C180.324 166.388 180.731 166.329 181.141 166.3C181.368 166.288 181.596 166.288 181.823 166.3C180.134 167.08 178.776 168.433 177.991 170.12C177.97 170.165 178.039 170.205 178.06 170.157C178.527 169.181 179.207 168.323 180.05 167.645C180.893 166.968 181.878 166.489 182.932 166.243C183.062 166.21 183.196 166.194 183.338 166.166C183.293 166.357 183.301 166.572 183.277 166.763C183.236 167.063 183.187 167.363 183.127 167.66C183.002 168.273 182.841 168.877 182.643 169.471C182.443 170.069 182.203 170.654 181.925 171.22C181.66 171.823 181.323 172.392 180.922 172.913C180.917 172.918 180.914 172.923 180.911 172.928C180.909 172.934 180.908 172.94 180.908 172.946C180.909 172.952 180.911 172.958 180.914 172.964C180.917 172.969 180.921 172.974 180.926 172.977C180.931 172.981 180.937 172.983 180.943 172.984C180.949 172.985 180.955 172.984 180.961 172.983C180.967 172.981 180.972 172.978 180.977 172.973C180.981 172.969 180.985 172.964 180.987 172.958C181.34 172.402 181.754 171.886 182.079 171.31C182.395 170.757 182.666 170.18 182.891 169.584C183.119 168.983 183.296 168.364 183.419 167.733C183.488 167.4 183.537 167.063 183.577 166.726C183.616 166.524 183.628 166.318 183.614 166.113C184.31 166.008 185.017 165.995 185.717 166.072C185.457 167.546 185.173 169.081 184.349 170.36C184.32 170.404 184.393 170.445 184.418 170.396C184.804 169.718 185.143 169.014 185.433 168.289C185.706 167.586 185.878 166.848 185.944 166.097C187.167 166.261 188.348 166.656 189.424 167.262C191.447 168.441 193.063 170.208 194.056 172.329C195.102 174.615 195.685 177.084 195.773 179.596C195.968 182.751 196.009 185.93 196.326 189.076C196.346 189.283 196.671 189.352 196.732 189.117C196.801 188.427 196.808 187.733 196.752 187.042Z"
        fill="#263238" />
    <path
        d="M189.805 166.466C189.607 166.226 189.378 166.013 189.123 165.833C188.876 165.63 188.624 165.427 188.36 165.256C187.84 164.894 187.264 164.62 186.655 164.444C186.606 164.444 186.586 164.513 186.655 164.521C187.266 164.673 187.84 164.95 188.34 165.333C188.591 165.52 188.831 165.715 189.066 165.922C189.275 166.141 189.507 166.337 189.757 166.507C189.781 166.564 189.838 166.511 189.805 166.466Z"
        fill="#263238" />
    <path
        d="M180.216 168.703C179.719 169.282 179.258 169.891 178.835 170.526C178.426 171.166 178.083 171.847 177.812 172.556C177.812 172.576 177.836 172.589 177.849 172.556C178.541 171.211 179.356 169.934 180.285 168.74C180.305 168.719 180.248 168.667 180.216 168.703Z"
        fill="#263238" />
    <path
        d="M186.679 168.094C186.616 168.48 186.503 168.855 186.342 169.211C186.176 169.555 185.985 169.886 185.77 170.201C185.77 170.222 185.77 170.242 185.802 170.226C186.322 169.63 186.654 168.894 186.756 168.11C186.764 168.07 186.687 168.041 186.679 168.094Z"
        fill="#263238" />
    <path
        d="M196.334 170.754C196.334 170.754 200.589 165.403 208.798 167.299C216.606 169.101 220.207 183.417 212.322 185.126C204.438 186.835 205.826 173.596 202.948 171.346C200.841 169.694 197.808 170.051 196.334 170.754Z"
        fill="#FF6600" />
    <path
        d="M215.144 175.118C214.608 174.649 214.043 174.215 213.451 173.819C212.893 173.439 212.287 173.135 211.648 172.918C211.327 172.432 210.969 171.972 210.576 171.541C209.851 170.764 209.015 170.098 208.096 169.564H208.339C208.773 169.542 209.208 169.542 209.642 169.564C210.519 169.62 211.379 169.833 212.18 170.193C212.225 170.193 212.257 170.141 212.212 170.124C211.401 169.774 210.553 169.517 209.683 169.361C209.26 169.286 208.83 169.249 208.4 169.251C208.169 169.253 207.939 169.266 207.71 169.292H207.576C206.823 168.913 206.029 168.621 205.209 168.423L205.44 168.358C205.843 168.271 206.249 168.205 206.658 168.159C207.477 168.066 208.304 168.078 209.119 168.196C209.127 168.193 209.134 168.188 209.139 168.181C209.144 168.174 209.147 168.166 209.147 168.157C209.147 168.149 209.144 168.14 209.139 168.133C209.134 168.127 209.127 168.121 209.119 168.119C208.294 168.021 207.464 167.989 206.634 168.021C205.938 168.04 205.245 168.13 204.567 168.289C204.074 168.198 203.575 168.141 203.073 168.119C200.207 167.997 197.085 169.065 195.323 171.419C193.561 173.774 193.216 176.917 192.887 179.759C192.405 183.72 192.301 187.718 192.574 191.699C192.574 191.931 192.923 191.89 192.927 191.667C193.037 188.293 193.155 184.915 193.48 181.553C193.63 179.994 193.792 178.431 194.052 176.888C194.242 175.56 194.624 174.266 195.185 173.048C195.794 171.802 196.759 170.765 197.958 170.068C199.16 169.375 200.501 168.959 201.884 168.85C203.122 168.746 204.369 168.862 205.566 169.195C205.523 169.434 205.516 169.679 205.546 169.921C205.574 170.226 205.636 170.527 205.729 170.819C205.816 171.1 205.93 171.372 206.07 171.631C206.224 171.911 206.415 172.162 206.585 172.443C206.61 172.483 206.679 172.443 206.646 172.398C206.309 171.914 206.091 171.358 206.009 170.774C205.96 170.497 205.928 170.218 205.911 169.938C205.911 169.726 205.911 169.511 205.911 169.3C207.214 169.701 208.43 170.343 209.496 171.192C209.695 171.355 209.902 171.521 210.077 171.696C209.806 171.948 209.571 172.236 209.379 172.552C209.097 172.963 208.853 173.398 208.648 173.851C208.271 174.761 208.016 175.717 207.889 176.693C207.889 176.742 207.962 176.758 207.966 176.693C208.119 175.744 208.436 174.829 208.904 173.989C209.119 173.568 209.362 173.161 209.63 172.771C209.768 172.577 209.91 172.365 210.061 172.191C210.142 172.089 210.231 171.984 210.304 171.874C211.27 172.82 212.06 173.931 212.635 175.155C212.243 175.582 211.92 176.068 211.681 176.596C211.387 177.118 211.13 177.661 210.913 178.22C210.516 179.314 210.188 180.431 209.931 181.565C209.931 181.614 210 181.63 210.008 181.565C210.259 180.421 210.651 179.313 211.173 178.265C211.421 177.753 211.681 177.246 211.953 176.746C212.236 176.282 212.493 175.802 212.724 175.309C213.271 176.508 213.589 177.798 213.662 179.113C213.662 179.162 213.743 179.158 213.739 179.113C213.588 177.05 212.957 175.051 211.896 173.275C212.399 173.49 212.903 173.681 213.386 173.957C214.003 174.29 214.576 174.699 215.091 175.175C215.128 175.212 215.18 175.151 215.144 175.118Z"
        fill="#263238" />
    <path
        d="M209.119 175.419C208.875 176.231 208.562 177.018 208.339 177.855C208.118 178.634 207.999 179.44 207.986 180.25C207.986 180.274 208.022 180.274 208.026 180.25C208.249 178.611 208.644 177 209.204 175.443C209.205 175.437 209.206 175.432 209.205 175.426C209.205 175.42 209.203 175.414 209.2 175.409C209.197 175.404 209.193 175.4 209.189 175.396C209.184 175.392 209.179 175.39 209.173 175.388C209.168 175.387 209.162 175.386 209.156 175.387C209.15 175.387 209.145 175.389 209.14 175.392C209.135 175.395 209.13 175.399 209.126 175.403C209.123 175.408 209.12 175.413 209.119 175.419Z"
        fill="#263238" />
    <path
        d="M214.324 173.409C214.001 173.098 213.634 172.837 213.236 172.633C212.83 172.448 212.409 172.299 211.977 172.187C211.928 172.187 211.912 172.252 211.977 172.264C212.404 172.373 212.814 172.541 213.195 172.763C213.583 172.965 213.956 173.194 214.311 173.449C214.316 173.448 214.32 173.446 214.323 173.443C214.326 173.441 214.328 173.437 214.329 173.433C214.331 173.429 214.331 173.424 214.33 173.42C214.329 173.416 214.327 173.412 214.324 173.409Z"
        fill="#263238" />
    <path
        d="M200.377 163.604C200.377 163.604 201.161 153.998 208.303 150.884C214.267 148.286 217.681 154.985 213.467 159.089C210.056 162.41 204.588 160.912 200.377 163.604Z"
        fill="#FF6600" />
    <path
        d="M212.148 152.747C211.06 153.188 209.998 153.69 208.969 154.254C208.114 154.743 207.291 155.286 206.504 155.878C206.622 155.634 206.723 155.382 206.845 155.143C207.032 154.773 207.231 154.408 207.45 154.059C207.889 153.331 208.419 152.661 209.025 152.065C209.062 152.033 209.001 151.976 208.969 152.013C208.364 152.608 207.81 153.253 207.312 153.941C207.066 154.29 206.84 154.651 206.634 155.025C206.424 155.371 206.261 155.744 206.151 156.133L206.074 156.19C204.827 157.184 203.684 158.302 202.663 159.528C202.684 159.434 202.7 159.341 202.728 159.252C202.862 158.785 203.004 158.318 203.159 157.855C203.468 156.87 203.902 155.928 204.45 155.053C204.478 155.013 204.409 154.972 204.381 155.017C203.82 155.892 203.321 156.805 202.887 157.749C202.687 158.21 202.522 158.685 202.391 159.17C202.288 159.486 202.211 159.809 202.16 160.137C201.847 160.543 201.543 160.928 201.255 161.355C198.189 165.719 196.651 170.997 196.281 176.283C196.173 177.857 196.146 179.436 196.2 181.013C196.207 182.605 196.343 184.193 196.606 185.763C196.626 185.865 196.781 185.832 196.781 185.735C196.744 184.346 196.602 182.966 196.573 181.577C196.547 180.185 196.592 178.792 196.707 177.404C196.931 174.631 197.454 171.891 198.266 169.231C199.096 166.505 200.319 163.914 201.896 161.541C202.197 161.48 202.497 161.399 202.793 161.322C203.09 161.245 203.508 161.139 203.861 161.042C204.547 160.865 205.213 160.62 205.851 160.311C205.855 160.309 205.859 160.305 205.861 160.301C205.864 160.297 205.866 160.292 205.868 160.287C205.869 160.282 205.869 160.277 205.868 160.272C205.867 160.267 205.865 160.263 205.863 160.258C205.86 160.254 205.857 160.25 205.852 160.248C205.848 160.245 205.844 160.243 205.839 160.241C205.834 160.24 205.829 160.24 205.824 160.241C205.819 160.242 205.814 160.244 205.81 160.246C205.177 160.59 204.491 160.824 203.78 160.94C203.22 161.054 202.639 161.123 202.079 161.253C202.598 160.498 203.151 159.767 203.739 159.069C205.1 159.192 206.472 159.091 207.799 158.768C208.506 158.597 209.2 158.38 209.878 158.119C210.597 157.843 211.271 157.489 211.977 157.193C211.986 157.189 211.993 157.181 211.997 157.172C212 157.162 212 157.152 211.995 157.142C211.991 157.133 211.983 157.126 211.974 157.123C211.964 157.119 211.954 157.12 211.945 157.124C210.666 157.821 209.271 158.278 207.828 158.472C206.554 158.677 205.265 158.783 203.975 158.789C204.482 158.208 205.006 157.64 205.566 157.108C207.442 155.321 209.671 153.681 212.139 152.825C212.217 152.808 212.192 152.731 212.148 152.747Z"
        fill="#263238" />
    <path
        d="M206.333 152.78C206.01 153.184 205.717 153.612 205.456 154.059C205.19 154.53 204.979 155.03 204.827 155.549C204.827 155.549 204.827 155.577 204.856 155.549C205.095 155.078 205.294 154.587 205.538 154.12C205.773 153.657 206.059 153.221 206.39 152.821C206.423 152.792 206.362 152.739 206.333 152.78Z"
        fill="#263238" />
    <path
        d="M212.976 155.975C212.512 156.233 212.02 156.439 211.51 156.588C211.022 156.751 210.524 156.887 210.02 156.994C209.996 156.994 210 157.039 210.02 157.035C210.547 156.98 211.065 156.867 211.567 156.698C212.061 156.51 212.544 156.293 213.012 156.048C213.061 156.02 213.021 155.951 212.976 155.975Z"
        fill="#263238" />
    <path
        d="M194.824 161.883C194.779 162.289 193.744 158.391 187.702 154.928C182.221 151.781 175.673 143.596 181.052 138.424C185.392 134.25 196.829 143.349 194.824 161.883Z"
        fill="#FF6600" />
    <path
        d="M198.981 184.257C198.892 180.2 198.572 176.151 198.023 172.13C197.545 168.429 196.689 164.787 195.469 161.261C195.022 159.991 194.507 158.744 193.95 157.514C193.981 157.035 193.973 156.554 193.926 156.077C193.898 155.46 193.841 154.859 193.784 154.233C193.727 153.608 193.666 153.015 193.593 152.394C193.52 151.773 193.39 151.176 193.366 150.563C193.368 150.557 193.368 150.551 193.367 150.544C193.366 150.538 193.364 150.532 193.36 150.527C193.356 150.522 193.351 150.517 193.346 150.514C193.34 150.511 193.334 150.51 193.327 150.51C193.321 150.51 193.314 150.511 193.309 150.514C193.303 150.517 193.298 150.522 193.294 150.527C193.291 150.532 193.288 150.538 193.287 150.544C193.286 150.551 193.287 150.557 193.289 150.563C193.409 151.205 193.481 151.855 193.504 152.508C193.553 153.101 193.585 153.693 193.601 154.286C193.622 154.883 193.601 155.476 193.601 156.073C193.601 156.284 193.601 156.511 193.581 156.743C193.017 155.525 192.408 154.359 191.746 153.21C192.152 150.705 191.624 148.087 191.112 145.638C191.112 145.59 191.027 145.614 191.039 145.663C191.292 146.942 191.428 148.241 191.445 149.544C191.47 150.571 191.421 151.598 191.417 152.626C191.271 152.382 191.129 152.134 190.978 151.891C190.195 150.612 189.354 149.357 188.469 148.143C188.542 147.55 188.523 146.949 188.413 146.361C188.313 145.701 188.167 145.048 187.974 144.408C187.779 143.771 187.568 143.142 187.304 142.524C187.04 141.907 186.695 141.286 186.443 140.653C186.419 140.596 186.342 140.653 186.37 140.681C186.693 141.283 186.946 141.919 187.126 142.577C187.327 143.194 187.493 143.821 187.621 144.457C187.751 145.09 187.852 145.728 187.942 146.373C188.002 146.779 188.039 147.238 188.112 147.664C186.819 145.928 185.407 144.284 183.886 142.744C183.849 142.707 183.796 142.764 183.829 142.8C186.132 145.389 188.188 148.186 189.972 151.156L190.162 151.489C189.829 151.282 189.448 151.115 189.135 150.941L187.377 149.974L185.664 149.041C185.372 148.878 185.083 148.708 184.783 148.553C184.427 148.394 184.084 148.206 183.76 147.989C183.752 147.983 183.742 147.981 183.732 147.982C183.722 147.984 183.713 147.989 183.707 147.997C183.701 148.005 183.699 148.015 183.7 148.025C183.702 148.035 183.707 148.044 183.715 148.05C184.296 148.371 184.811 148.862 185.372 149.203C185.932 149.544 186.508 149.91 187.097 150.238C188.169 150.835 189.334 151.266 190.394 151.887C191.125 153.17 191.801 154.484 192.424 155.829C191.782 155.423 191.129 155.017 190.463 154.652C190.037 154.412 189.606 154.177 189.172 153.949C188.74 153.749 188.332 153.503 187.954 153.214C187.946 153.211 187.937 153.209 187.929 153.211C187.92 153.213 187.912 153.217 187.906 153.223C187.901 153.23 187.897 153.238 187.896 153.246C187.895 153.255 187.897 153.264 187.901 153.271C188.604 153.907 189.385 154.453 190.223 154.895C190.999 155.35 191.782 155.788 192.59 156.182C193.234 157.601 193.816 159.042 194.336 160.506C196.878 167.705 197.811 175.345 198.258 182.934C198.392 185.195 198.461 187.456 198.489 189.722C198.518 191.987 198.396 194.245 198.4 196.506C198.4 196.571 198.51 196.587 198.522 196.506C198.794 194.501 198.839 192.446 198.928 190.441C199.017 188.435 199.025 186.316 198.981 184.257Z"
        fill="#263238" />
    <path
        d="M188.007 151.672C186.905 151.186 185.834 150.633 184.8 150.015C183.751 149.422 182.733 148.776 181.751 148.079C181.751 148.079 181.718 148.079 181.73 148.107C182.659 148.85 183.637 149.528 184.658 150.137C185.728 150.734 186.834 151.265 187.971 151.724C188.019 151.761 188.056 151.692 188.007 151.672Z"
        fill="#263238" />
    <path
        d="M189.757 143.535C189.667 143.186 189.558 142.841 189.44 142.5C189.444 142.494 189.445 142.487 189.445 142.48C189.445 142.473 189.444 142.466 189.44 142.459C189.363 142.265 189.282 142.053 189.205 141.879L189.176 141.806C189.176 141.769 189.144 141.733 189.131 141.696C189.119 141.66 189.107 141.696 189.111 141.696C189.115 141.696 189.148 141.83 189.168 141.895C189.177 141.932 189.188 141.969 189.2 142.005C189.601 143.347 189.901 144.718 190.098 146.105C190.098 146.15 190.171 146.15 190.167 146.105C190.111 145.238 189.973 144.377 189.757 143.535Z"
        fill="#263238" />
    <path
        d="M205.363 185.719L204.933 190.826L203.613 206.404H189.48L188.161 190.826L187.73 185.719H205.363Z"
        fill="#37474F" />
    <path d="M205.363 185.719L204.933 190.826H188.161L187.73 185.719H205.363Z" fill="#263238" />
    <path d="M206.748 183.668H186.342V188.569H206.748V183.668Z" fill="#37474F" />
    <path
        d="M52.2607 206.404L72.8206 206.307L93.3804 206.27L134.5 206.201L175.62 206.266L196.18 206.303L216.739 206.404L196.18 206.502L175.62 206.538L134.5 206.607L93.3804 206.538L72.8206 206.502L52.2607 206.404Z"
        fill="#263238" />
    <path
        d="M168.811 50.9673H100.197C99.2748 50.9731 98.3627 51.161 97.5132 51.5201C96.6636 51.8792 95.8933 52.4024 95.2464 53.0599C94.5995 53.7173 94.0888 54.496 93.7435 55.3513C93.3982 56.2066 93.2251 57.1216 93.2342 58.0439V199.332C93.218 201.191 93.9407 202.98 95.2433 204.306C96.546 205.633 98.322 206.387 100.181 206.404H168.795C169.717 206.398 170.629 206.21 171.478 205.851C172.328 205.492 173.098 204.969 173.746 204.312C174.393 203.656 174.905 202.878 175.251 202.023C175.598 201.169 175.773 200.254 175.766 199.332V58.0439C175.774 57.1225 175.6 56.2087 175.255 55.3544C174.91 54.5001 174.4 53.7222 173.754 53.0651C173.108 52.408 172.339 51.8845 171.491 51.5246C170.643 51.1646 169.732 50.9752 168.811 50.9673ZM171.422 194.963C171.422 198.682 168.637 201.691 165.202 201.691H103.802C100.36 201.691 97.5744 198.682 97.5744 194.963V63.3949C97.5744 55.819 100.36 55.4495 103.802 55.4495H116.1C116.815 55.4495 117.399 56.2615 117.399 57.2684V57.7028C117.399 60.0739 118.69 60.0739 120.29 60.0739H148.71C150.306 60.0739 151.589 60.0739 151.589 57.7069V57.2684C151.589 56.2615 152.161 55.4495 152.888 55.4495H165.19C168.624 55.4495 171.41 56.4564 171.41 63.3949L171.422 194.963Z"
        fill="#263238" />
    <path
        d="M138.377 57.1222H130.619C130.556 57.1222 130.494 57.1098 130.435 57.0858C130.377 57.0617 130.324 57.0264 130.28 56.9819C130.235 56.9374 130.2 56.8846 130.176 56.8265C130.152 56.7684 130.14 56.7061 130.14 56.6431C130.14 56.5161 130.19 56.3942 130.28 56.3044C130.37 56.2145 130.492 56.1641 130.619 56.1641H138.377C138.504 56.1641 138.626 56.2145 138.716 56.3044C138.806 56.3942 138.856 56.5161 138.856 56.6431C138.856 56.7061 138.844 56.7684 138.82 56.8265C138.796 56.8846 138.761 56.9374 138.716 56.9819C138.672 57.0264 138.619 57.0617 138.561 57.0858C138.503 57.1098 138.44 57.1222 138.377 57.1222Z"
        fill="#F5F2F2" />
    <path
        d="M171.446 63.3951V194.963C171.446 198.682 168.661 201.691 165.226 201.691H103.802C100.359 201.691 97.5742 198.682 97.5742 194.963V63.3951C97.5742 55.8192 100.359 55.4497 103.802 55.4497H116.1C116.815 55.4497 117.399 56.2617 117.399 57.2686V57.703C117.399 60.074 118.69 60.074 120.29 60.074H148.71C150.31 60.074 151.588 60.074 151.588 57.7071V57.2686C151.588 56.2617 152.165 55.4497 152.892 55.4497H165.194C168.64 55.4497 171.446 56.4566 171.446 63.3951Z"
        fill="#F5F2F2" />
    <path
        d="M105.049 68.4173L102.865 66.3751L105.049 64.3289L105.386 64.6902L103.591 66.3751L105.386 68.06L105.049 68.4173Z"
        fill="#C7C7C7" />
    <path
        d="M165.705 65.1003C165.705 65.1854 165.68 65.2686 165.633 65.3394C165.586 65.4102 165.518 65.4653 165.44 65.4979C165.361 65.5305 165.275 65.539 165.191 65.5224C165.108 65.5058 165.031 65.4648 164.971 65.4046C164.911 65.3444 164.87 65.2677 164.853 65.1843C164.836 65.1008 164.845 65.0142 164.877 64.9356C164.91 64.857 164.965 64.7898 165.036 64.7425C165.107 64.6952 165.19 64.6699 165.275 64.6699C165.332 64.6694 165.388 64.6802 165.44 64.7016C165.493 64.723 165.541 64.7547 165.581 64.7948C165.621 64.8349 165.652 64.8825 165.674 64.935C165.695 64.9874 165.706 65.0436 165.705 65.1003Z"
        fill="#C7C7C7" />
    <path
        d="M165.705 66.6267C165.705 66.7118 165.68 66.795 165.633 66.8658C165.586 66.9365 165.518 66.9917 165.44 67.0243C165.361 67.0568 165.275 67.0654 165.191 67.0488C165.108 67.0322 165.031 66.9912 164.971 66.931C164.911 66.8708 164.87 66.7941 164.853 66.7106C164.836 66.6271 164.845 66.5406 164.877 66.462C164.91 66.3833 164.965 66.3161 165.036 66.2688C165.107 66.2215 165.19 66.1963 165.275 66.1963C165.332 66.1958 165.388 66.2065 165.44 66.228C165.493 66.2494 165.541 66.2811 165.581 66.3211C165.621 66.3612 165.652 66.4089 165.674 66.4613C165.695 66.5138 165.706 66.57 165.705 66.6267Z"
        fill="#C7C7C7" />
    <path
        d="M165.705 68.1533C165.705 68.2384 165.68 68.3216 165.633 68.3924C165.586 68.4631 165.518 68.5183 165.44 68.5509C165.361 68.5835 165.275 68.592 165.191 68.5754C165.108 68.5588 165.031 68.5178 164.971 68.4576C164.911 68.3974 164.87 68.3207 164.853 68.2372C164.836 68.1538 164.845 68.0672 164.877 67.9886C164.91 67.91 164.965 67.8427 165.036 67.7954C165.107 67.7482 165.19 67.7229 165.275 67.7229C165.332 67.7224 165.388 67.7331 165.44 67.7546C165.493 67.776 165.541 67.8077 165.581 67.8478C165.621 67.8878 165.652 67.9355 165.674 67.988C165.695 68.0404 165.706 68.0966 165.705 68.1533Z"
        fill="#C7C7C7" />
    <path
        d="M113.977 58.4054L113.859 58.5231L113.79 58.5881C113.486 58.2856 113.074 58.1158 112.645 58.1158C112.216 58.1158 111.804 58.2856 111.5 58.5881L111.435 58.519L111.317 58.4013L111.468 58.2673C111.577 58.1829 111.693 58.1095 111.817 58.0481C111.963 57.9744 112.119 57.9224 112.28 57.8938C112.355 57.8787 112.431 57.8679 112.507 57.8613H112.71H112.864C113.01 57.8787 113.153 57.9128 113.291 57.9628C113.389 58 113.484 58.0448 113.575 58.0968C113.671 58.152 113.762 58.2159 113.847 58.2876L113.973 58.4013L113.977 58.4054Z"
        fill="#C7C7C7" />
    <path
        d="M111.878 58.9617L111.687 58.7749C111.942 58.522 112.286 58.3801 112.645 58.3801C113.004 58.3801 113.349 58.522 113.603 58.7749L113.413 58.9617C113.209 58.7589 112.933 58.645 112.645 58.645C112.358 58.645 112.082 58.7589 111.878 58.9617Z"
        fill="#C7C7C7" />
    <path
        d="M113.226 59.1526L113.039 59.3352C112.985 59.2827 112.922 59.2413 112.852 59.2134C112.782 59.1856 112.708 59.1718 112.633 59.1728C112.557 59.1714 112.482 59.1854 112.413 59.214C112.343 59.2426 112.28 59.2853 112.227 59.3393C112.166 59.2744 112.101 59.2135 112.04 59.1526C112.116 59.0714 112.208 59.0067 112.31 58.9625C112.412 58.9183 112.522 58.8955 112.633 58.8955C112.744 58.8955 112.854 58.9183 112.956 58.9625C113.058 59.0067 113.15 59.0714 113.226 59.1526Z"
        fill="#C7C7C7" />
    <path
        d="M112.816 59.5056C112.816 59.5508 112.798 59.5942 112.766 59.6262C112.734 59.6582 112.69 59.6761 112.645 59.6761C112.623 59.6761 112.601 59.6717 112.58 59.6631C112.56 59.6545 112.541 59.6418 112.526 59.626C112.51 59.6101 112.498 59.5912 112.49 59.5706C112.482 59.5499 112.478 59.5278 112.479 59.5056C112.479 59.4615 112.496 59.4191 112.527 59.3879C112.559 59.3567 112.601 59.3392 112.645 59.3392C112.667 59.3386 112.689 59.3425 112.71 59.3506C112.731 59.3588 112.749 59.3709 112.765 59.3865C112.781 59.402 112.794 59.4205 112.802 59.441C112.811 59.4614 112.816 59.4834 112.816 59.5056Z"
        fill="#C7C7C7" />
    <path
        d="M102.39 58.7625C102.39 58.6651 102.419 58.57 102.473 58.4891C102.527 58.4083 102.604 58.3453 102.694 58.3082C102.784 58.2712 102.883 58.2617 102.978 58.281C103.074 58.3003 103.161 58.3475 103.23 58.4166C103.298 58.4857 103.345 58.5736 103.363 58.6692C103.382 58.7647 103.371 58.8636 103.334 58.9533C103.296 59.043 103.232 59.1194 103.151 59.1729C103.07 59.2264 102.974 59.2546 102.877 59.2537C102.813 59.2537 102.749 59.241 102.689 59.2163C102.63 59.1915 102.576 59.1553 102.531 59.1096C102.486 59.0639 102.45 59.0098 102.426 58.9502C102.401 58.8906 102.389 58.8268 102.39 58.7625Z"
        fill="#C7C7C7" />
    <path
        d="M103.928 58.7624C103.93 58.6656 103.96 58.5715 104.015 58.4918C104.07 58.412 104.147 58.3503 104.237 58.3144C104.327 58.2785 104.426 58.2699 104.52 58.2897C104.615 58.3096 104.702 58.357 104.77 58.426C104.838 58.4951 104.884 58.5826 104.902 58.6777C104.92 58.7727 104.91 58.8711 104.873 58.9604C104.835 59.0497 104.772 59.1259 104.692 59.1796C104.611 59.2332 104.516 59.2618 104.42 59.2618C104.354 59.2618 104.29 59.2489 104.23 59.2237C104.17 59.1985 104.115 59.1616 104.069 59.1151C104.024 59.0686 103.988 59.0135 103.963 58.9529C103.939 58.8924 103.927 58.8276 103.928 58.7624Z"
        fill="#C7C7C7" />
    <path
        d="M105.471 58.7624C105.473 58.6656 105.503 58.5715 105.558 58.4918C105.613 58.412 105.69 58.3503 105.78 58.3144C105.87 58.2785 105.968 58.2699 106.063 58.2897C106.158 58.3096 106.245 58.357 106.313 58.426C106.381 58.4951 106.427 58.5826 106.445 58.6777C106.463 58.7727 106.453 58.8711 106.416 58.9604C106.378 59.0497 106.315 59.1259 106.235 59.1796C106.154 59.2332 106.059 59.2618 105.963 59.2618C105.897 59.2618 105.833 59.2489 105.773 59.2237C105.712 59.1985 105.658 59.1616 105.612 59.1151C105.567 59.0686 105.531 59.0135 105.506 58.9529C105.482 58.8924 105.47 58.8276 105.471 58.7624Z"
        fill="#C7C7C7" />
    <path
        d="M107.014 58.7624C107.015 58.6654 107.046 58.5711 107.101 58.4913C107.156 58.4115 107.233 58.3498 107.324 58.314C107.414 58.2782 107.512 58.2699 107.607 58.2901C107.702 58.3103 107.789 58.3581 107.857 58.4275C107.924 58.4969 107.97 58.5848 107.988 58.6802C108.006 58.7755 107.995 58.874 107.957 58.9632C107.919 59.0524 107.855 59.1284 107.774 59.1815C107.693 59.2347 107.598 59.2626 107.501 59.2618C107.436 59.2618 107.372 59.2488 107.312 59.2236C107.252 59.1983 107.198 59.1614 107.152 59.1148C107.107 59.0683 107.071 59.0131 107.047 58.9526C107.024 58.8921 107.012 58.8274 107.014 58.7624Z"
        fill="#C7C7C7" />
    <path
        d="M108.557 58.7624C108.558 58.6654 108.589 58.5711 108.644 58.4913C108.699 58.4115 108.776 58.3498 108.867 58.314C108.957 58.2782 109.055 58.2699 109.15 58.2901C109.245 58.3103 109.332 58.3581 109.4 58.4275C109.467 58.4969 109.513 58.5848 109.531 58.6802C109.549 58.7755 109.538 58.874 109.5 58.9632C109.462 59.0524 109.398 59.1284 109.317 59.1815C109.236 59.2347 109.141 59.2626 109.044 59.2618C108.979 59.2618 108.915 59.2488 108.855 59.2236C108.795 59.1983 108.741 59.1614 108.695 59.1148C108.65 59.0683 108.614 59.0131 108.59 58.9526C108.567 58.8921 108.555 58.8274 108.557 58.7624Z"
        fill="#C7C7C7" />
    <path
        d="M165.888 59.8343H161.897V57.9829H165.888V59.8343ZM162.108 59.6272H165.681V58.19H162.108V59.6272Z"
        fill="#C7C7C7" />
    <path d="M164.8 58.2996H162.23V59.5176H164.8V58.2996Z" fill="#C7C7C7" />
    <path d="M166.241 58.4133H165.888V59.3999H166.241V58.4133Z" fill="#C7C7C7" />
    <path
        d="M108.796 193.648H108.232V196.226H107.185V194.911H105.325V196.226H104.278V193.648H103.717L106.255 191.021L108.796 193.648Z"
        fill="#EBEBEB" />
    <path d="M165.287 191.021H159.165V191.894H165.287V191.021Z" fill="#EBEBEB" />
    <path d="M165.287 193.185H159.165V194.058H165.287V193.185Z" fill="#EBEBEB" />
    <path d="M165.287 195.349H159.165V196.222H165.287V195.349Z" fill="#EBEBEB" />
    <path
        d="M136.242 193.274L134.5 195.134L132.758 193.274L133.067 192.99L134.5 194.517L135.933 192.99L136.242 193.274Z"
        fill="#EBEBEB" />
    <path
        d="M134.5 197.054C133.875 197.054 133.263 196.869 132.743 196.521C132.223 196.174 131.818 195.68 131.578 195.102C131.339 194.524 131.276 193.888 131.398 193.274C131.52 192.661 131.821 192.097 132.264 191.655C132.706 191.213 133.27 190.912 133.883 190.79C134.497 190.667 135.133 190.73 135.71 190.97C136.288 191.209 136.782 191.614 137.13 192.134C137.477 192.654 137.663 193.266 137.663 193.892C137.661 194.73 137.327 195.533 136.734 196.126C136.142 196.718 135.338 197.052 134.5 197.054ZM134.5 191.147C133.957 191.147 133.427 191.308 132.975 191.609C132.524 191.911 132.172 192.34 131.965 192.841C131.757 193.343 131.702 193.895 131.808 194.427C131.914 194.959 132.176 195.448 132.559 195.832C132.943 196.216 133.432 196.477 133.965 196.583C134.497 196.689 135.049 196.635 135.55 196.427C136.052 196.219 136.481 195.868 136.782 195.416C137.084 194.965 137.245 194.434 137.245 193.892C137.245 193.164 136.956 192.466 136.441 191.951C135.926 191.436 135.228 191.147 134.5 191.147Z"
        fill="#EBEBEB" />
    <path
        d="M129.778 182.528C129.778 182.736 129.716 182.94 129.6 183.114C129.484 183.288 129.319 183.423 129.127 183.503C128.934 183.583 128.721 183.604 128.517 183.563C128.312 183.522 128.124 183.422 127.976 183.274C127.829 183.126 127.728 182.938 127.687 182.733C127.647 182.529 127.667 182.316 127.747 182.124C127.827 181.931 127.963 181.766 128.136 181.65C128.31 181.534 128.514 181.472 128.723 181.472C128.861 181.471 128.999 181.498 129.127 181.551C129.256 181.604 129.372 181.682 129.47 181.78C129.568 181.878 129.646 181.995 129.699 182.123C129.752 182.251 129.779 182.389 129.778 182.528Z"
        fill="#DBDBDB" />
    <path
        d="M136.213 182.528C136.213 182.844 136.12 183.153 135.944 183.416C135.768 183.679 135.518 183.884 135.226 184.005C134.934 184.127 134.612 184.158 134.302 184.097C133.991 184.035 133.706 183.882 133.483 183.659C133.259 183.435 133.107 183.15 133.045 182.84C132.983 182.529 133.015 182.208 133.136 181.915C133.257 181.623 133.462 181.373 133.725 181.198C133.988 181.022 134.297 180.928 134.614 180.928C135.038 180.928 135.445 181.097 135.745 181.396C136.045 181.696 136.213 182.103 136.213 182.528Z"
        fill="#FF6600" />
    <path
        d="M141.56 182.528C141.56 182.736 141.499 182.94 141.383 183.114C141.267 183.288 141.102 183.423 140.909 183.503C140.716 183.583 140.504 183.604 140.299 183.563C140.094 183.522 139.906 183.422 139.758 183.274C139.611 183.126 139.51 182.938 139.47 182.733C139.429 182.529 139.45 182.316 139.53 182.124C139.609 181.931 139.745 181.766 139.918 181.65C140.092 181.534 140.296 181.472 140.505 181.472C140.644 181.471 140.781 181.498 140.909 181.551C141.038 181.604 141.154 181.682 141.252 181.78C141.351 181.878 141.428 181.995 141.481 182.123C141.534 182.251 141.561 182.389 141.56 182.528Z"
        fill="#DBDBDB" />
    <path d="M148.519 153.117H120.026V162.179H148.519V153.117Z" fill="#FF6600" />
    <path
        d="M128.004 158.919V156.483C128.004 156.453 128.009 156.423 128.021 156.395C128.032 156.367 128.048 156.342 128.07 156.321C128.091 156.3 128.116 156.283 128.144 156.272C128.172 156.26 128.202 156.255 128.232 156.255C128.262 156.255 128.292 156.26 128.32 156.272C128.348 156.283 128.374 156.299 128.395 156.321C128.417 156.342 128.434 156.367 128.445 156.395C128.457 156.423 128.463 156.453 128.463 156.483V158.704H129.592C129.653 158.704 129.712 158.728 129.755 158.771C129.799 158.815 129.823 158.874 129.823 158.935C129.823 158.996 129.799 159.055 129.755 159.099C129.712 159.142 129.653 159.166 129.592 159.166H128.232C128.2 159.167 128.169 159.16 128.14 159.147C128.111 159.135 128.085 159.116 128.063 159.093C128.042 159.07 128.026 159.042 128.015 159.012C128.005 158.982 128.002 158.95 128.004 158.919Z"
        fill="#F5F2F2" />
    <path
        d="M132.47 156.596C132.74 156.88 132.891 157.256 132.891 157.648C132.891 158.039 132.74 158.416 132.47 158.699C132.345 158.838 132.192 158.95 132.022 159.027C131.851 159.104 131.666 159.144 131.479 159.146C131.288 159.146 131.099 159.106 130.923 159.029C130.748 158.952 130.59 158.84 130.46 158.699C130.194 158.414 130.046 158.038 130.046 157.648C130.046 157.258 130.194 156.882 130.46 156.596C130.59 156.455 130.747 156.342 130.923 156.265C131.098 156.188 131.288 156.149 131.479 156.15C131.667 156.151 131.851 156.191 132.022 156.268C132.193 156.345 132.345 156.457 132.47 156.596ZM132.417 157.648C132.417 157.378 132.316 157.119 132.133 156.921C132.05 156.829 131.95 156.755 131.837 156.704C131.725 156.653 131.603 156.626 131.479 156.625C131.352 156.624 131.227 156.65 131.111 156.701C130.995 156.752 130.891 156.827 130.805 156.921C130.621 157.118 130.52 157.378 130.521 157.648C130.519 157.916 130.62 158.176 130.805 158.37C130.89 158.465 130.994 158.54 131.11 158.592C131.227 158.644 131.352 158.671 131.479 158.671C131.603 158.669 131.725 158.641 131.838 158.589C131.95 158.537 132.051 158.463 132.133 158.37C132.31 158.172 132.406 157.914 132.401 157.648H132.417Z"
        fill="#F5F2F2" />
    <path
        d="M133.566 157.652C133.573 157.367 133.659 157.089 133.814 156.85C133.969 156.611 134.188 156.419 134.446 156.297C134.704 156.175 134.99 156.127 135.274 156.158C135.557 156.19 135.826 156.299 136.051 156.474C136.101 156.513 136.133 156.57 136.14 156.632C136.148 156.695 136.13 156.758 136.092 156.807C136.053 156.857 135.996 156.889 135.934 156.897C135.871 156.904 135.808 156.887 135.759 156.848C135.572 156.703 135.342 156.625 135.105 156.625C134.966 156.622 134.828 156.648 134.699 156.701C134.57 156.753 134.452 156.831 134.354 156.929C134.255 157.021 134.177 157.132 134.123 157.256C134.069 157.38 134.042 157.513 134.042 157.648C134.042 157.783 134.069 157.916 134.123 158.04C134.177 158.163 134.255 158.274 134.354 158.366C134.452 158.465 134.57 158.543 134.699 158.595C134.828 158.647 134.966 158.673 135.105 158.671C135.305 158.669 135.501 158.615 135.674 158.513V157.944H135.077C135.014 157.942 134.955 157.916 134.911 157.871C134.867 157.827 134.842 157.767 134.841 157.705C134.842 157.643 134.868 157.584 134.912 157.541C134.956 157.497 135.015 157.473 135.077 157.473H135.889C135.92 157.472 135.951 157.477 135.98 157.488C136.01 157.499 136.036 157.516 136.059 157.538C136.082 157.559 136.1 157.585 136.112 157.614C136.125 157.642 136.132 157.673 136.132 157.705V158.626C136.135 158.649 136.135 158.672 136.132 158.695C136.118 158.737 136.089 158.773 136.051 158.797C135.827 158.972 135.559 159.082 135.276 159.114C134.994 159.146 134.708 159.098 134.45 158.977C134.193 158.856 133.974 158.665 133.819 158.427C133.664 158.189 133.578 157.912 133.57 157.627L133.566 157.652Z"
        fill="#F5F2F2" />
    <path
        d="M137.115 156.462C137.114 156.432 137.12 156.402 137.131 156.375C137.142 156.347 137.159 156.321 137.18 156.3C137.201 156.279 137.227 156.262 137.254 156.251C137.282 156.24 137.312 156.234 137.342 156.235C137.373 156.234 137.403 156.24 137.431 156.251C137.459 156.262 137.485 156.279 137.507 156.3C137.529 156.321 137.546 156.346 137.558 156.374C137.571 156.402 137.577 156.432 137.578 156.462V158.898C137.576 158.959 137.55 159.017 137.506 159.06C137.462 159.102 137.403 159.126 137.342 159.126C137.312 159.126 137.282 159.121 137.254 159.109C137.227 159.098 137.201 159.081 137.18 159.06C137.159 159.039 137.142 159.014 137.131 158.986C137.12 158.958 137.114 158.928 137.115 158.898V156.462Z"
        fill="#F5F2F2" />
    <path
        d="M138.812 158.919C138.812 158.979 138.788 159.037 138.745 159.08C138.702 159.122 138.645 159.146 138.584 159.146C138.524 159.146 138.466 159.122 138.424 159.08C138.381 159.037 138.357 158.979 138.357 158.919V156.483C138.356 156.446 138.364 156.409 138.38 156.376C138.397 156.343 138.421 156.314 138.45 156.292C138.5 156.259 138.56 156.245 138.618 156.254C138.677 156.263 138.73 156.294 138.767 156.341L140.111 158.2V156.499C140.111 156.47 140.117 156.441 140.128 156.414C140.139 156.387 140.156 156.362 140.176 156.341C140.197 156.32 140.222 156.304 140.249 156.293C140.276 156.282 140.305 156.276 140.334 156.276C140.394 156.276 140.451 156.299 140.494 156.341C140.536 156.383 140.561 156.439 140.562 156.499V158.935C140.561 158.995 140.536 159.052 140.494 159.095C140.451 159.137 140.394 159.161 140.334 159.162C140.301 159.162 140.269 159.154 140.239 159.139C140.21 159.125 140.184 159.103 140.164 159.077L140.143 159.053L138.812 157.206V158.919Z"
        fill="#F5F2F2" />
    <path
        d="M141.402 82.9683V85.9361H139.303V82.9683C139.303 80.1263 137.155 77.8486 134.516 77.8486C131.877 77.8486 129.73 80.1425 129.73 82.9683V90.3981H127.598V82.9683C127.598 78.9083 130.688 75.6318 134.5 75.6318C138.312 75.6318 141.402 78.9245 141.402 82.9683Z"
        fill="#C7C7C7" />
    <path d="M127.614 85.9443L129.713 86.0296V90.3982H127.614V85.9443Z" fill="#A6A6A6" />
    <path d="M144.077 87.9092H124.922V105.286H144.077V87.9092Z" fill="#FF6600" />
    <path opacity="0.1" d="M144.078 87.9092H134.5V105.286H144.078V87.9092Z" fill="black" />
    <path
        d="M135.312 97.235L136.124 101.035H132.722L133.534 97.235C133.219 97.0395 132.976 96.7467 132.842 96.4009C132.709 96.0551 132.691 95.6752 132.793 95.3187C132.895 94.9622 133.11 94.6485 133.406 94.4252C133.702 94.2019 134.062 94.0811 134.433 94.0811C134.804 94.0811 135.164 94.2019 135.46 94.4252C135.756 94.6485 135.971 94.9622 136.073 95.3187C136.174 95.6752 136.157 96.0551 136.024 96.4009C135.89 96.7467 135.647 97.0395 135.332 97.235H135.312Z"
        fill="#263238" />
    <path d="M159.169 124.461H109.835V132.906H159.169V124.461Z" fill="#F5F2F2" />
    <path
        d="M159.367 133.109H109.632V124.259H159.367V133.109ZM110.038 132.703H158.961V124.665H110.038V132.703Z"
        fill="#EBEBEB" />
    <path d="M114.955 126.792H114.549V130.401H114.955V126.792Z" fill="#37474F" />
    <path d="M116.559 128.392H112.95V128.798H116.559V128.392Z" fill="#37474F" />
    <path d="M115.888 127.173L113.334 129.724L113.621 130.012L116.175 127.46L115.888 127.173Z"
        fill="#37474F" />
    <path d="M113.618 127.175L113.331 127.462L115.883 130.014L116.17 129.727L113.618 127.175Z"
        fill="#37474F" />
    <path d="M121.078 126.792H120.672V130.401H121.078V126.792Z" fill="#37474F" />
    <path d="M122.681 128.392H119.072V128.798H122.681V128.392Z" fill="#37474F" />
    <path d="M122.009 127.177L119.456 129.729L119.743 130.016L122.296 127.464L122.009 127.177Z"
        fill="#37474F" />
    <path d="M119.742 127.174L119.455 127.461L122.007 130.013L122.294 129.726L119.742 127.174Z"
        fill="#37474F" />
    <path d="M127.2 126.792H126.794V130.401H127.2V126.792Z" fill="#37474F" />
    <path d="M128.804 128.392H125.194V128.798H128.804V128.392Z" fill="#37474F" />
    <path d="M128.13 127.177L125.577 129.729L125.864 130.016L128.417 127.465L128.13 127.177Z"
        fill="#37474F" />
    <path d="M125.866 127.172L125.579 127.459L128.131 130.012L128.418 129.725L125.866 127.172Z"
        fill="#37474F" />
    <path d="M133.327 126.792H132.921V130.401H133.327V126.792Z" fill="#37474F" />
    <path d="M134.926 128.392H131.317V128.798H134.926V128.392Z" fill="#37474F" />
    <path d="M134.255 127.178L131.702 129.729L131.989 130.016L134.542 127.465L134.255 127.178Z"
        fill="#37474F" />
    <path d="M131.993 127.176L131.706 127.463L134.258 130.016L134.545 129.728L131.993 127.176Z"
        fill="#37474F" />
    <path d="M139.449 126.792H139.043V130.401H139.449V126.792Z" fill="#37474F" />
    <path d="M141.049 128.392H137.439V128.798H141.049V128.392Z" fill="#37474F" />
    <path d="M140.376 127.178L137.823 129.729L138.11 130.016L140.663 127.465L140.376 127.178Z"
        fill="#37474F" />
    <path d="M138.112 127.171L137.825 127.458L140.377 130.01L140.664 129.723L138.112 127.171Z"
        fill="#37474F" />
    <path d="M145.572 126.792H145.166V130.401H145.572V126.792Z" fill="#37474F" />
    <path d="M147.175 128.392H143.566V128.798H147.175V128.392Z" fill="#37474F" />
    <path d="M146.5 127.175L143.947 129.727L144.234 130.014L146.787 127.462L146.5 127.175Z"
        fill="#37474F" />
    <path d="M144.236 127.17L143.949 127.457L146.501 130.009L146.788 129.722L144.236 127.17Z"
        fill="#37474F" />
    <path
        d="M154.955 129.987C154.514 129.961 154.085 129.838 153.697 129.627C153.309 129.417 152.972 129.124 152.709 128.769L152.62 128.647L152.709 128.53C152.955 128.163 153.287 127.862 153.677 127.654C154.066 127.446 154.501 127.338 154.942 127.338C155.384 127.338 155.819 127.446 156.208 127.654C156.597 127.862 156.93 128.163 157.175 128.53L157.261 128.647L157.175 128.769C156.916 129.121 156.583 129.412 156.199 129.623C155.816 129.833 155.391 129.957 154.955 129.987ZM153.136 128.664C153.345 128.952 153.62 129.187 153.937 129.349C154.255 129.511 154.606 129.595 154.963 129.595C155.319 129.595 155.671 129.511 155.988 129.349C156.306 129.187 156.58 128.952 156.79 128.664C156.58 128.375 156.306 128.14 155.988 127.978C155.671 127.816 155.319 127.732 154.963 127.732C154.606 127.732 154.255 127.816 153.937 127.978C153.62 128.14 153.345 128.375 153.136 128.664Z"
        fill="#EBEBEB" />
    <path
        d="M154.95 129.577C155.455 129.577 155.864 129.168 155.864 128.664C155.864 128.159 155.455 127.75 154.95 127.75C154.446 127.75 154.037 128.159 154.037 128.664C154.037 129.168 154.446 129.577 154.95 129.577Z"
        fill="#EBEBEB" />
    <path d="M156.455 126.832L153.21 130.076L153.498 130.363L156.742 127.119L156.455 126.832Z"
        fill="#EBEBEB" />
    <path
        d="M121.236 115.667H120.587V116.808C120.587 116.886 120.556 116.96 120.501 117.015C120.446 117.07 120.372 117.101 120.294 117.101C120.217 117.101 120.142 117.07 120.088 117.015C120.033 116.96 120.002 116.886 120.002 116.808V113.702C120.002 113.664 120.01 113.626 120.024 113.591C120.039 113.556 120.061 113.524 120.088 113.497C120.115 113.47 120.147 113.449 120.183 113.435C120.218 113.421 120.256 113.414 120.294 113.414H121.236C121.39 113.405 121.544 113.427 121.688 113.48C121.833 113.532 121.966 113.614 122.078 113.719C122.19 113.825 122.279 113.952 122.34 114.093C122.401 114.235 122.433 114.387 122.433 114.541C122.433 114.695 122.401 114.847 122.34 114.988C122.279 115.13 122.19 115.257 122.078 115.362C121.966 115.468 121.833 115.549 121.688 115.602C121.544 115.654 121.39 115.677 121.236 115.667ZM120.587 115.083H121.236C121.311 115.089 121.387 115.08 121.458 115.056C121.53 115.032 121.595 114.993 121.651 114.942C121.706 114.891 121.751 114.829 121.781 114.76C121.812 114.691 121.827 114.616 121.827 114.541C121.827 114.465 121.812 114.391 121.781 114.322C121.751 114.253 121.706 114.191 121.651 114.14C121.595 114.089 121.53 114.05 121.458 114.026C121.387 114.001 121.311 113.992 121.236 113.999H120.587V115.083Z"
        fill="#FF6600" />
    <path
        d="M124.586 116.228H123.307L123.047 116.914C123.024 116.967 122.986 117.013 122.938 117.046C122.89 117.078 122.833 117.096 122.775 117.097C122.741 117.103 122.707 117.103 122.673 117.097C122.601 117.069 122.541 117.014 122.509 116.944C122.476 116.873 122.473 116.792 122.499 116.719L123.664 113.617C123.687 113.562 123.727 113.516 123.776 113.483C123.826 113.451 123.885 113.434 123.944 113.434C124.003 113.433 124.062 113.45 124.111 113.482C124.161 113.515 124.199 113.562 124.22 113.617L125.386 116.719C125.412 116.792 125.408 116.873 125.376 116.944C125.343 117.014 125.284 117.069 125.211 117.097C125.178 117.104 125.143 117.104 125.109 117.097C125.052 117.096 124.995 117.079 124.947 117.046C124.9 117.014 124.863 116.968 124.842 116.914L124.586 116.228ZM124.371 115.651L123.944 114.518L123.538 115.651H124.371Z"
        fill="#FF6600" />
    <path
        d="M125.901 116.183C125.924 116.152 125.953 116.126 125.987 116.107C126.02 116.088 126.058 116.077 126.096 116.073C126.134 116.07 126.173 116.075 126.209 116.087C126.246 116.1 126.279 116.12 126.307 116.147C126.59 116.387 126.943 116.53 127.314 116.553C127.548 116.558 127.778 116.489 127.972 116.358C128.038 116.318 128.093 116.263 128.132 116.197C128.172 116.131 128.195 116.057 128.199 115.98C128.2 115.921 128.183 115.863 128.15 115.814C128.11 115.75 128.056 115.696 127.992 115.655C127.769 115.528 127.524 115.444 127.269 115.408C127.034 115.368 126.805 115.298 126.587 115.201C126.389 115.115 126.22 114.974 126.1 114.795C126.019 114.666 125.976 114.517 125.978 114.364C125.982 114.213 126.02 114.065 126.091 113.931C126.161 113.797 126.262 113.681 126.384 113.593C126.651 113.408 126.969 113.312 127.294 113.317C127.709 113.335 128.109 113.476 128.443 113.723C128.472 113.742 128.497 113.768 128.517 113.797C128.537 113.827 128.55 113.86 128.557 113.894C128.564 113.929 128.564 113.965 128.557 114C128.55 114.034 128.536 114.067 128.516 114.096C128.497 114.127 128.473 114.153 128.444 114.174C128.414 114.195 128.381 114.209 128.346 114.217C128.312 114.225 128.275 114.225 128.24 114.218C128.205 114.211 128.172 114.198 128.142 114.178C127.9 113.982 127.604 113.864 127.294 113.841C127.084 113.837 126.878 113.899 126.705 114.019C126.647 114.054 126.598 114.102 126.563 114.16C126.529 114.219 126.509 114.284 126.506 114.352C126.502 114.404 126.515 114.455 126.543 114.498C126.581 114.553 126.629 114.6 126.685 114.636C126.887 114.755 127.11 114.834 127.342 114.868C127.592 114.912 127.836 114.986 128.069 115.087C128.283 115.181 128.466 115.333 128.597 115.525C128.679 115.66 128.722 115.815 128.723 115.972C128.717 116.134 128.673 116.292 128.594 116.433C128.515 116.574 128.403 116.695 128.268 116.784C127.985 116.985 127.645 117.091 127.298 117.085C126.803 117.062 126.329 116.876 125.95 116.557C125.896 116.512 125.861 116.449 125.852 116.38C125.843 116.31 125.86 116.24 125.901 116.183Z"
        fill="#FF6600" />
    <path
        d="M129.364 116.183C129.387 116.155 129.414 116.132 129.446 116.115C129.477 116.098 129.512 116.088 129.547 116.085C129.583 116.081 129.619 116.085 129.653 116.096C129.687 116.106 129.719 116.124 129.746 116.147C130.029 116.387 130.382 116.53 130.753 116.553C130.987 116.558 131.217 116.49 131.41 116.358C131.476 116.318 131.531 116.263 131.571 116.197C131.611 116.131 131.634 116.057 131.638 115.98C131.639 115.921 131.622 115.863 131.589 115.814C131.549 115.749 131.495 115.695 131.431 115.655C131.209 115.528 130.965 115.444 130.712 115.408C130.478 115.368 130.25 115.299 130.034 115.201C129.835 115.114 129.665 114.973 129.543 114.795C129.463 114.665 129.421 114.516 129.421 114.364C129.424 114.213 129.463 114.065 129.533 113.931C129.604 113.797 129.704 113.681 129.827 113.593C130.094 113.408 130.412 113.312 130.736 113.317C131.151 113.335 131.551 113.476 131.885 113.723C131.915 113.742 131.94 113.768 131.96 113.797C131.979 113.827 131.993 113.86 132 113.894C132.007 113.929 132.006 113.965 131.999 114C131.992 114.034 131.978 114.067 131.958 114.096C131.94 114.127 131.915 114.153 131.886 114.174C131.857 114.195 131.824 114.209 131.789 114.217C131.754 114.225 131.718 114.225 131.683 114.218C131.648 114.211 131.615 114.198 131.585 114.178C131.343 113.982 131.047 113.864 130.736 113.841C130.526 113.837 130.32 113.899 130.148 114.019C130.089 114.054 130.041 114.102 130.006 114.16C129.971 114.219 129.952 114.284 129.949 114.352C129.945 114.404 129.958 114.455 129.985 114.498C130.023 114.553 130.072 114.6 130.127 114.636C130.33 114.754 130.553 114.833 130.785 114.868C131.035 114.912 131.279 114.986 131.512 115.087C131.725 115.18 131.906 115.332 132.036 115.525C132.12 115.659 132.164 115.814 132.161 115.972C132.156 116.134 132.113 116.291 132.034 116.433C131.956 116.574 131.845 116.694 131.711 116.784C131.427 116.986 131.085 117.092 130.736 117.085C130.241 117.062 129.767 116.876 129.389 116.557C129.339 116.508 129.309 116.444 129.305 116.375C129.3 116.306 129.321 116.238 129.364 116.183Z"
        fill="#FF6600" />
    <path
        d="M137.715 113.849L136.424 116.914C136.419 116.932 136.409 116.949 136.396 116.963C136.396 116.963 136.396 116.983 136.372 116.995L136.335 117.019C136.335 117.019 136.311 117.048 136.286 117.052H136.242H136.116H136.079C136.061 117.047 136.045 117.035 136.035 117.019L135.998 116.995C135.998 116.995 135.998 116.975 135.978 116.963C135.975 116.946 135.975 116.93 135.978 116.914L135.287 115.29L134.597 116.914C134.597 116.914 134.597 116.95 134.577 116.963L134.545 116.995C134.532 117.001 134.521 117.009 134.512 117.019L134.471 117.052C134.458 117.049 134.444 117.049 134.431 117.052H134.301H134.26C134.242 117.045 134.225 117.034 134.212 117.019C134.212 117.019 134.191 117.019 134.175 116.995L134.151 116.963C134.151 116.963 134.151 116.93 134.122 116.914L132.827 113.844C132.804 113.775 132.808 113.7 132.838 113.633C132.868 113.566 132.923 113.514 132.99 113.486C133.058 113.458 133.134 113.457 133.202 113.483C133.271 113.509 133.327 113.56 133.359 113.625L134.39 116.061L135.072 114.437C135.095 114.384 135.133 114.338 135.181 114.307C135.23 114.275 135.286 114.258 135.344 114.259C135.403 114.259 135.459 114.276 135.508 114.308C135.557 114.34 135.596 114.384 135.62 114.437L136.298 116.061L137.326 113.625C137.356 113.554 137.413 113.498 137.485 113.47C137.556 113.441 137.636 113.441 137.707 113.471C137.754 113.522 137.78 113.589 137.782 113.658C137.783 113.728 137.76 113.795 137.715 113.849Z"
        fill="#FF6600" />
    <path
        d="M141.402 113.869C141.744 114.229 141.935 114.706 141.935 115.203C141.935 115.699 141.744 116.176 141.402 116.536C141.242 116.711 141.048 116.851 140.831 116.947C140.615 117.044 140.381 117.095 140.144 117.097C139.902 117.095 139.663 117.045 139.441 116.949C139.219 116.852 139.019 116.712 138.852 116.536C138.519 116.172 138.333 115.696 138.333 115.203C138.333 114.709 138.519 114.233 138.852 113.869C139.018 113.692 139.218 113.552 139.44 113.455C139.662 113.359 139.902 113.309 140.144 113.309C140.381 113.31 140.615 113.36 140.832 113.456C141.049 113.553 141.243 113.693 141.402 113.869ZM141.333 115.201C141.333 114.861 141.206 114.533 140.976 114.283C140.871 114.166 140.743 114.072 140.599 114.008C140.456 113.943 140.301 113.91 140.144 113.909C139.983 113.908 139.824 113.941 139.677 114.005C139.531 114.07 139.399 114.164 139.291 114.283C139.06 114.532 138.932 114.86 138.934 115.201C138.93 115.541 139.058 115.87 139.291 116.118C139.399 116.237 139.531 116.332 139.678 116.397C139.824 116.462 139.983 116.495 140.144 116.496C140.301 116.494 140.456 116.459 140.599 116.394C140.742 116.329 140.871 116.235 140.976 116.118C141.201 115.866 141.323 115.538 141.317 115.201H141.333Z"
        fill="#FF6600" />
    <path
        d="M145.393 116.662C145.406 116.698 145.411 116.736 145.409 116.774C145.406 116.812 145.396 116.85 145.379 116.884C145.362 116.918 145.339 116.948 145.31 116.973C145.281 116.998 145.247 117.016 145.211 117.028C145.172 117.034 145.132 117.034 145.093 117.028C145.021 117.029 144.95 117.009 144.89 116.971C144.818 116.926 144.759 116.863 144.719 116.788C144.636 116.588 144.598 116.371 144.61 116.155C144.609 116.074 144.587 115.996 144.545 115.927C144.506 115.865 144.451 115.813 144.386 115.777C144.297 115.719 144.198 115.677 144.094 115.651H143.473V116.792C143.472 116.831 143.464 116.868 143.449 116.904C143.434 116.939 143.412 116.971 143.384 116.998C143.357 117.024 143.324 117.046 143.289 117.06C143.253 117.074 143.215 117.081 143.176 117.08C143.1 117.08 143.027 117.05 142.973 116.996C142.919 116.942 142.888 116.869 142.888 116.792V113.686C142.888 113.648 142.895 113.611 142.909 113.575C142.923 113.54 142.945 113.508 142.971 113.481C142.998 113.454 143.03 113.433 143.066 113.419C143.101 113.405 143.138 113.397 143.176 113.398H144.118C144.351 113.397 144.577 113.468 144.768 113.601C144.958 113.734 145.102 113.923 145.181 114.141C145.26 114.36 145.269 114.597 145.207 114.821C145.146 115.045 145.016 115.244 144.837 115.391C144.907 115.447 144.968 115.513 145.02 115.586C145.134 115.754 145.195 115.952 145.194 116.155C145.187 116.259 145.193 116.365 145.215 116.467C145.259 116.482 145.298 116.507 145.33 116.541C145.361 116.575 145.383 116.617 145.393 116.662ZM144.65 114.543C144.651 114.471 144.637 114.4 144.61 114.334C144.583 114.268 144.543 114.208 144.492 114.157C144.441 114.106 144.381 114.066 144.315 114.039C144.249 114.012 144.178 113.998 144.106 113.999H143.461V115.083H144.106C144.25 115.083 144.388 115.026 144.489 114.925C144.591 114.824 144.649 114.686 144.65 114.543Z"
        fill="#FF6600" />
    <path
        d="M146.25 116.808V113.702C146.249 113.664 146.256 113.627 146.27 113.591C146.285 113.556 146.306 113.524 146.333 113.497C146.36 113.47 146.392 113.449 146.427 113.435C146.462 113.421 146.5 113.414 146.538 113.414H147.159C147.632 113.436 148.079 113.64 148.406 113.983C148.733 114.326 148.916 114.781 148.916 115.255C148.916 115.729 148.733 116.185 148.406 116.528C148.079 116.871 147.632 117.074 147.159 117.097H146.538C146.461 117.097 146.388 117.066 146.334 117.012C146.28 116.958 146.25 116.885 146.25 116.808ZM146.834 116.512H147.159C147.48 116.494 147.782 116.353 148.002 116.12C148.223 115.886 148.346 115.577 148.346 115.255C148.346 114.934 148.223 114.625 148.002 114.391C147.782 114.157 147.48 114.017 147.159 113.999H146.834V116.512Z"
        fill="#FF6600" />
    <path
        d="M209.228 68.7136C209.228 68.7136 206.131 93.5039 201.039 99.0824C194.949 105.773 190.483 104.795 188.047 108.246C185.579 104.791 181.145 105.773 175.055 99.0783C169.964 93.4999 166.875 68.7095 166.875 68.7095C180.273 62.2135 188.068 54.9055 188.068 54.9055C188.271 55.1369 196.025 62.3069 209.228 68.7136Z"
        fill="#37474F" />
    <path
        d="M188.031 54.9136V108.246C185.563 104.791 181.129 105.773 175.039 99.0783C169.948 93.4999 166.858 68.7095 166.858 68.7095C180.256 62.2135 188.052 54.9055 188.052 54.9055L188.031 54.9136Z"
        fill="#455A64" />
    <path
        d="M205.956 70.711C205.956 70.711 203.342 91.6525 199.054 96.3661C193.886 102.026 190.122 101.193 188.056 104.109C185.973 101.193 182.226 102.026 177.057 96.3661C172.762 91.6525 170.155 70.711 170.155 70.711C181.483 65.2097 188.06 59.0466 188.06 59.0466C188.06 59.0466 194.609 65.2097 205.956 70.711Z"
        fill="#455A64" />
    <path
        d="M170.127 70.7111C170.127 70.7111 172.742 91.6485 177.029 96.3662C182.189 102.022 185.933 101.198 188.019 104.105V59.0386C187.833 59.2619 181.28 65.295 170.127 70.7111Z"
        fill="#37474F" />
    <path
        d="M193.905 87.45C197.147 84.2076 197.147 78.9506 193.905 75.7082C190.662 72.4658 185.405 72.4658 182.163 75.7082C178.92 78.9506 178.92 84.2076 182.163 87.45C185.405 90.6924 190.662 90.6924 193.905 87.45Z"
        fill="#FF6600" />
    <path
        d="M187.085 86.9714L183.387 83.1265L184.759 81.807L186.797 83.9264L191.19 77.1868L192.786 78.2261L187.085 86.9714Z"
        fill="#F5F2F2" />
    <path d="M65.6308 128.314H94.1157V122.415H65.6308V128.314Z" fill="#C7C7C7" />
    <path
        d="M86.4707 128.266L87.2665 135.805L97.116 206.384H99.9296L92.1588 135.805L91.5295 128.266H86.4707Z"
        fill="#C7C7C7" />
    <path
        d="M59.8086 206.384H62.6262L72.4758 135.805L73.2716 128.266H68.2128L67.5835 135.805L59.8086 206.384Z"
        fill="#C7C7C7" />
    <path d="M64.5626 183.327H95.9829V181.557H64.5626V183.327Z" fill="#C7C7C7" />
    <path d="M92.1588 135.541H87.2665L86.4707 128.266H91.5295L92.1588 135.541Z" fill="#A6A6A6" />
    <path d="M67.5835 135.541H72.4758L73.2716 128.266H68.2128L67.5835 135.541Z" fill="#A6A6A6" />
    <path
        d="M69.4306 94.0643C70.6486 94.6895 70.8597 96.8454 74.6518 96.7276C75.1917 96.7276 75.6343 96.4962 76.1296 96.6789C76.8563 96.9428 77.4288 97.5234 78.0743 97.9456C78.5935 98.2946 79.1847 98.5222 79.8039 98.6115C80.9919 98.7519 82.1918 98.4749 83.1981 97.8279C83.8192 97.4462 84.3389 96.9184 84.9398 96.5043C85.5407 96.0902 89.1663 95.2132 89.7793 93.1751C90.1853 91.88 90.1082 90.4062 88.5613 88.5142C88.205 88.1768 87.9624 87.737 87.8671 87.2556C87.8681 86.8338 87.9638 86.4175 88.1472 86.0376C88.3599 85.6064 88.4378 85.1211 88.3705 84.6451C88.1979 84.1898 87.9196 83.7821 87.5585 83.4555C86.9901 82.7693 87.0957 81.7787 87.5585 80.5607C87.742 80.0439 87.8045 79.4918 87.7412 78.947C87.6778 78.4022 87.4903 77.8792 87.1931 77.4183C86.8204 76.8902 86.381 76.4125 85.8858 75.9973C85.1915 75.3395 85.0738 74.7305 84.7612 73.8008C84.1725 72.0144 83.2508 71.2146 82.1668 70.6624C81.1884 70.1712 81.2208 70.3579 80.1734 70.5163C79.1121 69.8686 77.8627 69.5996 76.629 69.753C75.4841 69.8991 74.5381 70.6665 73.6733 71.4013C72.9019 72.0591 72.1955 72.7655 72.1549 73.8739C72.1305 74.5113 72.2848 75.1447 72.2564 75.7821C72.2158 76.5941 71.7651 77.1097 71.2251 77.6213C70.42 78.306 69.8645 79.2384 69.6458 80.2724C69.5037 81.1372 70.3563 82.4811 69.3575 83.76C68.4806 84.8887 66.9215 86.196 66.5155 87.6089C65.2772 92.0221 68.2816 93.4634 69.4306 94.0643Z"
        fill="#263238" />
    <path
        d="M84.1157 96.4432C85.8575 96.1793 88.533 96.5082 89.4587 94.5675C89.825 94.269 90.1151 93.8876 90.305 93.4549C90.4949 93.0222 90.5792 92.5505 90.5508 92.0787C90.4313 91.0712 89.9648 90.1368 89.2313 89.4357C88.8058 89.0351 88.4346 88.5806 88.127 88.0837C88.0288 87.6966 87.9569 87.3032 87.9118 86.9063C87.9836 86.3984 88.1201 85.9018 88.3178 85.4285C87.9362 86.2405 87.583 87.1174 87.9362 88.0106C87.9881 88.138 88.0491 88.2615 88.1189 88.3801C88.2458 88.8498 88.4199 89.3055 88.6386 89.7402C89.211 90.877 89.7348 91.9042 89.6576 93.2318C89.6442 93.6753 89.5377 94.111 89.345 94.5107C88.5916 95.1715 87.6505 95.5803 86.6532 95.68C86.6289 95.68 86.6289 95.7246 86.6532 95.7206C87.555 95.6294 88.42 95.3155 89.1704 94.8071C88.1595 96.2565 85.8088 96.0576 84.1076 96.3945C84.063 96.3945 84.0792 96.4473 84.1157 96.4432ZM89.5927 94.2387V94.2021C89.8942 93.1263 89.8168 91.9796 89.3734 90.9541C89.0974 90.2761 88.6832 89.6671 88.4112 88.985C88.3666 88.8673 88.3219 88.7495 88.2813 88.6277C88.6873 89.1596 89.1989 89.6021 89.5805 90.1218C90.3925 91.2505 90.6523 92.5944 89.8769 93.8164C89.793 93.9642 89.698 94.1053 89.5927 94.2387Z"
        fill="#263238" />
    <path
        d="M85.6586 75.7332C86.3085 76.2979 86.9279 76.897 87.514 77.5277C87.9229 77.9417 88.1681 78.4897 88.2042 79.0705C88.2193 79.6557 88.0346 80.2285 87.6804 80.6945C87.5505 80.8894 87.4165 81.1005 87.2988 81.2913C87.271 81.6693 87.3307 82.0486 87.4734 82.3997C87.7576 83.0696 88.3869 83.4837 88.6914 84.1618C89.1623 85.258 88.6386 86.1593 88.1758 87.1377C88.5127 86.3257 88.9878 85.5422 88.7198 84.6327C88.5087 83.8897 87.9646 83.4878 87.5546 82.8829C87.305 82.4986 87.1647 82.0537 87.1486 81.5958C86.7832 82.3348 86.6573 83.1143 87.3029 83.8897C87.3313 83.9263 87.3029 83.975 87.2541 83.9425C86.4421 83.1305 86.6533 82.1115 87.1526 81.2386C87.1834 80.723 87.2972 80.2157 87.4896 79.7364C87.4896 79.6876 87.583 79.7364 87.5749 79.7729C87.5018 80.1545 87.4044 80.5362 87.3516 80.9138L87.4368 80.7879C88.0864 79.8582 88.3422 78.7579 87.5952 77.7835C87.0349 77.0405 86.2716 76.4559 85.6464 75.7535C85.618 75.7454 85.6423 75.717 85.6586 75.7332Z"
        fill="#263238" />
    <path
        d="M90.5428 152.394C90.5428 152.394 83.2713 168.545 83.2632 168.557C81.8584 171.639 80.677 174.363 80.2019 175.833C80.1988 175.84 80.1988 175.849 80.2019 175.857C80.0518 176.188 79.9809 176.549 79.9949 176.913C79.9949 176.913 79.9949 176.933 79.9949 176.937C80.6282 177.98 104.923 189.929 105.914 190.071C106.905 190.213 107.355 187.4 106.783 186.182C106.21 184.964 98.951 176.226 98.951 176.226L106.08 160.011L90.5428 152.394Z"
        fill="#EB9481" />
    <path
        d="M84.757 165.228C84.757 165.228 83.271 168.533 83.2629 168.545C81.8582 171.626 80.6767 174.351 80.2017 175.82C80.1985 175.828 80.1985 175.837 80.2017 175.845C80.09 176.187 80.0205 176.541 79.9946 176.9C79.9946 176.9 79.9946 176.921 79.9946 176.925C80.628 177.968 104.923 189.917 105.914 190.059C106.904 190.201 107.355 187.387 106.783 186.169C106.21 184.951 98.9508 176.214 98.9508 176.214L100.514 172.869L84.757 165.228Z"
        fill="#EBEBEB" />
    <path
        d="M105.906 190.038C104.915 189.908 80.612 177.972 79.9746 176.929C79.7269 176.523 81.2575 172.893 83.2226 168.545L83.2835 168.407L99.0525 175.934L98.9145 176.198C98.9145 176.198 106.178 184.931 106.754 186.149C107.331 187.367 106.892 190.172 105.906 190.038Z"
        fill="#263238" />
    <path
        d="M106.705 189.348C107.059 189.73 106.247 191.147 105.893 191.11C105.54 191.074 79.0974 177.94 78.6914 177.615C78.2854 177.29 79.2476 175.759 79.812 175.934C80.3763 176.109 106.705 189.348 106.705 189.348Z"
        fill="#FF6600" />
    <path
        d="M100.226 176.892C98.7603 175.8 96.6694 175.077 94.8708 175.621C94.8018 175.621 94.8343 175.743 94.8952 175.751C96.6802 176.01 98.432 176.461 100.12 177.095C100.146 177.101 100.173 177.099 100.197 177.088C100.221 177.077 100.241 177.059 100.253 177.035C100.265 177.012 100.269 176.985 100.264 176.959C100.259 176.933 100.246 176.91 100.226 176.892Z"
        fill="#F5F2F2" />
    <path
        d="M101.046 178.167C99.5801 177.071 97.4892 176.352 95.6906 176.896C95.6216 176.917 95.6541 177.014 95.715 177.026C97.4998 177.284 99.2517 177.733 100.94 178.366C100.966 178.375 100.994 178.375 101.02 178.365C101.046 178.356 101.067 178.337 101.08 178.313C101.093 178.288 101.096 178.26 101.09 178.233C101.084 178.207 101.068 178.183 101.046 178.167Z"
        fill="#F5F2F2" />
    <path
        d="M101.866 179.438C100.4 178.346 98.3055 177.623 96.511 178.167C96.442 178.191 96.4704 178.289 96.511 178.297C98.2974 178.555 100.051 179.006 101.74 179.641C101.767 179.657 101.8 179.663 101.831 179.656C101.861 179.648 101.888 179.629 101.905 179.602C101.921 179.575 101.927 179.543 101.919 179.512C101.912 179.481 101.893 179.454 101.866 179.438Z"
        fill="#F5F2F2" />
    <path
        d="M85.979 173.1C84.6474 171.354 81.919 173.417 83.2629 175.167C84.6068 176.917 87.3107 174.85 85.979 173.1Z"
        fill="#F5F2F2" />
    <path
        d="M94.8303 138.355C94.6679 143.052 85.6141 163.34 85.6141 163.34L101.493 170.648C101.493 170.648 114.31 148.086 113.121 137.693C112.106 128.875 89.9177 112.566 86.3571 107.97C85.8293 107.288 86.0079 104.543 86.0079 104.543H71.603V107.982C77.1043 119.658 93.5595 133.665 94.7775 137.778C94.8256 137.966 94.8434 138.161 94.8303 138.355Z"
        fill="#37474F" />
    <path
        d="M101.403 167.258C98.7887 166.003 99.5561 166.324 96.9374 165.102C95.6503 164.505 89.1949 161.481 87.8957 161.144C87.8887 161.14 87.8807 161.14 87.8735 161.143C87.8663 161.145 87.8604 161.151 87.8572 161.158C87.8539 161.165 87.8536 161.173 87.8563 161.18C87.8589 161.187 87.8644 161.193 87.8714 161.196C88.9838 161.951 95.5082 164.822 96.8034 165.394C99.4546 166.564 98.7075 166.206 101.371 167.335C101.416 167.359 101.452 167.278 101.403 167.258Z"
        fill="#263238" />
    <path
        d="M75.2242 110.438C79.5722 117.065 84.4334 123.341 89.7631 129.207C91.0704 130.633 92.4142 132.017 93.7581 133.406C94.8949 134.579 96.0561 135.882 96.3362 137.551C96.6529 139.41 95.9302 141.262 95.3496 142.995C94.7122 144.903 94.0707 146.808 93.3927 148.704C92.6619 150.734 89.6737 158.119 89.1825 159.113C88.9348 159.609 93.1369 148.963 93.819 146.998C94.5011 145.033 95.1913 143.08 95.7719 141.091C96.1082 140.078 96.246 139.01 96.1779 137.945C96.046 136.918 95.636 135.946 94.9923 135.135C93.8231 133.576 92.3046 132.252 90.977 130.831C88.2243 127.884 85.6002 124.823 83.1047 121.648C80.2647 118.062 77.6139 114.329 75.1633 110.467C75.1614 110.463 75.1604 110.458 75.1602 110.454C75.16 110.449 75.1607 110.445 75.1622 110.441C75.1637 110.437 75.166 110.433 75.169 110.43C75.172 110.426 75.1755 110.424 75.1795 110.422C75.1835 110.42 75.1879 110.419 75.1923 110.419C75.1967 110.419 75.2011 110.419 75.2052 110.421C75.2094 110.422 75.2132 110.425 75.2165 110.428C75.2197 110.43 75.2223 110.434 75.2242 110.438Z"
        fill="#263238" />
    <path
        d="M66.6983 187.607C66.6983 187.607 65.9919 205.312 65.9878 205.325C66.069 208.711 66.1989 211.678 66.3938 213.205C66.3921 213.214 66.3921 213.224 66.3938 213.233C66.4126 213.599 66.5169 213.955 66.6983 214.273V214.293C67.7214 214.951 94.8016 215.105 95.7476 214.792C96.6936 214.48 95.8775 211.756 94.8341 210.911C93.7907 210.067 83.4377 205.373 83.4377 205.373L83.9777 187.68L66.6983 187.607Z"
        fill="#EB9481" />
    <path
        d="M66.1177 201.821C66.1177 201.821 65.9796 205.312 65.9756 205.324C66.0568 208.71 66.1867 211.678 66.3816 213.205C66.3799 213.214 66.3799 213.224 66.3816 213.233C66.4465 213.591 66.5528 213.94 66.6983 214.273V214.293C67.7214 214.951 94.8016 215.105 95.7476 214.792C96.6935 214.48 95.8775 211.755 94.8341 210.911C93.7906 210.067 83.4376 205.373 83.4376 205.373L83.5473 201.792L66.1177 201.821Z"
        fill="#EBEBEB" />
    <path
        d="M95.7272 214.76C94.7812 215.072 67.7132 214.947 66.6739 214.289C66.2679 214.045 66.0689 210.099 65.9512 205.32V205.17L83.4092 205.056V205.353C83.4092 205.353 93.7541 210.038 94.8097 210.882C95.8653 211.727 96.6772 214.451 95.7272 214.76Z"
        fill="#263238" />
    <path
        d="M96.1453 213.794C96.6285 213.984 96.5189 215.612 96.1656 215.738C95.8124 215.864 66.2922 215.6 65.7887 215.487C65.2853 215.373 65.4802 213.57 66.0648 213.481C66.6494 213.392 96.1453 213.794 96.1453 213.794Z"
        fill="#FF6600" />
    <path
        d="M84.8791 205.422C83.0846 205.077 80.884 205.345 79.5077 206.616C79.4549 206.664 79.5077 206.741 79.5808 206.721C81.2969 206.177 83.0663 205.818 84.8588 205.649C84.8889 205.652 84.9189 205.643 84.9421 205.623C84.9654 205.604 84.9799 205.576 84.9826 205.546C84.9853 205.516 84.9759 205.486 84.9565 205.462C84.9371 205.439 84.9092 205.425 84.8791 205.422Z"
        fill="#F5F2F2" />
    <path
        d="M86.1866 206.205C84.3921 205.86 82.1956 206.128 80.8152 207.399C80.7625 207.448 80.8152 207.525 80.8924 207.505C82.6083 206.96 84.3778 206.6 86.1704 206.433C86.2005 206.435 86.2303 206.425 86.2531 206.405C86.276 206.385 86.29 206.357 86.2922 206.327C86.2943 206.297 86.2844 206.267 86.2646 206.244C86.2448 206.222 86.2168 206.208 86.1866 206.205Z"
        fill="#F5F2F2" />
    <path
        d="M87.4653 206.993C85.6708 206.648 83.4703 206.912 82.094 208.187C82.0371 208.235 82.094 208.313 82.167 208.292C83.883 207.747 85.6524 207.388 87.445 207.22C87.4752 207.223 87.5052 207.214 87.5284 207.194C87.5516 207.175 87.5662 207.147 87.5689 207.117C87.5716 207.087 87.5622 207.057 87.5427 207.034C87.5233 207.01 87.4955 206.996 87.4653 206.993Z"
        fill="#F5F2F2" />
    <path
        d="M70.405 208.227C68.4441 207.237 66.9013 210.282 68.8622 211.272C70.8232 212.263 72.3823 209.222 70.405 208.227Z"
        fill="#F5F2F2" />
    <path
        d="M83.9127 199.681L66.2111 199.827C66.2111 199.827 69.1587 127.531 67.1855 125.168C62.4921 119.553 63.2392 112.066 66.4019 104.547H82.5323C82.5323 104.547 81.7568 115.964 81.834 116.297C86.7953 137.937 83.9127 199.681 83.9127 199.681Z"
        fill="#37474F" />
    <path
        d="M82.9386 196.055C79.0776 195.755 68.9073 196.084 67.6243 196.279C67.6183 196.282 67.6133 196.286 67.6098 196.292C67.6063 196.298 67.6045 196.304 67.6045 196.311C67.6045 196.318 67.6063 196.324 67.6098 196.33C67.6133 196.336 67.6183 196.341 67.6243 196.344C68.8951 196.599 80.5554 196.234 82.9346 196.141C82.9438 196.138 82.952 196.133 82.9581 196.126C82.9641 196.118 82.9676 196.109 82.9681 196.099C82.9685 196.09 82.9659 196.08 82.9606 196.073C82.9553 196.065 82.9476 196.059 82.9386 196.055Z"
        fill="#263238" />
    <path
        d="M82.9141 108.985C82.7517 111.015 82.8329 114.514 81.6514 114.567C80.47 114.62 80.677 110.357 80.6446 109.374C80.6121 108.485 80.3076 108.607 80.2751 109.655C80.1858 112.497 80.2751 115.01 81.7692 114.892C83.2633 114.774 83.2673 110.369 83.2308 109.362C83.2105 108.843 82.9628 108.339 82.9141 108.985Z"
        fill="#263238" />
    <path
        d="M81.7201 114.701C81.6466 115.419 81.6616 116.143 81.7648 116.857C81.7851 116.914 82.0125 116.857 82.0368 116.821C82.1749 116.524 82.0652 115.128 82.1018 114.75C82.1082 114.699 82.0943 114.648 82.0631 114.608C82.0477 114.588 82.0284 114.571 82.0065 114.559C81.9846 114.546 81.9604 114.538 81.9353 114.535C81.8847 114.528 81.8336 114.542 81.7933 114.573C81.7529 114.605 81.7266 114.651 81.7201 114.701Z"
        fill="#263238" />
    <path
        d="M82.2278 117.218C82.7312 119.005 83.2468 122.423 83.125 123.308C83.125 123.39 82.9951 123.418 82.9789 123.333C82.8165 122.375 82.1019 117.766 82.0288 117.283C81.9557 116.8 82.0857 116.719 82.2278 117.218Z"
        fill="#263238" />
    <path
        d="M79.1217 118.627C79.3573 118.396 79.6097 118.183 79.8769 117.99C80.1408 117.783 80.4047 117.584 80.6889 117.385C81.2492 116.979 81.8257 116.63 82.4144 116.281C83.0031 115.931 83.5796 115.627 84.1805 115.322C84.7814 115.018 85.4716 114.766 86.0968 114.454C86.1333 114.433 86.1658 114.486 86.1293 114.506C85.5365 114.835 84.9844 115.245 84.4078 115.607C83.8313 115.968 83.2548 116.341 82.6742 116.703C82.0936 117.064 81.5455 117.417 80.9771 117.767C80.6821 117.951 80.3817 118.129 80.0758 118.302C79.8021 118.479 79.5173 118.638 79.2232 118.777C79.1258 118.814 79.0689 118.688 79.1217 118.627Z"
        fill="#263238" />
    <path
        d="M68.8786 162.065C69.1343 156.271 69.5403 149.8 69.6378 144.014C69.6838 141.115 69.7054 138.215 69.7027 135.314C69.7027 132.435 69.7027 128.59 69.5728 125.716C69.4957 124.254 66.9216 123.126 66.3979 118.871C66.035 116.447 66.228 113.973 66.9622 111.636C67.1449 111.068 67.3604 110.51 67.6078 109.967C67.6078 109.931 67.6768 109.967 67.6606 110C66.6303 112.389 66.2023 114.994 66.4141 117.588C66.489 118.895 66.7628 120.183 67.2261 121.408C67.9163 123.126 69.6175 124.518 69.7068 125.432C69.8408 126.792 69.8611 127.969 69.8773 129.337C69.8936 130.706 69.9098 132.179 69.9179 133.6C69.9342 136.502 69.926 139.402 69.8936 142.301C69.8286 148.074 69.677 153.845 69.4388 159.613C69.1952 165.382 67.7012 194.269 67.6037 194.935C67.6037 195.008 67.4738 194.992 67.4779 194.935C67.6565 192.024 68.6187 167.859 68.8786 162.065Z"
        fill="#263238" />
    <path
        d="M78.4399 91.2221C82.2807 99.1472 87.1567 107.73 91.7202 109.086C96.0644 110.365 104.485 99.6993 107.148 96.9061C108.098 95.8911 100.38 90.0853 99.1825 90.9663C96.9251 92.6268 92.8692 97.1497 92.1871 96.9913C91.505 96.833 85.8088 91.4169 80.677 86.8697C77.567 84.113 75.7806 85.7289 78.4399 91.2221Z"
        fill="#EB9481" />
    <path
        d="M113.827 91.8759C114.882 91.4333 123.011 91.1735 123.011 89.4114C123.011 87.6494 112.662 88.1447 112.662 88.1447L113.827 91.8759Z"
        fill="#EB9481" />
    <path
        d="M98.2363 92.0829C99.6573 90.3168 100.908 88.4289 102.142 88.0635C102.999 87.8199 112.199 88.2178 113.64 88.1325C115.081 88.0472 120.205 88.1772 120.327 89.4358C120.493 91.2181 114.419 91.2019 113.774 92.1154C111.537 95.2578 103.031 99.9106 103.031 99.9106L98.2363 92.0829Z"
        fill="#EB9481" />
    <path
        d="M120.461 89.4641C120.372 89.1299 120.162 88.8405 119.872 88.6521C119.243 88.2136 118.415 88.173 117.676 88.1162C116.555 88.0114 115.428 88.0019 114.306 88.0878C114.301 88.0878 114.295 88.0899 114.292 88.0937C114.288 88.0975 114.286 88.1027 114.286 88.1081C114.286 88.1134 114.288 88.1186 114.292 88.1224C114.295 88.1262 114.301 88.1284 114.306 88.1284C115.146 88.1284 115.987 88.1487 116.827 88.2177C117.597 88.25 118.361 88.367 119.105 88.5668C119.441 88.6562 119.745 88.8393 119.982 89.0946C120.066 89.1838 120.126 89.2927 120.156 89.4112C120.187 89.5298 120.187 89.6541 120.156 89.7727C119.909 90.5481 118.378 90.7795 117.672 90.9379C116.75 91.1449 115.792 91.3439 114.862 91.5144C114.822 91.5144 114.862 91.5875 114.882 91.5794C115.845 91.3885 116.864 91.3114 117.83 91.1368C118.614 90.9947 119.454 90.8364 120.087 90.3248C120.224 90.2304 120.331 90.0998 120.397 89.9477C120.463 89.7957 120.485 89.6281 120.461 89.4641Z"
        fill="#263238" />
    <path
        d="M106.154 85.6262L106.421 84.2555L122.416 87.379C122.561 87.4073 122.689 87.4919 122.771 87.6143C122.853 87.7367 122.884 87.8867 122.855 88.0315L122.801 88.3105C122.773 88.4552 122.688 88.5829 122.566 88.6652C122.443 88.7476 122.293 88.778 122.149 88.7498L106.154 85.6262Z"
        fill="#FF6600" />
    <path opacity="0.1"
        d="M106.42 84.2584L106.152 85.6292L108.08 86.0058L108.348 84.635L106.42 84.2584Z"
        fill="black" />
    <path
        d="M100.303 82.5136L99.8321 84.9496C99.6706 85.7733 99.8429 86.6275 100.311 87.3242C100.779 88.0209 101.505 88.503 102.329 88.6645C103.153 88.826 104.007 88.6537 104.704 88.1854C105.4 87.7172 105.882 86.9913 106.044 86.1676L106.519 83.7316C106.599 83.3235 106.598 82.9036 106.515 82.4959C106.433 82.0882 106.271 81.7007 106.039 81.3556C105.807 81.0104 105.509 80.7144 105.163 80.4843C104.817 80.2542 104.428 80.0946 104.02 80.0147C103.612 79.9347 103.192 79.9359 102.784 80.0182C102.377 80.1005 101.989 80.2623 101.644 80.4943C100.947 80.963 100.465 81.6893 100.303 82.5136ZM105.524 83.1185C105.439 83.479 105.244 83.8042 104.966 84.0492C104.689 84.2943 104.342 84.4471 103.973 84.4868C104.298 84.6642 104.561 84.9366 104.726 85.2675C104.891 85.5984 104.952 85.972 104.899 86.3381C104.708 87.3044 103.644 87.9134 102.52 87.6942C101.395 87.4749 100.636 86.5086 100.823 85.5464C100.91 85.1862 101.106 84.8615 101.384 84.6167C101.662 84.3719 102.009 84.2187 102.378 84.1782C102.052 84.0025 101.788 83.7304 101.622 83.399C101.456 83.0677 101.397 82.6932 101.452 82.3268C101.643 81.3565 102.707 80.7556 103.831 80.9749C104.956 81.1941 105.715 82.1523 105.524 83.1185Z"
        fill="#FF6600" />
    <path
        d="M106.541 83.638L106.031 86.248C106.004 86.3866 106.094 86.521 106.233 86.548L106.36 86.5729C106.499 86.6 106.633 86.5096 106.661 86.3709L107.17 83.7609C107.197 83.6223 107.107 83.488 106.968 83.4609L106.841 83.436C106.702 83.4089 106.568 83.4993 106.541 83.638Z"
        fill="#FF6600" />
    <path
        d="M107.171 83.7625L106.661 86.3725C106.634 86.5111 106.724 86.6455 106.863 86.6726L106.99 86.6975C107.129 86.7245 107.263 86.6341 107.29 86.4954L107.8 83.8854C107.827 83.7468 107.737 83.6125 107.598 83.5854L107.471 83.5605C107.332 83.5334 107.198 83.6239 107.171 83.7625Z"
        fill="#FF6600" />
    <path
        d="M118.585 86.0457L119.06 86.1391L119.328 84.7547L119.738 84.8359L119.596 85.5585L120.071 85.6519L120.213 84.9292L120.57 84.9983L120.351 86.1391L120.826 86.2325L121.049 85.0916L121.561 85.1931L121.265 86.7156L121.74 86.809L122.036 85.2865L122.519 85.3799L122.142 87.3246L117.887 86.4964L118.264 84.5476L118.853 84.6654L118.585 86.0457Z"
        fill="#FF6600" />
    <path
        d="M64.0835 106.991L86.7464 107.365L84.9681 100.576C85.5594 99.7244 85.957 98.7534 86.133 97.7315C86.3091 96.7096 86.2593 95.6615 85.9872 94.6609C85.4432 92.6634 82.8651 89.6712 81.2817 87.7589C77.4328 83.1305 74.0873 85.2214 73.0196 86.411C68.9474 90.9704 64.0835 106.991 64.0835 106.991Z"
        fill="#FF6600" />
    <path
        d="M75.2446 89.0501V87.759L76.1012 88.7172L77.0269 88.4289L76.5763 89.2409L77.0107 89.6957L76.3367 89.7647V90.6416L75.5978 90.0245L74.9969 90.5239L75.0659 89.785L74.189 89.379L75.2446 89.0501ZM84.8993 103.556L84.1847 104.21L83.527 103.861L83.7584 104.612L82.9058 105.055L83.7178 105.404L83.5189 106.053L84.1116 105.826L84.6963 106.565L84.7856 105.599L86.0036 105.193L84.8181 104.677L84.8993 103.556ZM76.6128 98.7373L77.3071 100.118L77.9932 98.7982L79.3005 99.0255L78.6063 97.637L79.5766 96.7113L78.2003 96.7601L77.9242 95.4121L77.2015 96.8088L75.3664 96.6667L76.4463 97.7832L75.4476 98.5505L76.6128 98.7373ZM82.0167 90.7594L82.3496 90.1991L81.7243 90.2559L81.5092 89.7403L81.1722 90.3006L80.6241 90.1666L80.9529 90.6457L80.5469 91.0517L81.2087 90.9908L81.5741 91.6729L81.7243 91.0395L82.2197 91.2182L82.0167 90.7594ZM71.3876 105.546L71.7205 104.99L71.0993 105.042L70.8801 104.527L70.5472 105.091L69.9991 104.953L70.3279 105.432L69.9219 105.838L70.5837 105.781L70.9491 106.463L71.0993 105.826L71.5987 106.009L71.3876 105.546ZM75.1147 95.4812L75.4476 94.9249L74.8223 94.9777L74.6072 94.4621L74.2742 95.0264L73.7221 94.8884L74.0509 95.3675L73.6449 95.7735L74.3067 95.7166L74.6721 96.3947L74.8223 95.7613L75.3217 95.9399L75.1147 95.4812ZM71.079 96.9915L70.9653 96.6261L70.7461 96.9225L70.4335 96.8128L70.5472 97.1823L70.2751 97.3691L70.6121 97.4137V97.7548L70.8435 97.4381L71.2861 97.5477L71.0668 97.231L71.3429 97.0808L71.079 96.9915ZM81.5985 105.7L81.4848 105.335L81.2615 105.631L80.9529 105.526L81.0666 105.891L80.7905 106.082L81.1316 106.122V106.463L81.363 106.151L81.8055 106.256L81.5863 105.94L81.8624 105.794L81.5985 105.7ZM84.745 95.0873L85.0332 94.8316L84.6719 94.7544L84.6394 94.4256L84.3512 94.6813L84.067 94.5108L84.1685 94.8356L83.864 94.9899L84.2456 95.0711L84.3309 95.5218L84.5298 95.1888L84.7775 95.3797L84.745 95.0873ZM79.061 101.945L79.3452 101.689L78.9838 101.612L78.9514 101.283L78.6672 101.539L78.3789 101.368L78.4804 101.693L78.1759 101.847L78.5575 101.928L78.6428 102.379L78.8417 102.046L79.0894 102.237L79.061 101.945ZM67.3601 104.096L67.6443 103.841L67.2829 103.759L67.2545 103.431L66.9662 103.69L66.6983 103.516L66.7957 103.845L66.4912 103.995L66.8729 104.08L66.9622 104.527L67.1571 104.198L67.4047 104.389L67.3601 104.096Z"
        fill="#F5F2F2" />
    <path
        d="M78.9066 100.179C79.8757 100.089 80.8501 100.073 81.8216 100.13C82.3048 100.162 82.7839 100.219 83.2629 100.288C83.4984 100.321 83.738 100.345 83.9775 100.369C84.2283 100.4 84.4819 100.4 84.7327 100.369C84.7327 100.369 84.7611 100.398 84.7327 100.406C84.501 100.458 84.2665 100.496 84.0303 100.52C83.7991 100.534 83.5672 100.534 83.336 100.52C82.8488 100.487 82.3576 100.434 81.8704 100.402C80.8838 100.329 79.8972 100.26 78.9066 100.26C78.8781 100.268 78.8781 100.183 78.9066 100.179Z"
        fill="#263238" />
    <path
        d="M76.7062 101.449C77.4765 101.225 78.2585 101.043 79.0488 100.905C79.4548 100.84 79.8608 100.796 80.2425 100.763L80.8149 100.723C81.026 100.723 81.2209 100.723 81.4483 100.723C81.4726 100.723 81.4767 100.755 81.4483 100.759C81.2493 100.78 81.0423 100.832 80.8555 100.861L80.2628 100.954L79.0772 101.141C78.2869 101.255 77.4965 101.382 76.7062 101.522C76.6737 101.522 76.6656 101.462 76.7062 101.449Z"
        fill="#263238" />
    <path
        d="M75.2241 86.1553C75.3216 86.5613 77.2541 89.18 79.1014 89.0907C79.7023 89.0582 79.6861 85.7696 79.6861 85.7696L79.7388 85.526L80.5021 82.1196L76.5071 79.5618L75.9306 79.2249C75.9306 79.2249 75.7844 80.1708 75.6139 81.3482C75.6139 81.4051 75.6139 81.4579 75.6139 81.5147C75.6139 81.5715 75.5895 81.6446 75.5814 81.7096C75.553 81.8842 75.5246 82.0628 75.5043 82.2414C75.484 82.4201 75.4677 82.5135 75.4515 82.6474L75.4028 83.0778C75.2743 84.0985 75.2146 85.1266 75.2241 86.1553Z"
        fill="#EB9481" />
    <path
        d="M75.6304 81.3442C75.9768 82.2994 76.5266 83.168 77.2416 83.89C77.9566 84.612 78.8198 85.1702 79.7716 85.526L80.5024 82.1196L76.5073 79.5618L75.9308 79.2249C75.9308 79.2249 75.7847 80.1668 75.6304 81.3442Z"
        fill="#263238" />
    <path
        d="M85.3054 76.5615C86.4949 82.5703 83.0277 83.9588 81.7326 84.2146C80.5592 84.446 76.5236 85.0794 74.7209 79.2289C72.9183 73.3785 75.3381 70.9262 78.0014 70.2563C80.6648 69.5864 84.1198 70.5568 85.3054 76.5615Z"
        fill="#EB9481" />
    <path
        d="M83.5514 75.6439C83.4174 75.6743 83.2819 75.6974 83.1454 75.7129C83.003 75.7597 82.8493 75.7597 82.7069 75.7129C82.6657 75.688 82.6339 75.6503 82.6163 75.6055C82.5987 75.5608 82.5963 75.5115 82.6095 75.4652C82.6498 75.3776 82.7129 75.3024 82.7921 75.2475C82.8714 75.1925 82.9639 75.1597 83.0601 75.1526C83.2518 75.1079 83.4532 75.1368 83.6245 75.2338C83.6596 75.2593 83.6869 75.2943 83.7032 75.3346C83.7194 75.3749 83.724 75.419 83.7164 75.4617C83.7088 75.5045 83.6892 75.5443 83.6601 75.5765C83.6309 75.6087 83.5932 75.6321 83.5514 75.6439Z"
        fill="#263238" />
    <path
        d="M79.2841 76.8741C79.4209 76.8532 79.5564 76.8247 79.6901 76.7889C79.8402 76.7802 79.9831 76.7216 80.0961 76.6224C80.1268 76.5853 80.1436 76.5386 80.1436 76.4904C80.1436 76.4423 80.1268 76.3956 80.0961 76.3585C80.0278 76.2903 79.9421 76.2421 79.8483 76.2192C79.7545 76.1963 79.6563 76.1995 79.5642 76.2286C79.3687 76.2538 79.1902 76.3525 79.0648 76.5047C79.0367 76.5413 79.0202 76.5856 79.0175 76.6317C79.0148 76.6779 79.0259 76.7238 79.0495 76.7635C79.0731 76.8033 79.108 76.8351 79.1498 76.8548C79.1917 76.8745 79.2384 76.8812 79.2841 76.8741Z"
        fill="#263238" />
    <path
        d="M80.1856 77.6455C80.1856 77.6455 80.1572 77.6455 80.1612 77.6861C80.2343 78.0921 80.2505 78.5793 79.9014 78.7701C79.9014 78.7701 79.9014 78.7985 79.9014 78.7945C80.352 78.6605 80.3236 78.019 80.1856 77.6455Z"
        fill="#263238" />
    <path
        d="M79.7551 77.268C79.0852 77.3167 79.2314 78.6565 79.8526 78.6078C80.4738 78.5591 80.3154 77.2274 79.7551 77.268Z"
        fill="#263238" />
    <path
        d="M79.4994 77.3695C79.3898 77.4547 79.2923 77.6009 79.1502 77.6334C79.0081 77.6659 78.8538 77.54 78.7442 77.4182C78.7686 77.674 78.8944 77.9257 79.1746 77.9338C79.4547 77.9419 79.5806 77.6943 79.6171 77.4304C79.5928 77.3979 79.544 77.3329 79.4994 77.3695Z"
        fill="#263238" />
    <path
        d="M82.7311 77.2556C82.7311 77.2556 82.7636 77.2556 82.7636 77.2881C82.7961 77.6941 82.8976 78.1772 83.2873 78.2747V78.299C82.8204 78.2828 82.6905 77.6535 82.7311 77.2556Z"
        fill="#263238" />
    <path
        d="M83.056 76.7849C83.7177 76.6672 83.9045 78.0029 83.2914 78.1085C82.6784 78.214 82.4997 76.8864 83.056 76.7849Z"
        fill="#263238" />
    <path
        d="M83.3444 76.8335C83.4622 76.8904 83.584 77.0041 83.7098 76.9919C83.8357 76.9797 83.9453 76.8214 84.0184 76.6711C84.0184 76.6711 84.0184 76.6711 84.0428 76.6711C84.0834 76.9229 84.0428 77.203 83.7992 77.2842C83.5556 77.3654 83.3932 77.1665 83.2917 76.9188C83.2754 76.8863 83.2998 76.8092 83.3444 76.8335Z"
        fill="#263238" />
    <path
        d="M80.9407 81.1451C81.0462 81.2385 81.1559 81.3644 81.3061 81.3684C81.4612 81.3543 81.6118 81.3087 81.7486 81.2345C81.7486 81.2345 81.773 81.2345 81.7486 81.2345C81.6947 81.3199 81.6187 81.3891 81.5286 81.4348C81.4386 81.4806 81.3378 81.5011 81.2371 81.4943C81.1594 81.4775 81.0878 81.4399 81.0299 81.3855C80.972 81.3312 80.9299 81.2621 80.9082 81.1857C80.9082 81.1857 80.9082 81.133 80.9407 81.1451Z"
        fill="#263238" />
    <path
        d="M82.4878 79.4401C82.4878 79.4401 82.6502 80.0451 82.6868 80.3374C82.6868 80.3658 82.6218 80.3861 82.5203 80.4064C82.275 80.4823 82.0136 80.4895 81.7645 80.4272C81.5154 80.3649 81.2882 80.2356 81.1074 80.0532C81.1074 80.0288 81.1074 79.9923 81.148 80.0085C81.5512 80.2176 82.0114 80.2903 82.4594 80.2156C82.4594 80.1344 82.1468 79.1843 82.1914 79.1762C82.4209 79.1688 82.6502 79.192 82.8735 79.2452C82.5771 77.9704 82.0615 76.7524 81.7976 75.4776C81.7976 75.4329 81.8545 75.4085 81.8707 75.4491C82.4481 76.7367 82.8943 78.0793 83.2024 79.4564C83.2389 79.6188 82.6137 79.4726 82.4878 79.4401Z"
        fill="#263238" />
    <path
        d="M82.4794 80.3008C82.3469 80.5592 82.1496 80.7788 81.907 80.9382C81.7722 81.022 81.6147 81.0618 81.4563 81.0519C81.1153 81.0235 81.0503 80.723 81.0503 80.4551C81.0608 80.3173 81.0867 80.1811 81.1274 80.0491C81.5392 80.2764 82.0134 80.3646 82.4794 80.3008Z"
        fill="#263238" />
    <path
        d="M81.907 80.9381C81.7722 81.0219 81.6147 81.0617 81.4563 81.0518C81.1153 81.0234 81.0503 80.7229 81.0503 80.455C81.2268 80.4256 81.408 80.4575 81.5639 80.5454C81.7197 80.6333 81.8408 80.7719 81.907 80.9381Z"
        fill="#FF9ABB" />
    <path
        d="M75.3907 79.7568C76.5397 79.7568 76.4626 77.1178 76.4626 77.1178C76.4626 77.1178 81.1559 75.6197 81.0098 71.653C81.8416 73.1583 83.2215 74.2852 84.8627 74.7995C84.8627 74.7995 84.0872 70.5365 80.5672 70.1833C80.5672 70.1833 76.1296 69.2455 74.2296 72.9319C72.3295 76.6184 74.6193 79.769 75.3907 79.7568Z"
        fill="#263238" />
    <path
        d="M80.9856 71.3606C81.1256 71.9562 81.1381 72.5747 81.0221 73.1754C80.9167 73.7866 80.6843 74.3688 80.34 74.8847C80.2548 75.0138 80.1612 75.1372 80.0599 75.2541L79.9178 75.4368C79.865 75.4937 79.8082 75.5465 79.7513 75.5992C79.6945 75.652 79.5321 75.8144 79.4184 75.9159L79.0449 76.192C78.984 76.2367 78.9231 76.2813 78.8581 76.3219L78.6592 76.4356L78.2532 76.6589C77.9771 76.7807 77.6929 76.8863 77.4087 76.9878C77.6685 76.8294 77.9365 76.6995 78.1882 76.5412L78.5617 76.2894L78.7444 76.1636C78.8053 76.1189 78.8581 76.0702 78.915 76.0215L79.2519 75.7373C79.3616 75.6358 79.459 75.5262 79.5605 75.4206L79.7148 75.2623L79.8488 75.0877C79.9412 74.9753 80.0266 74.8573 80.1045 74.7345C80.4339 74.2385 80.6743 73.689 80.815 73.1105C80.8877 72.8238 80.938 72.532 80.9653 72.2376C80.9953 71.9462 81.0021 71.653 80.9856 71.3606Z"
        fill="#263238" />
    <path
        d="M73.6006 76.1475L73.3164 76.724L75.2165 78.1125L75.8255 76.8174L73.6006 76.1475ZM75.0825 77.5197L73.7711 76.6671L73.832 76.5332L75.3058 77.065L75.0825 77.5197Z"
        fill="#FF6600" />
    <path
        d="M73.6814 75.1284L73.6367 75.7699L75.9225 76.3424L75.9996 74.9092L73.6814 75.1284ZM75.5733 75.8389L74.0346 75.5466V75.3964L75.6018 75.3355L75.5733 75.8389Z"
        fill="#FF6600" />
    <path
        d="M76.2719 79.2412C76.2719 79.2412 74.7332 77.4832 73.9252 78.0516C73.1173 78.62 74.4124 81.2671 75.464 81.531C75.5966 81.5752 75.7369 81.592 75.8762 81.5803C76.0155 81.5686 76.151 81.5287 76.2744 81.463C76.3978 81.3973 76.5066 81.3072 76.5941 81.1981C76.6816 81.0891 76.746 80.9634 76.7835 80.8287L76.2719 79.2412Z"
        fill="#EB9481" />
    <path
        d="M74.3149 78.8027C74.3149 78.8027 74.3149 78.823 74.3149 78.827C74.6577 78.954 74.9699 79.1515 75.2315 79.4067C75.4931 79.662 75.6981 79.9694 75.8334 80.3089C75.7846 80.2424 75.7219 80.1873 75.6496 80.1475C75.5774 80.1077 75.4974 80.084 75.4151 80.0782C75.3328 80.0724 75.2502 80.0846 75.1731 80.114C75.096 80.1433 75.0262 80.189 74.9686 80.248C74.9686 80.248 74.9686 80.2886 74.993 80.2846C75.1127 80.2309 75.2462 80.2157 75.3749 80.2412C75.5036 80.2666 75.6213 80.3314 75.7116 80.4267C75.8652 80.5878 76.0012 80.7647 76.1176 80.9545C76.1541 81.0154 76.2678 80.9545 76.2353 80.8976C76.1379 79.9679 75.2975 78.7864 74.3149 78.8027Z"
        fill="#263238" />
    <path
        d="M71.672 87.7629C66.5077 96.6706 58.7896 117.117 57.393 120.04C56.447 122.025 66.8243 127.259 67.2669 125.813C67.8272 123.966 75.0296 100.15 75.5006 89.525C75.7198 84.6042 73.3244 84.9128 71.672 87.7629Z"
        fill="#EB9481" />
    <path
        d="M63.0442 130.361C63.5923 129.882 63.8562 130.166 63.6085 131.432C63.3609 132.699 61.3552 137.522 63.0929 138.071C64.8306 138.619 67.5589 131.802 67.8106 129.662C68.0624 127.523 67.6726 123.978 67.6726 123.978C66.8728 125.204 64.6682 127.981 63.0442 130.361Z"
        fill="#EB9481" />
    <path
        d="M66.0891 137.807L53.0971 135.468C52.6911 135.436 52.4435 135.168 52.5125 134.867L53.7021 129.557C53.7671 129.4 53.8828 129.269 54.0306 129.185C54.1784 129.101 54.35 129.069 54.5181 129.094L67.5101 131.42C67.9161 131.457 68.1638 131.725 68.0948 132.021L66.9052 137.332C66.844 137.492 66.7296 137.627 66.5811 137.713C66.4326 137.8 66.259 137.833 66.0891 137.807Z"
        fill="#A6A6A6" />
    <path
        d="M66.2394 137.181L53.223 134.843C52.817 134.806 52.5734 134.538 52.6384 134.242L53.832 128.931C53.8924 128.771 54.006 128.636 54.1538 128.55C54.3017 128.464 54.4747 128.43 54.644 128.456L67.6604 130.795C68.0664 130.827 68.31 131.095 68.245 131.392L67.0635 136.706C67.0015 136.868 66.8857 137.003 66.7357 137.09C66.5856 137.176 66.4104 137.209 66.2394 137.181Z"
        fill="#C7C7C7" />
    <path
        d="M65.9958 135.497C65.6954 135.383 65.4112 135.497 65.3625 135.748C65.356 135.893 65.3974 136.035 65.4804 136.153C65.5635 136.272 65.6833 136.359 65.8213 136.402C66.1217 136.516 66.4059 136.402 66.4546 136.154C66.4621 136.009 66.421 135.866 66.3379 135.747C66.2549 135.628 66.1345 135.54 65.9958 135.497Z"
        fill="#263238" />
    <path
        d="M58.0872 119.106C55.4361 122.679 53.0894 126.885 53.0325 131.534C53.0153 132.05 53.1711 132.557 53.4751 132.975C53.4142 135.054 54.3764 135.712 54.3764 135.712C54.9123 137.664 56.0004 138.2 56.0004 138.2C56.0004 138.2 56.1547 139.877 57.3361 139.853C58.5176 139.828 59.1672 137.08 60.1781 135.074C62.5451 130.47 66.8487 125.241 67.6607 123.982L58.0872 119.106Z"
        fill="#EB9481" />
    <path
        d="M58.9315 129.159C58.2254 130.499 57.6109 131.885 57.0924 133.308C56.6203 134.904 56.2675 136.532 56.0368 138.18C56.0368 138.191 56.0325 138.201 56.0249 138.209C56.0173 138.217 56.0069 138.221 55.9962 138.221C55.9854 138.221 55.9751 138.217 55.9675 138.209C55.9598 138.201 55.9556 138.191 55.9556 138.18C56.0848 134.961 57.0929 131.838 58.8706 129.151C58.9112 129.065 58.9843 129.094 58.9315 129.159Z"
        fill="#263238" />
    <path
        d="M56.3616 127.328C55.7851 128.696 54.7863 131.104 54.425 135.716C54.425 135.716 54.4006 135.716 54.3965 135.716C54.2386 132.789 54.8964 129.875 56.2966 127.299C56.3413 127.218 56.4022 127.234 56.3616 127.328Z"
        fill="#263238" />
    <path
        d="M54.9648 126.37C54.0716 128.733 53.8036 130.336 53.4869 132.963H53.4585C53.5072 129.938 53.8645 128.842 54.8876 126.325C54.9242 126.252 54.9972 126.276 54.9648 126.37Z"
        fill="#263238" />
    <defs>
        <radialGradient id="paint0_radial_0_1" cx="0" cy="0" r="1" gradientUnits="userSpaceOnUse"
            gradientTransform="translate(134 130) rotate(90) scale(129 133.483)">
            <stop stop-color="#1877F2" />
            <stop offset="1" stop-color="#1877F2" stop-opacity="0" />
        </radialGradient>
    </defs>
</svg>
    