<svg width="91" height="91" viewBox="0 0 91 91" fill="none" xmlns="http://www.w3.org/2000/svg">
    <g clip-path="url(#clip0_1135_2696)">
        <path
            d="M45.5 91C70.629 91 91 70.629 91 45.5C91 20.371 70.629 0 45.5 0C20.371 0 0 20.371 0 45.5C0 70.629 20.371 91 45.5 91Z"
            fill="#1877F2" />
        <path
            d="M64.1862 32.0584C63.4345 31.3139 62.2157 31.3139 61.4638 32.0584L38.4011 54.8981L29.5362 46.1189C28.7845 45.3744 27.5657 45.3745 26.8139 46.1189C26.062 46.8634 26.062 48.0704 26.8139 48.8149L37.04 58.9419C37.7915 59.6863 39.0111 59.6858 39.7623 58.9419L64.1862 34.7544C64.938 34.01 64.9379 32.8029 64.1862 32.0584Z"
            fill="white" stroke="white" stroke-width="4.04444" />
    </g>
    <defs>
        <clipPath id="clip0_1135_2696">
            <rect width="91" height="91" fill="white" />
        </clipPath>
    </defs>
</svg>
    