<svg width="268" height="259" viewBox="0 0 268 259" fill="none" xmlns="http://www.w3.org/2000/svg">
    <ellipse cx="134" cy="129.5" rx="134" ry="129.5" fill="url(#paint0_radial_0_1)" />
    <path
        d="M143.245 145.851C143.236 145.201 142.035 145.09 142.049 145.793C142.449 166.596 142.589 188.952 143.075 194.873C143.084 194.969 143.111 195.063 143.155 195.149C143.199 195.235 143.26 195.312 143.334 195.374C143.408 195.437 143.494 195.484 143.586 195.514C143.678 195.543 143.776 195.554 143.872 195.546C143.969 195.538 144.063 195.511 144.149 195.466C144.235 195.422 144.311 195.361 144.374 195.287C144.436 195.213 144.483 195.127 144.513 195.035C144.542 194.943 144.553 194.846 144.545 194.749C144.525 179.798 143.443 160.381 143.245 145.851Z"
        fill="#FF6600" />
    <path
        d="M109.298 154.172C111.441 152.95 113.72 145.197 112.548 142.672C111.68 140.801 108.999 140.811 108.648 142.672C108.621 142.807 108.646 142.946 108.719 143.063C108.791 143.179 108.905 143.264 109.037 143.3C109.17 143.335 109.31 143.319 109.431 143.254C109.552 143.19 109.644 143.082 109.688 142.952C109.889 142.217 111.102 142.192 111.443 143.602C111.914 145.553 110.231 151.595 108.583 153.275C108.485 153.376 108.428 153.509 108.422 153.649C108.415 153.789 108.46 153.927 108.547 154.037C108.635 154.146 108.759 154.221 108.897 154.246C109.035 154.27 109.177 154.244 109.298 154.172Z"
        fill="#FF6600" />
    <path
        d="M79.8369 127.22C80.9535 132.557 81.606 137.982 81.787 143.432C81.241 151.598 81.9363 156.941 86.9158 162.542C87.0004 165.597 86.6692 168.086 86.6237 170.857C86.6137 171.461 87.5491 171.507 87.6511 170.915C88.0454 168.598 88.2323 166.251 88.2098 163.901C90.6932 166.384 91.8826 166.703 95.478 166.501C97.7593 166.373 100.613 165.89 102.16 164.076C102.226 166.027 102.426 169.114 103.09 170.798C103.285 171.292 104.046 171.039 104.052 170.564C104.058 170.089 103.35 162.88 103.519 162.34C108.069 156.061 108.765 150.334 107.881 142.663C108.095 141.194 109.447 128.224 109.37 122.68C109.293 117.135 103.746 114.137 105.059 119.598C101.543 112.76 96.8821 113.461 98.2926 118.961C94.1066 111.408 87.4172 115.022 89.3864 118.838C85.2004 115.145 81.6633 117.154 83.8418 121.757C78.7904 119.458 78.2762 120.523 79.8369 127.22ZM85.6855 132.147C89.7095 132.387 102.152 131.446 103.589 130.704C104.417 134.463 105.47 138.168 106.742 141.801C106.637 151.116 107.288 154.723 101.541 162.458C99.5393 165.147 98.036 164.705 95.1249 165.057C91.9772 165.439 91.2283 164.875 89.1244 162.731C82.3985 155.881 83.3195 151.416 82.9555 142.818C83.0073 142.74 85.6664 136.414 85.6664 132.144L85.6855 132.147Z"
        fill="black" />
    <path
        d="M77.2365 145.747C77.4731 148.184 78.536 151.916 80.1749 153.749C80.2612 153.832 80.3748 153.881 80.4945 153.887C80.6142 153.892 80.7319 153.854 80.8256 153.78C80.9194 153.705 80.9828 153.599 81.004 153.481C81.0252 153.363 81.0029 153.241 80.9411 153.138C80.1221 151.832 77.7761 146.371 78.6533 143.94C78.7204 143.764 78.8279 143.606 78.9671 143.479C79.1063 143.352 79.2733 143.26 79.4548 143.209C79.6362 143.159 79.827 143.151 80.0118 143.188C80.1967 143.224 80.3703 143.304 80.5188 143.42C81.013 143.784 81.721 143.076 81.2732 142.613C80.1467 141.453 76.7988 141.242 77.2365 145.747Z"
        fill="#FF6600" />
    <path
        d="M101.146 142.691C100.086 142.349 99.4636 144.919 100.366 145.214C101.433 145.562 102.322 143.071 101.146 142.691Z"
        fill="#FF6600" />
    <path
        d="M91.2973 155.973C94.7353 158.94 101.349 160.132 100.397 152.723C100.301 151.968 99.7475 152.007 99.5592 152.196C97.8238 154.146 95.5725 154.823 91.7969 154.549C90.491 154.454 90.4118 155.208 91.2973 155.973ZM99.3326 154.062C99.3908 158.282 95.4906 157.482 92.7078 155.726C95.0874 155.81 97.4079 155.602 99.3353 154.061L99.3326 154.062Z"
        fill="#FF6600" />
    <path
        d="M99.9176 138.427C101.101 138.576 102.223 139.038 103.168 139.766C104.052 140.553 104.468 139.435 103.954 138.648C103.471 137.992 102.833 137.464 102.097 137.112C101.362 136.76 100.55 136.594 99.7356 136.63C99.0067 136.673 98.812 138.206 99.9176 138.427Z"
        fill="#FF6600" />
    <path
        d="M98.7144 148.269C98.5852 147.847 97.8435 147.977 97.8626 148.341C97.9718 150.343 95.1508 151.275 92.662 149.991C92.2516 149.78 91.8302 150.454 92.1751 150.772C94.522 152.943 99.6863 151.44 98.7144 148.269Z"
        fill="#FF6600" />
    <path
        d="M89.6202 137.42C88.4044 137.579 86.397 138.847 85.9474 140.02C85.8845 140.175 85.8786 140.347 85.9307 140.506C85.9827 140.666 86.0895 140.801 86.232 140.889C86.3745 140.977 86.5435 141.012 86.7091 140.987C86.8747 140.962 87.0262 140.88 87.1368 140.754C87.8304 139.955 88.7923 139.437 89.8413 139.298C89.9755 139.298 90.1081 139.269 90.2304 139.214C90.3528 139.159 90.462 139.078 90.5511 138.978C90.6401 138.877 90.7069 138.759 90.7471 138.631C90.7873 138.503 90.8 138.368 90.7843 138.235C90.7686 138.102 90.7249 137.973 90.6561 137.858C90.5872 137.743 90.4948 137.643 90.3849 137.566C90.275 137.489 90.15 137.437 90.0182 137.411C89.8864 137.386 89.7508 137.389 89.6202 137.42Z"
        fill="#FF6600" />
    <path
        d="M89.9899 145.513C90.8881 145.249 90.211 142.621 89.1645 143.134C88.118 143.647 89.12 145.769 89.9899 145.513Z"
        fill="#FF6600" />
    <path
        d="M129.421 180.441L129.421 180.441C127.323 178.679 122.915 176.532 118.343 174.718C113.798 172.914 109.193 171.48 106.703 171.093C106.58 171.091 106.46 171.129 106.361 171.202C106.261 171.276 106.189 171.379 106.154 171.497C105.521 175.535 102.149 178.662 97.9557 179.419C93.7234 180.183 88.6893 178.539 84.6813 173.141C84.6537 173.104 84.6271 173.068 84.6012 173.033C84.4032 172.766 84.2522 172.563 84.1232 172.403C83.9745 172.22 83.8851 172.134 83.825 172.092C83.7852 172.064 83.7727 172.065 83.7532 172.065L83.7527 172.065C83.7059 172.067 83.6183 172.084 83.4328 172.154L83.4323 172.154C82.4935 172.507 81.126 172.991 79.5123 173.563C79.0143 173.739 78.4929 173.924 77.9535 174.115C75.6615 174.93 73.0349 175.873 70.4648 176.854C67.8934 177.835 65.3857 178.851 63.33 179.808C61.251 180.776 59.7044 181.654 58.9933 182.347C57.5752 183.729 56.1778 186.43 55.0423 189.359C53.9143 192.27 53.0782 195.317 52.7477 197.321L52.7476 197.321C52.747 197.325 52.7471 197.327 52.7471 197.327L52.7471 197.328L52.7471 197.328L129.421 180.441ZM129.421 180.441C131.056 181.812 132.909 184.353 134.547 187.255C136.18 190.148 137.569 193.343 138.3 195.983L138.3 195.983M129.421 180.441L138.3 195.983M138.3 195.983C138.321 196.061 138.309 196.104 138.301 196.123M138.3 195.983L138.301 196.123M138.301 196.123C138.292 196.143 138.28 196.154 138.272 196.159L138.301 196.123ZM138.782 195.849C137.294 190.473 133.151 182.916 129.743 180.058L137.781 196.317C138.118 196.999 138.984 196.577 138.782 195.849Z"
        fill="#FF6600" stroke="black" />
    <path
        d="M143.029 137.218C142.934 125.238 142.328 111.586 142.1 105.852C141.568 92.475 139.044 84.5088 124.173 84.5625C104.56 84.6326 79.6496 84.4715 63.5736 84.861C46.9315 85.265 45.025 93.5397 44.9813 107.841C44.8903 136.841 45.147 165.866 45.1761 194.873C45.1761 195.822 46.663 195.906 46.6585 194.945C46.5286 165.113 46.4486 135.277 46.4182 105.436C46.4137 93.1238 50.1238 86.4599 63.6773 86.2524C83.7382 85.9457 103.91 86.1323 123.991 86.0249C138.045 85.9494 140.121 93.1757 140.522 105.872C140.81 114.972 141.25 128.258 141.907 137.244C141.957 137.869 143.035 137.869 143.029 137.218Z"
        fill="#FF6600" />
    <path
        d="M69.5528 106.665C68.955 106.183 62.5322 106.386 60.9843 106.528C60.4128 106.581 59.3599 106.528 59.3599 107.308C59.3599 108.491 59.2443 115.383 59.4182 116.226C59.5383 116.812 60.3773 116.716 60.5293 116.226C60.8933 115.066 60.8678 109.154 60.8287 107.899C62.0053 107.899 68.9568 108.094 69.6111 107.658C69.9669 107.419 69.8258 106.911 69.5528 106.665Z"
        fill="black" />
    <path
        d="M131.003 162.779C130.735 162.132 129.703 162.272 129.703 162.915C129.703 166.094 129.949 169.273 130.073 172.452C127.232 172.582 124.93 172.435 121.785 172.731C121.134 172.792 121.265 173.787 121.876 173.836C122.324 173.873 127.174 174.063 129.676 173.921C131.185 173.835 131.382 173.739 131.347 172.101C131.298 169.78 131.433 163.817 131.003 162.779Z"
        fill="black" />
    <path
        d="M129.346 107.432C129.346 110.136 129.327 112.84 129.346 115.544C129.346 116.195 130.425 116.195 130.49 115.544C130.581 114.622 130.889 109.694 130.802 107.477C130.765 106.509 130.756 105.992 129.593 105.989C128.13 105.989 122.273 105.839 121.272 106.164C121.154 106.205 121.052 106.283 120.981 106.386C120.91 106.489 120.874 106.613 120.878 106.738C120.883 106.863 120.927 106.984 121.005 107.082C121.083 107.18 121.191 107.25 121.312 107.283C122.202 107.542 127.844 107.465 129.346 107.432Z"
        fill="black" />
    <path
        d="M69.1819 172.732C68.5349 172.336 62.245 172.517 61.0165 172.523C61.0165 171.47 61.4169 164.821 61.2049 164.229C61.164 164.114 61.0917 164.012 60.996 163.937C60.9004 163.861 60.7854 163.813 60.6641 163.8C60.5428 163.786 60.4201 163.807 60.3101 163.86C60.2001 163.913 60.1071 163.995 60.0419 164.098C59.6124 164.886 59.5514 169.884 59.6388 172.134C59.7016 173.765 59.8399 173.857 61.1275 173.902C63.4089 173.981 65.6775 173.954 67.9916 173.993C70.3058 174.032 69.3958 172.86 69.1819 172.732Z"
        fill="black" />
    <path
        d="M151.247 140.816C149.582 140.719 132.238 141.284 130.444 141.609C129.378 138.567 124.984 139.406 124.776 142.473C124.56 145.665 130.204 146.77 130.626 142.974C137.127 142.74 144.876 142.428 151.305 142.285C151.511 142.965 151.958 143.547 152.562 143.922C153.166 144.296 153.886 144.438 154.587 144.32C155.287 144.202 155.921 143.832 156.37 143.281C156.818 142.729 157.049 142.033 157.021 141.323C156.993 140.612 156.707 139.937 156.217 139.422C155.726 138.908 155.065 138.59 154.357 138.528C153.649 138.465 152.942 138.664 152.37 139.085C151.797 139.506 151.398 140.122 151.247 140.816ZM129.073 143.065C128.724 144.328 125.868 144.157 126.2 142.415C126.233 142.217 126.306 142.028 126.415 141.859C126.523 141.69 126.665 141.545 126.832 141.433C126.999 141.321 127.187 141.245 127.384 141.208C127.581 141.171 127.784 141.175 127.98 141.219C128.176 141.263 128.361 141.347 128.523 141.465C128.685 141.584 128.822 141.734 128.924 141.906C129.026 142.079 129.092 142.271 129.118 142.47C129.143 142.669 129.128 142.872 129.073 143.065ZM152.624 141.544C152.624 140.14 155.041 139.178 155.453 141.31C155.838 143.309 152.624 143.953 152.624 141.544Z"
        fill="#1877F2" />
    <path
        d="M91.584 97.409C93.4532 101.714 100.093 99.2218 98.0842 94.1594C96.3697 89.8324 89.4674 92.5333 91.584 97.409Z"
        fill="black" />
    <path
        d="M210.105 145.578C210.462 143.335 212.484 122.591 212.354 114.115C212.224 105.638 203.083 101.061 205.248 109.408C199.398 98.9286 191.72 99.9951 194.015 108.407C187.118 96.8547 176.088 102.38 179.337 108.218C172.439 102.569 166.622 105.618 170.237 112.671C161.916 109.154 161.103 110.786 163.678 121.018C166.252 131.25 166.882 145.168 167.065 148.002C166.284 161.004 167.097 168.59 175.918 178.517C176.289 185.122 176.348 188.463 175.703 192.552C175.722 192.686 175.781 192.81 175.873 192.909C175.965 193.007 176.085 193.075 176.217 193.102C176.35 193.129 176.487 193.114 176.61 193.06C176.734 193.006 176.837 192.914 176.906 192.799C177.765 190.056 177.797 182.808 177.374 180.059C181.275 183.881 185.611 186.107 192.047 185.493C196.376 185.081 199.464 181.86 201.895 178.537C201.895 181.105 202.231 190.731 203.156 192.975C203.357 193.463 204.266 193.372 204.184 192.845C203.26 186.921 203.299 179.902 203.189 176.684C206.673 171.191 212.12 163.974 210.105 145.578ZM199.053 179.752C196.404 182.869 194.285 184.082 190.024 184.166C183.707 184.291 178.805 179.881 175.384 175.513C167.585 165.553 168.422 159.762 168.318 148.213C169.403 146.263 173.252 134.393 173.252 128.557C179.877 128.934 200.38 127.491 202.746 126.36C203.76 131.755 207.823 143.398 208.701 145.719C209.942 159.424 208.21 168.982 199.053 179.752Z"
        fill="black" />
    <path
        d="M203.759 149.855C202.775 151.755 206.534 152.767 206.522 150.376C206.515 148.75 204.379 148.66 203.759 149.855Z"
        fill="#FF6600" />
    <path
        d="M196.856 171.191C198.335 172.871 200.884 170.406 199.066 168.909C198.755 168.669 198.367 168.552 197.975 168.581C197.583 168.609 197.216 168.781 196.943 169.063C196.669 169.345 196.509 169.718 196.494 170.11C196.478 170.503 196.607 170.887 196.856 171.191Z"
        fill="#FF6600" />
    <path
        d="M172.12 149.205C171.769 149.306 171.466 149.53 171.269 149.838C171.072 150.145 170.993 150.514 171.048 150.875C171.103 151.236 171.288 151.565 171.568 151.799C171.848 152.034 172.204 152.159 172.569 152.15C174.858 152.072 174.065 148.624 172.12 149.205Z"
        fill="#FF6600" />
    <path
        d="M165.133 147.914C165.616 148.289 166.244 147.589 165.854 147.128C164.794 145.874 162.9 145.176 161.564 146.478C159.562 148.425 161.351 158.931 164.684 162.418C165.176 162.933 166.256 162.333 165.782 161.768C163.8 159.396 161.897 154.858 162.273 148.896C162.407 146.748 163.689 146.792 165.133 147.914Z"
        fill="#FF6600" />
    <path
        d="M217.028 146.059C215.742 143.802 212.705 145.208 211.425 146.917C211.321 147.033 211.268 147.186 211.277 147.341C211.286 147.497 211.357 147.642 211.473 147.746C211.589 147.849 211.742 147.902 211.897 147.893C212.053 147.884 212.198 147.814 212.302 147.697C214.252 145.747 216.165 145.87 216.352 148.289C216.797 154.055 214.392 159.586 210.859 163.982C210.467 164.468 211.047 165.229 211.593 164.846C215.434 162.153 219.761 150.853 217.028 146.059Z"
        fill="#FF6600" />
    <path
        d="M187.137 153.262C186.49 154.278 181.04 167.105 180.448 168.863C180.41 168.981 180.417 169.108 180.468 169.221C180.518 169.333 180.609 169.423 180.722 169.473C180.835 169.523 180.962 169.53 181.079 169.492C181.197 169.453 181.296 169.373 181.358 169.266C183.087 165.86 187.144 157.359 188.086 153.665C188.098 153.55 188.073 153.435 188.014 153.336C187.955 153.236 187.867 153.159 187.76 153.114C187.654 153.068 187.536 153.059 187.424 153.085C187.312 153.112 187.212 153.174 187.137 153.262Z"
        fill="#FF6600" />
    <path
        d="M203.649 153.145C202.361 157.465 199.82 163.186 198.735 167.225C198.588 167.771 199.482 168.044 199.73 167.492C201.702 162.92 203.368 158.223 204.716 153.43C204.895 152.817 203.833 152.528 203.649 153.145Z"
        fill="#FF6600" />
    <path
        d="M190.889 150.382C190.553 147.997 186.147 148.869 187.768 151.357C188.612 152.651 191.101 151.891 190.889 150.382Z"
        fill="#FF6600" />
    <path
        d="M199.222 137.218C200.437 140.972 202.009 144.601 203.916 148.055C204.237 148.629 205.063 148.118 204.787 147.541C203.084 144.096 201.603 140.546 200.353 136.912C200.112 136.182 198.985 136.502 199.222 137.218Z"
        fill="#FF6600" />
    <path
        d="M182.549 171.671C186.79 171.223 190.838 171.507 194.9 170.982C195.641 170.891 195.55 169.757 194.822 169.851C191.144 170.328 185.347 170.139 182.334 170.709C181.702 170.83 181.911 171.74 182.549 171.671Z"
        fill="#FF6600" />
    <path
        d="M196.14 173.472C195.876 174.245 195.084 175.816 195.867 176.073C196.748 176.363 197.404 173.284 197.382 173.154C197.275 172.515 196.536 172.319 196.14 173.472Z"
        fill="#FF6600" />
    <path
        d="M201.745 149.771C199.626 149.708 195.245 149.916 192.911 150.09C191.994 150.158 191.883 151.052 192.872 151.162C195.986 151.282 199.106 151.127 202.194 150.7C202.893 150.557 202.583 149.796 201.745 149.771Z"
        fill="#FF6600" />
    <path
        d="M181.176 171.255C180.64 169.364 177.753 170.013 178.043 171.822C178.371 173.862 181.83 173.562 181.176 171.255Z"
        fill="#FF6600" />
    <path
        d="M182.703 175.573C182.279 175.013 181.442 173.492 180.831 173.915C180.221 174.337 181.382 175.625 181.897 176.294C182.306 176.826 183.112 176.111 182.703 175.573Z"
        fill="#FF6600" />
    <path
        d="M178.732 168.356C177.1 163.526 175.365 158.901 173.857 154.003C173.658 153.354 172.562 153.695 172.745 154.334C174.119 159.249 175.833 164.063 177.874 168.74C177.928 168.849 178.022 168.933 178.136 168.973C178.251 169.014 178.376 169.01 178.487 168.96C178.598 168.91 178.685 168.82 178.731 168.707C178.777 168.595 178.777 168.469 178.732 168.356Z"
        fill="#FF6600" />
    <path
        d="M192.377 177.523C190.27 177.654 188.314 177.724 186.214 177.815C186.083 177.81 185.955 177.857 185.859 177.946C185.763 178.035 185.706 178.158 185.701 178.289C185.695 178.42 185.742 178.548 185.831 178.644C185.92 178.741 186.044 178.798 186.175 178.803C188.273 179.032 190.391 178.978 192.474 178.64C193.091 178.542 193.027 177.482 192.377 177.523Z"
        fill="#FF6600" />
    <path
        d="M182.522 178.406C182.964 179.746 185.284 179.612 185.123 178.069C185.077 177.725 184.896 177.413 184.621 177.202C184.346 176.991 183.998 176.897 183.654 176.942C183.31 176.987 182.998 177.166 182.786 177.44C182.573 177.715 182.479 178.062 182.522 178.406Z"
        fill="#FF6600" />
    <path
        d="M175 151.292C178.444 151.407 181.9 151.006 185.402 151.149C185.48 151.154 185.559 151.144 185.633 151.118C185.708 151.093 185.777 151.053 185.836 151.001C185.895 150.949 185.943 150.886 185.978 150.816C186.013 150.745 186.033 150.668 186.038 150.59C186.043 150.511 186.033 150.433 186.007 150.358C185.982 150.284 185.942 150.215 185.89 150.156C185.838 150.097 185.775 150.048 185.705 150.014C185.634 149.979 185.557 149.958 185.479 149.953C181.956 149.704 178.417 149.808 174.916 150.264C174.793 150.292 174.685 150.363 174.611 150.464C174.536 150.565 174.501 150.69 174.512 150.815C174.522 150.94 174.577 151.057 174.667 151.145C174.757 151.232 174.875 151.285 175 151.292Z"
        fill="#FF6600" />
    <path
        d="M182.671 133.76C187.081 134.299 191.528 134.471 195.966 134.273C196.745 134.228 196.616 133.09 195.868 133.077C191.571 133.01 186.923 132.713 182.724 132.765C182.152 132.772 182.152 133.664 182.671 133.76Z"
        fill="#FF6600" />
    <path
        d="M174.047 148.005C175.459 144.661 177.589 139.762 178.642 136.778C178.696 136.638 178.694 136.482 178.636 136.344C178.577 136.205 178.467 136.095 178.329 136.036C178.191 135.977 178.035 135.974 177.895 136.027C177.754 136.081 177.64 136.187 177.576 136.323C175.806 140.018 174.286 143.827 173.026 147.726C172.884 148.333 173.825 148.524 174.047 148.005Z"
        fill="#FF6600" />
    <path
        d="M193.937 178.985C194.166 179.206 194.469 179.337 194.788 179.353C195.106 179.369 195.42 179.27 195.671 179.072C195.923 178.875 196.094 178.594 196.154 178.28C196.214 177.967 196.158 177.642 195.998 177.366C194.948 175.749 192.638 177.69 193.937 178.985Z"
        fill="#FF6600" />
    <path
        d="M199.879 133.012C199.723 132.674 199.444 132.409 199.099 132.271C198.754 132.133 198.369 132.132 198.023 132.268C197.678 132.405 197.397 132.668 197.239 133.005C197.081 133.341 197.058 133.725 197.175 134.078C197.768 135.952 200.703 134.775 199.879 133.012Z"
        fill="#FF6600" />
    <path
        d="M181.196 132.668C180.128 130.761 177.413 133.012 178.732 134.293C178.971 134.558 179.298 134.728 179.651 134.772C180.005 134.817 180.364 134.734 180.661 134.538C180.959 134.341 181.177 134.045 181.275 133.702C181.373 133.359 181.345 132.992 181.196 132.668Z"
        fill="#FF6600" />
    <path
        d="M196.745 167.297C195.089 162.457 193.119 157.729 190.849 153.145C190.781 153.04 190.676 152.964 190.555 152.931C190.435 152.898 190.306 152.91 190.193 152.965C190.081 153.02 189.992 153.114 189.944 153.23C189.896 153.346 189.892 153.475 189.933 153.593C191.526 157.188 194.125 164.792 195.783 167.622C196.074 168.116 196.944 167.881 196.745 167.297Z"
        fill="#FF6600" />
    <defs>
        <radialGradient id="paint0_radial_0_1" cx="0" cy="0" r="1" gradientUnits="userSpaceOnUse"
            gradientTransform="translate(134 130) rotate(90) scale(129 133.483)">
            <stop stop-color="#1877F2" stop-opacity="0.4" />
            <stop offset="1" stop-color="#1877F2" stop-opacity="0" />
        </radialGradient>
    </defs>
</svg>
    