<svg width="70" height="70" viewBox="0 0 70 70" fill="none" xmlns="http://www.w3.org/2000/svg">
    <path d="M20.4167 8.75H14.5833C11.3617 8.75 8.75 11.3617 8.75 14.5833V20.4167" stroke="#1877F2"
        stroke-width="5.5625" stroke-linecap="round" stroke-linejoin="round" />
    <path d="M49.5835 8.75H55.4168C58.6386 8.75 61.2502 11.3617 61.2502 14.5833V20.4167"
        stroke="#1877F2" stroke-width="5.5625" stroke-linecap="round" stroke-linejoin="round" />
    <path d="M46.6665 23.3333V29.1666" stroke="#1877F2" stroke-width="5.5625" stroke-linecap="round"
        stroke-linejoin="round" />
    <path d="M23.3335 23.3333V29.1666" stroke="#1877F2" stroke-width="5.5625" stroke-linecap="round"
        stroke-linejoin="round" />
    <path
        d="M26.25 46.6667C26.25 46.6667 29.1667 49.5834 35 49.5834C40.8333 49.5834 43.75 46.6667 43.75 46.6667"
        stroke="#1877F2" stroke-width="5.5625" stroke-linecap="round" stroke-linejoin="round" />
    <path d="M35.0002 23.3333V37.9166H32.0835" stroke="#1877F2" stroke-width="5.5625"
        stroke-linecap="round" stroke-linejoin="round" />
    <path d="M20.4167 61.2499H14.5833C11.3617 61.2499 8.75 58.6383 8.75 55.4166V49.5833"
        stroke="#1877F2" stroke-width="5.5625" stroke-linecap="round" stroke-linejoin="round" />
    <path d="M49.5835 61.2499H55.4168C58.6386 61.2499 61.2502 58.6383 61.2502 55.4166V49.5833"
        stroke="#1877F2" stroke-width="5.5625" stroke-linecap="round" stroke-linejoin="round" />
</svg>
    