<svg width="24" height="24" viewBox="0 0 24 24" fill="none" xmlns="http://www.w3.org/2000/svg">
    <path
        d="M23.7062 9.53949H22.7685V9.4906H12.2921V14.2022H18.8707C17.911 16.945 15.332 18.9138 12.2921 18.9138C8.43507 18.9138 5.30787 15.7494 5.30787 11.8464C5.30787 7.94343 8.43507 4.77899 12.2921 4.77899C14.0725 4.77899 15.6923 5.45864 16.9256 6.56882L20.2181 3.23712C18.1391 1.2765 15.3582 0.0673828 12.2921 0.0673828C5.8637 0.0673828 0.651688 5.34144 0.651688 11.8464C0.651688 18.3514 5.8637 23.6254 12.2921 23.6254C18.7206 23.6254 23.9326 18.3514 23.9326 11.8464C23.9326 11.0566 23.8523 10.2857 23.7062 9.53949Z"
        fill="#FFC107" />
    <path
        d="M1.99384 6.36386L5.81831 9.20202C6.85315 6.60945 9.35934 4.77899 12.2921 4.77899C14.0726 4.77899 15.6923 5.45864 16.9256 6.56882L20.2181 3.23712C18.1391 1.2765 15.3582 0.0673828 12.2921 0.0673828C7.82105 0.0673828 3.94362 2.62166 1.99384 6.36386Z"
        fill="#FF3D00" />
    <path
        d="M12.2921 23.6254C15.2989 23.6254 18.0309 22.4611 20.0965 20.5676L16.4938 17.4827C15.3251 18.3785 13.8723 18.9138 12.2921 18.9138C9.26447 18.9138 6.69367 16.9603 5.72519 14.234L1.92924 17.1935C3.85573 21.0081 7.76809 23.6254 12.2921 23.6254Z"
        fill="#4CAF50" />
    <path
        d="M23.7062 9.53948H22.7686V9.4906H12.2922V14.2022H18.8708C18.4098 15.5197 17.5723 16.6558 16.492 17.4833L16.4938 17.4821L20.0965 20.567C19.8416 20.8014 23.9326 17.7359 23.9326 11.8464C23.9326 11.0566 23.8523 10.2857 23.7062 9.53948Z"
        fill="#1976D2" />
</svg>