<svg width="28" height="25" viewBox="0 0 28 25" fill="none" xmlns="http://www.w3.org/2000/svg">
    <path fill-rule="evenodd" clip-rule="evenodd"
        d="M24.8445 6.14746C26.2772 8.07953 27.1228 10.4708 27.1228 13.0602C27.1228 19.4812 21.9188 24.6853 15.4978 24.6853C13.483 24.6853 11.586 24.1734 9.93498 23.2726C9.62133 23.0995 5.80487 25.1871 5.50879 24.9864C6.02568 24.6401 10.0429 21.9779 10.5422 21.5714C11.9975 22.422 13.6912 22.9088 15.4978 22.9088C20.9352 22.9088 25.3463 18.5001 25.3463 13.0602C25.3463 11.2486 24.8571 9.55241 24.0039 8.09458C24.285 7.44471 24.566 6.79734 24.8445 6.14746Z"
        fill="#1877F2" />
    <path fill-rule="evenodd" clip-rule="evenodd"
        d="M14.419 0C17.2318 0 19.8138 1.00116 21.8261 2.66475C21.2139 2.94577 20.6017 3.2268 19.9894 3.50532C18.4061 2.41634 16.4866 1.77901 14.419 1.77901C8.97915 1.77901 4.57052 6.18763 4.57052 11.625C4.57052 12.448 4.67089 13.2459 4.86159 14.0087L0.347577 17.3359C0.234664 16.9871 3.13276 14.4554 3.05498 14.0915C2.88185 13.2986 2.79151 12.4731 2.79151 11.625C2.79151 5.20654 7.99806 0 14.419 0Z"
        fill="#1877F2" />
    <path fill-rule="evenodd" clip-rule="evenodd"
        d="M25.1205 2.05756C24.5158 2.19808 23.9036 2.59202 23.3415 2.85548C22.2651 3.35982 21.1836 3.84911 20.1022 4.34593C16.76 5.87904 13.3726 7.34189 10.0655 8.95529C8.79081 9.57756 7.47098 10.117 6.1913 10.7343C6.00311 10.8246 4.69834 11.3365 5.37582 11.6326C5.92784 11.8735 7.09962 11.6075 7.71688 11.6075C8.65782 11.6075 9.85721 11.7229 10.7655 11.4845C11.5635 11.2738 12.3388 10.7042 13.0514 10.3002C14.3411 9.57255 15.6308 8.84488 16.9256 8.13228C17.9468 7.57273 18.963 6.99813 19.9767 6.42353C20.1749 6.31313 20.8022 5.82635 21.0256 6.0045C21.2514 6.18767 20.7872 6.50633 20.6743 6.6067C20.0896 7.12359 19.5477 7.69066 18.9605 8.20254C17.0084 9.89874 15.0863 11.7003 13.2421 13.512C12.8331 13.9134 12.404 14.3149 11.9724 14.6913C11.8194 14.8243 11.4806 15.04 11.4857 15.2734C11.4932 15.6347 12.2811 15.2307 12.4166 15.173C13.1769 14.8493 14.5243 13.8908 15.0638 14.8468C15.7337 16.0287 16.3986 17.2155 17.0636 18.4023C17.2166 18.6784 17.5002 19.4913 17.879 19.4913C18.2052 19.4913 18.3583 18.8289 18.4612 18.593C18.8802 17.617 19.3193 16.6484 19.7383 15.6724C21.2213 12.2348 22.7569 8.8223 24.2323 5.38222C24.5961 4.53161 24.975 3.69104 25.3388 2.84042C25.4593 2.55438 25.7127 1.91705 25.1205 2.05756Z"
        fill="#FF6600" />
    <path fill-rule="evenodd" clip-rule="evenodd"
        d="M10.8308 13.9309C9.94008 14.1116 8.98659 15.2859 8.29155 15.8504C6.27417 17.4864 4.25679 19.1274 2.25698 20.786C1.60459 21.328 0.91457 21.8373 0.289785 22.4069C0.0765048 22.6026 -0.176922 22.9915 0.174363 23.2048C0.495537 23.398 0.869405 23.0718 1.11279 22.8962C1.87308 22.3542 2.63586 21.8172 3.39865 21.2828C5.26799 19.9755 7.12227 18.6507 8.9891 17.3434C9.55868 16.9469 10.8258 16.3799 11.1445 15.7626C11.3603 15.3461 10.8936 14.3876 10.8308 13.9309Z"
        fill="#FF6600" />
    <path fill-rule="evenodd" clip-rule="evenodd"
        d="M7.12739 22.698C8.97916 21.8173 10.7456 20.0609 12.359 18.7912C12.6099 18.5955 14.2259 17.6169 13.443 17.2531C12.9763 17.0373 12.2009 17.9682 11.8923 18.2342L8.22139 21.3807C7.83749 21.7094 7.0471 22.1385 7.12739 22.698Z"
        fill="#FF6600" />
    <path fill-rule="evenodd" clip-rule="evenodd"
        d="M1.00741 18.2995C2.83911 17.5618 4.63819 15.9785 6.26414 14.8544C6.51506 14.6787 8.12344 13.8331 7.39327 13.4367C6.95918 13.2033 6.16126 14.0514 5.84511 14.2923L2.13403 17.0976C1.74762 17.3912 0.964756 17.7575 1.00741 18.2995Z"
        fill="#FF6600" />
</svg>
    