<svg width="40" height="26" viewBox="0 0 40 26" fill="none" xmlns="http://www.w3.org/2000/svg">
    <path
        d="M27.295 25.0467C34.1692 25.0467 39.7418 19.4398 39.7418 12.5233C39.7418 5.60689 34.1692 0 27.295 0C20.4208 0 14.8482 5.60689 14.8482 12.5233C14.8482 19.4398 20.4208 25.0467 27.295 25.0467Z"
        fill="#F99600" />
    <path
        d="M13.2924 25.0467C20.1665 25.0467 25.7391 19.4398 25.7391 12.5233C25.7391 5.60689 20.1665 0 13.2924 0C6.41819 0 0.845581 5.60689 0.845581 12.5233C0.845581 19.4398 6.41819 25.0467 13.2924 25.0467Z"
        fill="#EC000A" />
    <path fill-rule="evenodd" clip-rule="evenodd"
        d="M20.2937 22.8789C17.0065 20.6248 14.8482 16.8276 14.8482 12.5232C14.8482 8.21883 17.0065 4.42164 20.2937 2.16748C23.5808 4.42164 25.7391 8.21883 25.7391 12.5232C25.7391 16.8276 23.5808 20.6248 20.2937 22.8789Z"
        fill="#FF5300" />
</svg>
    