<svg width="33" height="33" viewBox="0 0 33 33" fill="none" xmlns="http://www.w3.org/2000/svg">
    <path fill-rule="evenodd" clip-rule="evenodd"
        d="M7.17907 7.18921H13.968V13.9353H7.17907V7.18921ZM9.5981 3.9853e-06H6.20769C5.39765 -0.000919994 4.5955 0.158831 3.84785 0.469975C3.09439 0.781456 2.40961 1.23769 1.83244 1.81275C1.25643 2.38892 0.799319 3.07233 0.487043 3.82422C0.167997 4.57438 0.00240793 5.38062 7.68368e-06 6.19556V10.377H2.7527V6.19556C2.75553 5.7436 2.84694 5.29656 3.02178 4.87964C3.19338 4.46073 3.44675 4.08005 3.76713 3.75977C4.41476 3.11452 5.29259 2.75229 6.20769 2.75269H9.5981V3.9853e-06ZM26.7842 3.9853e-06H24.5697V2.74732H26.7842C27.2371 2.75042 27.6849 2.84164 28.1027 3.01587C28.521 3.1899 28.9019 3.44243 29.2248 3.75977L29.319 3.85645C29.597 4.15742 29.8201 4.50462 29.9782 4.88233C30.1543 5.29794 30.2458 5.74434 30.2473 6.19556V10.377H33V6.19556C33.0007 4.60013 32.3814 3.06661 31.2725 1.91748L31.1729 1.81812C30.5956 1.24323 29.9109 0.787012 29.1575 0.475346C28.406 0.160957 27.5991 -0.000643005 26.7842 3.9853e-06ZM32.9919 26.8044V22.1611H30.2392V26.8044C30.2377 27.2557 30.1462 27.7021 29.9702 28.1177C29.7939 28.536 29.538 28.9163 29.2167 29.2376C28.8973 29.5585 28.5175 29.8134 28.0992 29.9876C27.6808 30.1618 27.2322 30.2519 26.7789 30.2527H24.5697V33H26.7842C27.599 32.9994 28.4056 32.8383 29.1578 32.5258C29.91 32.2133 30.593 31.7557 31.1676 31.1792C31.7426 30.6022 32.1996 29.919 32.513 29.1677C32.8239 28.4185 32.9839 27.6154 32.9839 26.8044H32.9919ZM6.20769 33H9.5981V30.2527H6.20769C5.75394 30.2523 5.30475 30.1624 4.88592 29.9882C4.46709 29.814 4.08688 29.5589 3.76713 29.2376L3.69717 29.1731C3.39549 28.8557 3.15715 28.4838 2.99487 28.0774C2.83247 27.6726 2.74935 27.2405 2.75001 26.8044V22.1611H7.68368e-06V26.8044C-0.00124786 27.5934 0.151378 28.3752 0.449372 29.106C0.746367 29.8437 1.1841 30.5168 1.73827 31.0879L1.82168 31.1819C2.39995 31.7569 3.08559 32.2131 3.83978 32.5247C4.59019 32.836 5.39501 32.9958 6.20769 32.9946V33ZM24.1069 24.1108H25.8317V25.8108H24.1069V24.1108ZM20.7811 24.1108H22.5139V25.7222H19.0509V22.4163H20.7192V20.7378H22.4251V17.3916H24.1634V19.0352H25.8102V20.7351H24.1634V22.4351H20.7811V24.1082V24.1108ZM15.6443 20.7109H17.3207V19.011H15.7062V17.311H17.3207V15.6111H15.6712V17.311H13.9384V15.6111H15.6416V10.5623H17.3718V15.6084H19.0482V17.3084H20.6977V15.6084H22.4278V17.3084H20.7811V19.0083H19.0509V22.3545H17.3745V25.7302H15.6443V20.7109ZM24.08 15.6084H25.8102V17.3084H24.08V15.6084ZM10.5614 15.6084H12.2916V17.3084H10.5614V15.6084ZM7.17907 15.6084H8.90925V17.3084H7.17907V15.6084ZM15.6443 7.18921H17.3745V8.88916H15.6443V7.18921ZM7.15216 19.0352H13.9384V25.7813H7.15216V19.0352ZM8.80162 20.6787H12.2997V24.1458H8.80162V20.6787ZM19.0267 7.1919H25.8102V13.9353H19.024V7.18921L19.0267 7.1919ZM20.6761 8.83008H24.1742V12.2971H20.6761V8.8274V8.83008ZM8.8366 8.83008H12.3346V12.2971H8.8366V8.8274V8.83008Z"
        fill="#F5F2F2" />
</svg>
    