<svg width="35" height="23" viewBox="0 0 35 23" fill="none" xmlns="http://www.w3.org/2000/svg">
    <path fill-rule="evenodd" clip-rule="evenodd"
        d="M4.09022 3.85859V18.9249H17.3977C17.4119 18.8871 17.429 18.8492 17.4461 18.8113L17.4717 18.7518L18.4117 16.5871H9.18591C9.18591 15.18 8.11778 14.1869 6.83033 14.1978V8.24482C7.44382 8.23063 8.02678 7.98765 8.45318 7.56839C8.87959 7.14914 9.11517 6.5873 9.109 6.00435H26.4554C26.4554 7.41412 27.5264 8.40447 28.8195 8.39635V10.2282C28.9705 10.1281 29.1044 10.0226 29.2582 9.91706C30.2785 9.18371 31.074 8.20469 31.5625 7.08129L31.5397 3.85588L4.09022 3.85859ZM19.9897 19.7232L23.5387 11.5731L24.9116 14.4142C29.2525 13.6025 33.2829 10.9264 34.3653 7.28153C36.6439 13.0315 32.4113 18.0266 27.646 20.0858L29.0531 23L19.9897 19.7232ZM20.9837 9.74118C20.6526 9.14465 20.1438 8.65399 19.5209 8.3304C18.8981 8.00682 18.1887 7.86464 17.4813 7.92161C16.7739 7.97858 16.0999 8.23218 15.5432 8.65076C14.9866 9.06934 14.572 9.63437 14.3513 10.2753C14.1305 10.9163 14.1134 11.6049 14.3019 12.2551C14.4904 12.9052 14.8764 13.4883 15.4115 13.9315C15.9466 14.3746 16.6073 14.6583 17.311 14.747C18.0148 14.8358 18.7304 14.7257 19.3687 14.4305L20.998 10.6909C21.0625 10.5425 21.1416 10.4003 21.2344 10.2661C21.1731 10.0793 21.094 9.89811 20.998 9.72494L20.9837 9.74118ZM0 0V14.0354H1.88845V3.81259C1.88383 3.58222 1.92986 3.35347 2.02361 3.14096C2.11735 2.92845 2.25675 2.73687 2.43288 2.57846C2.60901 2.42005 2.818 2.29831 3.04649 2.221C3.27498 2.1437 3.51793 2.11255 3.75981 2.12953H26.0082L25.9911 0H0Z"
        fill="#F5F2F2" />
</svg>
    