<svg width="39" height="20" viewBox="0 0 39 20" fill="none" xmlns="http://www.w3.org/2000/svg">
    <path fill-rule="evenodd" clip-rule="evenodd"
        d="M3.83398 4.08094V20H29.6626L29.6213 14.2833C28.7367 14.2866 27.8564 14.4147 27.0029 14.6642V15.1743C26.4254 15.1886 25.8766 15.4468 25.4759 15.8926C25.0753 16.3385 24.8552 16.9359 24.8638 17.5548H8.60742C8.60742 16.0687 7.60449 15.0179 6.38574 15.0281V8.7162C6.9638 8.7028 7.51345 8.445 7.91479 7.99903C8.31613 7.55306 8.53659 6.95512 8.52808 6.33566H22.7024C22.8452 6.22683 22.9817 6.12141 23.1055 5.99558C23.9259 5.24794 24.8248 4.60539 25.7842 4.08094H3.83398ZM39 8.42034L32.5063 15.3239L32.5381 11.8551C28.4756 10.9131 23.8862 12.0218 21.4297 15.3137C21.8994 8.50195 27.6409 5.10117 32.5952 4.93113L32.6238 1.39092L39 8.41694V8.42034ZM19.6777 10.2908C19.3658 9.65563 18.885 9.13389 18.2963 8.79153C17.7076 8.44917 17.0374 8.30156 16.3704 8.36738C15.7034 8.4332 15.0696 8.70949 14.5491 9.1613C14.0287 9.61311 13.645 10.2202 13.4465 10.9057C13.2481 11.5912 13.2438 12.3243 13.4342 13.0124C13.6247 13.7005 14.0013 14.3127 14.5164 14.7714C15.0316 15.2301 15.6621 15.5149 16.3283 15.5896C16.9945 15.6644 17.6664 15.5257 18.259 15.1913C19.0535 14.7429 19.6493 13.9748 19.9154 13.0558C20.1814 12.1368 20.0959 11.1422 19.6777 10.2908ZM0 0V14.8308H1.76782V4.02993C1.76367 3.78636 1.80698 3.54455 1.89499 3.31993C1.983 3.09532 2.11377 2.89285 2.27895 2.72546C2.44413 2.55807 2.64008 2.42945 2.85428 2.34781C3.06848 2.26617 3.29622 2.2333 3.52295 2.25132H24.3687V0H0Z"
        fill="#F5F2F2" />
</svg>
    