<svg width="261" height="246" viewBox="0 0 261 246" fill="none" xmlns="http://www.w3.org/2000/svg">
    <g clip-path="url(#clip0_942_1568)">
        <path
            d="M136 210C178.526 210 213 175.526 213 133C213 90.4741 178.526 56 136 56C93.4741 56 59 90.4741 59 133C59 175.526 93.4741 210 136 210Z"
            fill="#1877F2" />
        <path
            d="M167.624 110.253C166.351 108.993 164.289 108.993 163.016 110.253L123.987 148.905L108.985 134.048C107.713 132.788 105.65 132.788 104.378 134.048C103.106 135.307 103.106 137.35 104.378 138.61L121.684 155.748C122.956 157.008 125.02 157.007 126.291 155.748L167.624 114.815C168.896 113.555 168.896 111.513 167.624 110.253Z"
            fill="white" stroke="white" stroke-width="6.84444" />
    </g>
    <path
        d="M202.579 44.3767L203.933 47.2444C204.027 47.4438 204.209 47.582 204.419 47.614L207.446 48.0738C207.976 48.1545 208.188 48.8355 207.804 49.2263L205.614 51.4585C205.462 51.6137 205.392 51.8375 205.428 52.0565L205.945 55.2085C206.036 55.7605 205.482 56.1814 205.008 55.9209L202.301 54.4329C202.113 54.3295 201.887 54.3295 201.699 54.4329L198.992 55.9209C198.518 56.1816 197.964 55.7605 198.055 55.2085L198.572 52.0565C198.608 51.8375 198.538 51.6137 198.386 51.4585L196.196 49.2263C195.812 48.8353 196.024 48.1542 196.554 48.0738L199.581 47.614C199.791 47.582 199.973 47.4438 200.067 47.2444L201.421 44.3767C201.657 43.8744 202.342 43.8744 202.579 44.3767Z"
        fill="#FF6600" />
    <path
        d="M75.5794 31.3767L76.9328 34.2444C77.0269 34.4438 77.2089 34.582 77.4194 34.614L80.446 35.0738C80.9761 35.1545 81.1876 35.8355 80.8042 36.2263L78.6142 38.4585C78.462 38.6137 78.3924 38.8375 78.4284 39.0565L78.9453 42.2085C79.0359 42.7605 78.4817 43.1814 78.0076 42.9209L75.3008 41.4329C75.1125 41.3295 74.8875 41.3295 74.6992 41.4329L71.9924 42.9209C71.5183 43.1816 70.9641 42.7605 71.0547 42.2085L71.5716 39.0565C71.6076 38.8375 71.538 38.6137 71.3858 38.4585L69.1958 36.2263C68.8124 35.8353 69.0239 35.1542 69.554 35.0738L72.5806 34.614C72.7911 34.582 72.9731 34.4438 73.0672 34.2444L74.4206 31.3767C74.6574 30.8744 75.3423 30.8744 75.5794 31.3767Z"
        fill="#FF6600" />
    <path
        d="M6.57935 121.377L7.9328 124.244C8.02692 124.444 8.2089 124.582 8.41941 124.614L11.446 125.074C11.9761 125.154 12.1876 125.836 11.8042 126.226L9.61416 128.458C9.46197 128.614 9.39238 128.837 9.42843 129.057L9.94532 132.208C10.0359 132.76 9.48174 133.181 9.00765 132.921L6.30075 131.433C6.11252 131.33 5.88748 131.33 5.69925 131.433L2.99235 132.921C2.51826 133.182 1.96406 132.76 2.05468 132.208L2.57157 129.057C2.60762 128.837 2.53803 128.614 2.38584 128.458L0.195843 126.226C-0.187638 125.835 0.0238776 125.154 0.554043 125.074L3.58059 124.614C3.7911 124.582 3.97308 124.444 4.0672 124.244L5.42065 121.377C5.65745 120.874 6.3423 120.874 6.57935 121.377Z"
        fill="#FF6600" />
    <path
        d="M213.579 210.377L214.933 213.244C215.027 213.444 215.209 213.582 215.419 213.614L218.446 214.074C218.976 214.154 219.188 214.836 218.804 215.226L216.614 217.458C216.462 217.614 216.392 217.837 216.428 218.057L216.945 221.208C217.036 221.76 216.482 222.181 216.008 221.921L213.301 220.433C213.113 220.33 212.887 220.33 212.699 220.433L209.992 221.921C209.518 222.182 208.964 221.76 209.055 221.208L209.572 218.057C209.608 217.837 209.538 217.614 209.386 217.458L207.196 215.226C206.812 214.835 207.024 214.154 207.554 214.074L210.581 213.614C210.791 213.582 210.973 213.444 211.067 213.244L212.421 210.377C212.657 209.874 213.342 209.874 213.579 210.377Z"
        fill="#FF6600" />
    <path
        d="M52.5794 230.377L53.9328 233.244C54.0269 233.444 54.2089 233.582 54.4194 233.614L57.446 234.074C57.9761 234.154 58.1876 234.836 57.8042 235.226L55.6142 237.458C55.462 237.614 55.3924 237.837 55.4284 238.057L55.9453 241.208C56.0359 241.76 55.4817 242.181 55.0076 241.921L52.3008 240.433C52.1125 240.33 51.8875 240.33 51.6992 240.433L48.9924 241.921C48.5183 242.182 47.9641 241.76 48.0547 241.208L48.5716 238.057C48.6076 237.837 48.538 237.614 48.3858 237.458L46.1958 235.226C45.8124 234.835 46.0239 234.154 46.554 234.074L49.5806 233.614C49.7911 233.582 49.9731 233.444 50.0672 233.244L51.4206 230.377C51.6574 229.874 52.3423 229.874 52.5794 230.377Z"
        fill="#FF6600" />
    <circle cx="140.5" cy="25.5" r="4.5" fill="#00FF00" />
    <circle cx="22.5" cy="44.5" r="4.5" fill="#00FF00" />
    <circle cx="173.5" cy="241.5" r="4.5" fill="#00FF00" />
    <circle cx="41.5" cy="180.5" r="4.5" fill="#00FF00" />
    <circle cx="237.5" cy="82.5" r="4.5" fill="#00FF00" />
    <circle cx="226.5" cy="162.5" r="4.5" fill="#00FF00" />
    <path fill-rule="evenodd" clip-rule="evenodd"
        d="M185.113 14H184.887C184.887 12.16 184.199 10.5513 182.824 9.17611C181.449 7.80094 179.841 7.11279 178 7.11279V6.88721C179.841 6.88721 181.449 6.19906 182.824 4.82048C184.199 3.44189 184.887 1.83431 184.887 0H185.113C185.113 1.84001 185.801 3.44873 187.176 4.82389C188.551 6.19906 190.159 6.88721 192 6.88721V7.11279C190.16 7.11279 188.551 7.80094 187.176 9.17611C185.801 10.5513 185.113 12.1589 185.113 14Z"
        fill="#1877F2" />
    <path fill-rule="evenodd" clip-rule="evenodd"
        d="M42.1128 99H41.8872C41.8872 97.16 41.1991 95.5513 39.8239 94.1761C38.4487 92.8009 36.8411 92.1128 35 92.1128V91.8872C36.8411 91.8872 38.4487 91.1991 39.8239 89.8205C41.1991 88.4419 41.8872 86.8343 41.8872 85H42.1128C42.1128 86.84 42.8009 88.4487 44.1761 89.8239C45.5513 91.1991 47.1589 91.8872 49 91.8872V92.1128C47.16 92.1128 45.5513 92.8009 44.1761 94.1761C42.8009 95.5513 42.1128 97.1589 42.1128 99Z"
        fill="#1877F2" />
    <path fill-rule="evenodd" clip-rule="evenodd"
        d="M254.113 135H253.887C253.887 133.16 253.199 131.551 251.824 130.176C250.449 128.801 248.841 128.113 247 128.113V127.887C248.841 127.887 250.449 127.199 251.824 125.82C253.199 124.442 253.887 122.834 253.887 121H254.113C254.113 122.84 254.801 124.449 256.176 125.824C257.551 127.199 259.159 127.887 261 127.887V128.113C259.16 128.113 257.551 128.801 256.176 130.176C254.801 131.551 254.113 133.159 254.113 135Z"
        fill="#1877F2" />
    <path fill-rule="evenodd" clip-rule="evenodd"
        d="M110.113 237H109.887C109.887 235.16 109.199 233.551 107.824 232.176C106.449 230.801 104.841 230.113 103 230.113V229.887C104.841 229.887 106.449 229.199 107.824 227.82C109.199 226.442 109.887 224.834 109.887 223H110.113C110.113 224.84 110.801 226.449 112.176 227.824C113.551 229.199 115.159 229.887 117 229.887V230.113C115.16 230.113 113.551 230.801 112.176 232.176C110.801 233.551 110.113 235.159 110.113 237Z"
        fill="#1877F2" />
    <defs>
        <clipPath id="clip0_942_1568">
            <rect width="154" height="154" fill="white" transform="translate(59 56)" />
        </clipPath>
    </defs>
</svg>
    