<svg width="80" height="80" viewBox="0 0 80 80" fill="none" xmlns="http://www.w3.org/2000/svg">
    <g clip-path="url(#clip0_110_120)">
        <path
            d="M40 80C62.0914 80 80 62.0914 80 40C80 17.9086 62.0914 0 40 0C17.9086 0 0 17.9086 0 40C0 62.0914 17.9086 80 40 80Z"
            fill="#69F0AE" />
        <path
            d="M56.4274 28.1832C55.7665 27.5286 54.6951 27.5286 54.0341 28.1832L33.7592 48.262L25.9659 40.5441C25.305 39.8896 24.2336 39.8896 23.5726 40.5441C22.9117 41.1985 22.9117 42.2596 23.5726 42.9141L32.5626 51.817C33.2232 52.4714 34.2955 52.471 34.9559 51.817L56.4274 30.5533C57.0883 29.8988 57.0882 28.8377 56.4274 28.1832Z"
            fill="white" stroke="white" stroke-width="3.55556" />
    </g>
    <defs>
        <clipPath id="clip0_110_120">
            <rect width="80" height="80" fill="white" />
        </clipPath>
    </defs>
</svg>