<svg width="33" height="33" viewBox="0 0 33 33" fill="none" xmlns="http://www.w3.org/2000/svg">
    <path fill-rule="evenodd" clip-rule="evenodd"
        d="M24.5648 16.3508H29.2642V15.5095C28.9954 14.5889 28.568 13.9647 28.0131 13.5846C27.4603 13.2058 26.7411 13.0435 25.898 13.0493L6.15861 13.0532C5.68449 13.0532 5.30019 12.6976 5.30019 12.2582C5.30019 11.8195 5.68449 11.4639 6.15861 11.4639L8.90861 11.4646C8.61551 11.042 8.36835 10.5904 8.17133 10.115C8.06203 9.84636 7.96734 9.57451 7.88937 9.29557H4.64576C3.84165 9.29557 3.10924 9.60092 2.57804 10.0924C2.04753 10.5833 1.71753 11.261 1.71753 12.0057V28.7006C1.71753 29.444 2.04823 30.1217 2.57943 30.6126C3.10854 31.1061 3.84165 31.4108 4.64576 31.4108H26.3353C27.1387 31.4108 27.8711 31.1048 28.403 30.6139C28.9335 30.1217 29.2642 29.4434 29.2642 28.7006V26.3191H24.5648C23.1132 26.3191 21.7939 25.7696 20.8401 24.8864L20.7503 24.7962C19.848 23.9175 19.2918 22.7341 19.2918 21.4399V21.2299C19.2918 19.8932 19.8849 18.6744 20.8401 17.7886L20.8492 17.7803C21.8065 16.8984 23.1216 16.3508 24.5648 16.3508ZM30.9817 16.3959C31.4767 16.4874 31.9202 16.7141 32.2641 17.0323C32.7173 17.4517 33 18.0328 33 18.6725V23.8982C33 24.5598 32.7055 25.1647 32.2293 25.6059C31.8874 25.9261 31.4551 26.1509 30.9817 26.2546V28.7006C30.9817 29.8789 30.4568 30.9534 29.6151 31.7322L29.6116 31.7354C28.7699 32.5143 27.6086 33 26.3353 33H4.64576C3.3731 33 2.21044 32.5149 1.36665 31.7348C0.523544 30.9579 0 29.8834 0 28.7006V12.0057C0 10.8223 0.522848 9.74715 1.36386 8.96832C2.20487 8.19013 3.36684 7.70634 4.64576 7.70634H7.645C7.64152 7.62131 7.64013 7.53563 7.64013 7.44931C7.64013 5.39433 8.54241 3.53067 10.0072 2.17271C13.1436 -0.721014 18.2704 -0.727456 21.4054 2.17271L21.4827 2.25066C22.8967 3.59702 23.7677 5.43104 23.7677 7.44931C23.7677 7.53563 23.7656 7.62131 23.7628 7.70634H26.3353C27.61 7.70634 28.7713 8.19142 29.6137 8.97089C30.4575 9.74844 30.9817 10.8249 30.9817 12.0057V16.3959ZM22.4985 11.4659H25.8751C27.0872 11.4556 28.1551 11.7107 29.033 12.313C29.1117 12.3671 29.189 12.4238 29.2642 12.483V12.0057C29.2642 11.2636 28.9335 10.5852 28.4016 10.0931C27.8732 9.60027 27.1415 9.29557 26.3353 9.29557H23.5177C23.4411 9.57515 23.3465 9.84893 23.2365 10.115C23.0401 10.5917 22.7923 11.0426 22.4985 11.4659ZM14.3898 4.16778C14.387 3.85792 14.3557 3.63567 14.772 3.64147L16.4749 3.65629C16.9087 3.65436 17.0242 3.78191 17.0194 4.15812V5.65007H18.6213C18.9562 5.64814 19.1957 5.61915 19.1894 6.00373L19.1734 7.57943C19.1755 7.98141 19.0384 8.08835 18.6311 8.08384H17.0194V9.5745C17.0242 9.95136 16.9087 10.0789 16.4749 10.0763L14.772 10.0911C14.3557 10.0969 14.387 9.87534 14.3898 9.56549V8.08384H12.7774C12.3701 8.08835 12.2323 7.98077 12.2351 7.57943L12.2191 6.00373C12.2121 5.61915 12.4523 5.64814 12.7872 5.65007H14.3898V4.16778ZM15.7042 1.2528C19.4025 1.2528 22.4003 4.0267 22.4003 7.44931C22.4003 9.04047 21.7515 10.4918 20.6856 11.5889H10.7215C9.65563 10.4918 9.00747 9.04047 9.00747 7.44931C9.00747 4.0267 12.0053 1.2528 15.7042 1.2528ZM24.9999 19.3424C25.566 19.3424 26.0797 19.5557 26.4515 19.9003C26.8261 20.2469 27.0565 20.7223 27.0565 21.246C27.0565 21.7691 26.8261 22.2445 26.4543 22.5892C26.0797 22.9357 25.566 23.149 24.9999 23.149C24.4346 23.149 23.9215 22.9357 23.5484 22.5917L23.5442 22.5879C23.1724 22.2426 22.9434 21.7678 22.9434 21.246C22.9434 20.7229 23.1738 20.2475 23.5456 19.9029L23.5497 19.899C23.9222 19.5557 24.4353 19.3424 24.9999 19.3424Z"
        fill="#F5F2F2" />
</svg>
    