<svg width="65" height="21" viewBox="0 0 65 21" fill="none" xmlns="http://www.w3.org/2000/svg">
    <path
        d="M28.0613 20.65H22.7794L26.0805 0.362508H31.363L28.0613 20.65ZM18.336 0.362508L13.3005 14.3164L12.7046 11.3116L12.7052 11.3127L10.9279 2.18916C10.9279 2.18916 10.713 0.362508 8.42236 0.362508H0.0976821L0 0.706023C0 0.706023 2.5457 1.23568 5.525 3.02488L10.1139 20.6505H15.6172L24.0205 0.362508H18.336ZM59.8807 20.65H64.7306L60.502 0.361966H56.2561C54.2954 0.361966 53.8179 1.87387 53.8179 1.87387L45.9404 20.65H51.4464L52.5475 17.6365H59.262L59.8807 20.65ZM54.0686 13.4736L56.8439 5.88154L58.4051 13.4736H54.0686ZM46.3534 5.24118L47.1071 0.884563C47.1071 0.884563 44.7812 0 42.3565 0C39.7354 0 33.5109 1.14559 33.5109 6.71618C33.5109 11.9574 40.8164 12.0225 40.8164 14.7755C40.8164 17.5285 34.2636 17.0352 32.101 15.2992L31.3158 19.8544C31.3158 19.8544 33.6742 21 37.2776 21C40.8821 21 46.3197 19.1337 46.3197 14.0543C46.3197 8.77944 38.9485 8.28832 38.9485 5.99496C38.9491 3.70106 44.0931 3.99573 46.3534 5.24118Z"
        fill="#2566AF" />
</svg>
    