<svg width="29" height="22" viewBox="0 0 29 22" fill="none" xmlns="http://www.w3.org/2000/svg">
    <path
        d="M24.65 18.125C24.6472 19.0855 24.2643 20.0059 23.5851 20.6851C22.9059 21.3643 21.9855 21.7472 21.025 21.75H3.625C2.66446 21.7472 1.74408 21.3643 1.06487 20.6851C0.385669 20.0059 0.00283897 19.0855 0 18.125L0 3.625C0.00283897 2.66446 0.385669 1.74408 1.06487 1.06487C1.74408 0.385669 2.66446 0.00283897 3.625 0H21.025C21.9855 0.00283897 22.9059 0.385669 23.5851 1.06487C24.2643 1.74408 24.6472 2.66446 24.65 3.625V5.8H22.475C19.6838 5.8 17.4 8.08375 17.4 10.875C17.4 13.6663 19.6838 15.95 22.475 15.95H24.65V18.125ZM25.375 0H24.5701C25.0543 0.471415 25.4391 1.03508 25.7017 1.65769C25.9644 2.28031 26.0996 2.94925 26.0994 3.625V5.8H29V3.625C28.9972 2.66446 28.6143 1.74408 27.9351 1.06487C27.2559 0.385669 26.3355 0.00283897 25.375 0ZM26.1 18.125C26.1002 18.8008 25.965 19.4697 25.7023 20.0923C25.4396 20.7149 25.0549 21.2786 24.5707 21.75H25.375C26.3355 21.7472 27.2559 21.3643 27.9351 20.6851C28.6143 20.0059 28.9972 19.0855 29 18.125V15.95H26.1V18.125ZM22.475 7.25H29V14.5H22.475C21.5136 14.5 20.5916 14.1181 19.9117 13.4383C19.2319 12.7584 18.85 11.8364 18.85 10.875C18.85 9.91359 19.2319 8.99156 19.9117 8.31174C20.5916 7.63192 21.5136 7.25 22.475 7.25ZM22.475 9.425C22.1882 9.425 21.9079 9.51004 21.6694 9.66937C21.431 9.8287 21.2451 10.0552 21.1354 10.3201C21.0256 10.5851 20.9969 10.8766 21.0529 11.1579C21.1088 11.4392 21.2469 11.6975 21.4497 11.9003C21.6525 12.1031 21.9108 12.2412 22.1921 12.2971C22.4734 12.3531 22.7649 12.3244 23.0299 12.2146C23.2948 12.1049 23.5213 11.919 23.6806 11.6806C23.84 11.4421 23.925 11.1618 23.925 10.875C23.925 10.4904 23.7722 10.1216 23.5003 9.8497C23.2284 9.57777 22.8596 9.425 22.475 9.425Z"
        fill="#FF6600" />
</svg>
    